%TF.GenerationSoftware,KiCad,Pcbnew,10.0.2*%
%TF.CreationDate,2026-06-17T00:55:55+02:00*%
%TF.ProjectId,Zero_Palm_V1,5a65726f-5f50-4616-9c6d-5f56312e6b69,rev?*%
%TF.SameCoordinates,Original*%
%TF.FileFunction,Paste,Bot*%
%TF.FilePolarity,Positive*%
%FSLAX46Y46*%
G04 Gerber Fmt 4.6, Leading zero omitted, Abs format (unit mm)*
G04 Created by KiCad (PCBNEW 10.0.2) date 2026-06-17 00:55:55*
%MOMM*%
%LPD*%
G01*
G04 APERTURE LIST*
G04 Aperture macros list*
%AMRoundRect*
0 Rectangle with rounded corners*
0 $1 Rounding radius*
0 $2 $3 $4 $5 $6 $7 $8 $9 X,Y pos of 4 corners*
0 Add a 4 corners polygon primitive as box body*
4,1,4,$2,$3,$4,$5,$6,$7,$8,$9,$2,$3,0*
0 Add four circle primitives for the rounded corners*
1,1,$1+$1,$2,$3*
1,1,$1+$1,$4,$5*
1,1,$1+$1,$6,$7*
1,1,$1+$1,$8,$9*
0 Add four rect primitives between the rounded corners*
20,1,$1+$1,$2,$3,$4,$5,0*
20,1,$1+$1,$4,$5,$6,$7,0*
20,1,$1+$1,$6,$7,$8,$9,0*
20,1,$1+$1,$8,$9,$2,$3,0*%
G04 Aperture macros list end*
%ADD10RoundRect,0.250000X-0.250000X-0.475000X0.250000X-0.475000X0.250000X0.475000X-0.250000X0.475000X0*%
%ADD11RoundRect,0.100000X-0.100000X0.637500X-0.100000X-0.637500X0.100000X-0.637500X0.100000X0.637500X0*%
%ADD12RoundRect,0.100000X0.100000X-0.637500X0.100000X0.637500X-0.100000X0.637500X-0.100000X-0.637500X0*%
%ADD13RoundRect,0.250000X-0.262500X-0.450000X0.262500X-0.450000X0.262500X0.450000X-0.262500X0.450000X0*%
%ADD14RoundRect,0.250000X0.250000X0.475000X-0.250000X0.475000X-0.250000X-0.475000X0.250000X-0.475000X0*%
%ADD15RoundRect,0.250000X0.262500X0.450000X-0.262500X0.450000X-0.262500X-0.450000X0.262500X-0.450000X0*%
G04 APERTURE END LIST*
D10*
%TO.C,C4*%
X69450000Y-63500000D03*
X67550000Y-63500000D03*
%TD*%
D11*
%TO.C,U2*%
X58381610Y-61275001D03*
X59031610Y-61275001D03*
X59681610Y-61275001D03*
X60331610Y-61275001D03*
X60981610Y-61275001D03*
X61631610Y-61275001D03*
X62281610Y-61275001D03*
X62931610Y-61275001D03*
X63581610Y-61275001D03*
X64231610Y-61275001D03*
X64881610Y-61275001D03*
X65531610Y-61275001D03*
X65531610Y-67000001D03*
X64881610Y-67000001D03*
X64231610Y-67000001D03*
X63581610Y-67000001D03*
X62931610Y-67000001D03*
X62281610Y-67000001D03*
X61631610Y-67000001D03*
X60981610Y-67000001D03*
X60331610Y-67000001D03*
X59681610Y-67000001D03*
X59031610Y-67000001D03*
X58381610Y-67000001D03*
%TD*%
D12*
%TO.C,U1*%
X82075000Y-65725000D03*
X81425000Y-65725000D03*
X80775000Y-65725000D03*
X80125000Y-65725000D03*
X79475000Y-65725000D03*
X78825000Y-65725000D03*
X78175000Y-65725000D03*
X77525000Y-65725000D03*
X76875000Y-65725000D03*
X76225000Y-65725000D03*
X75575000Y-65725000D03*
X74925000Y-65725000D03*
X74925000Y-60000000D03*
X75575000Y-60000000D03*
X76225000Y-60000000D03*
X76875000Y-60000000D03*
X77525000Y-60000000D03*
X78175000Y-60000000D03*
X78825000Y-60000000D03*
X79475000Y-60000000D03*
X80125000Y-60000000D03*
X80775000Y-60000000D03*
X81425000Y-60000000D03*
X82075000Y-60000000D03*
%TD*%
D13*
%TO.C,R3*%
X67587500Y-65500000D03*
X69412500Y-65500000D03*
%TD*%
D14*
%TO.C,C3*%
X87950000Y-67500000D03*
X86050000Y-67500000D03*
%TD*%
D15*
%TO.C,R6*%
X89500000Y-63500000D03*
X87675000Y-63500000D03*
%TD*%
D14*
%TO.C,C5*%
X63950000Y-56000000D03*
X62050000Y-56000000D03*
%TD*%
D15*
%TO.C,R4*%
X73412500Y-65500000D03*
X71587500Y-65500000D03*
%TD*%
%TO.C,R5*%
X73412500Y-63500000D03*
X71587500Y-63500000D03*
%TD*%
M02*
