%TF.GenerationSoftware,KiCad,Pcbnew,10.0.2*%
%TF.CreationDate,2026-06-17T00:55:55+02:00*%
%TF.ProjectId,Zero_Palm_V1,5a65726f-5f50-4616-9c6d-5f56312e6b69,rev?*%
%TF.SameCoordinates,Original*%
%TF.FileFunction,Copper,L2,Bot*%
%TF.FilePolarity,Positive*%
%FSLAX46Y46*%
G04 Gerber Fmt 4.6, Leading zero omitted, Abs format (unit mm)*
G04 Created by KiCad (PCBNEW 10.0.2) date 2026-06-17 00:55:55*
%MOMM*%
%LPD*%
G01*
G04 APERTURE LIST*
G04 Aperture macros list*
%AMRoundRect*
0 Rectangle with rounded corners*
0 $1 Rounding radius*
0 $2 $3 $4 $5 $6 $7 $8 $9 X,Y pos of 4 corners*
0 Add a 4 corners polygon primitive as box body*
4,1,4,$2,$3,$4,$5,$6,$7,$8,$9,$2,$3,0*
0 Add four circle primitives for the rounded corners*
1,1,$1+$1,$2,$3*
1,1,$1+$1,$4,$5*
1,1,$1+$1,$6,$7*
1,1,$1+$1,$8,$9*
0 Add four rect primitives between the rounded corners*
20,1,$1+$1,$2,$3,$4,$5,0*
20,1,$1+$1,$4,$5,$6,$7,0*
20,1,$1+$1,$6,$7,$8,$9,0*
20,1,$1+$1,$8,$9,$2,$3,0*%
G04 Aperture macros list end*
%TA.AperFunction,SMDPad,CuDef*%
%ADD10RoundRect,0.250000X-0.250000X-0.475000X0.250000X-0.475000X0.250000X0.475000X-0.250000X0.475000X0*%
%TD*%
%TA.AperFunction,SMDPad,CuDef*%
%ADD11RoundRect,0.100000X-0.100000X0.637500X-0.100000X-0.637500X0.100000X-0.637500X0.100000X0.637500X0*%
%TD*%
%TA.AperFunction,SMDPad,CuDef*%
%ADD12RoundRect,0.100000X0.100000X-0.637500X0.100000X0.637500X-0.100000X0.637500X-0.100000X-0.637500X0*%
%TD*%
%TA.AperFunction,ComponentPad*%
%ADD13R,1.700000X1.700000*%
%TD*%
%TA.AperFunction,ComponentPad*%
%ADD14C,1.700000*%
%TD*%
%TA.AperFunction,SMDPad,CuDef*%
%ADD15RoundRect,0.250000X-0.262500X-0.450000X0.262500X-0.450000X0.262500X0.450000X-0.262500X0.450000X0*%
%TD*%
%TA.AperFunction,SMDPad,CuDef*%
%ADD16RoundRect,0.250000X0.250000X0.475000X-0.250000X0.475000X-0.250000X-0.475000X0.250000X-0.475000X0*%
%TD*%
%TA.AperFunction,SMDPad,CuDef*%
%ADD17RoundRect,0.250000X0.262500X0.450000X-0.262500X0.450000X-0.262500X-0.450000X0.262500X-0.450000X0*%
%TD*%
%TA.AperFunction,ViaPad*%
%ADD18C,0.600000*%
%TD*%
%TA.AperFunction,Conductor*%
%ADD19C,0.300000*%
%TD*%
G04 APERTURE END LIST*
D10*
%TO.P,C4,2*%
%TO.N,GND*%
X69450000Y-63500000D03*
%TO.P,C4,1*%
%TO.N,+3.3V*%
X67550000Y-63500000D03*
%TD*%
D11*
%TO.P,U2,1,A0_1*%
%TO.N,+3.3V*%
X58381610Y-61275001D03*
%TO.P,U2,2,A1_2*%
%TO.N,GND*%
X59031610Y-61275001D03*
%TO.P,U2,3,~{RESET}_3*%
%TO.N,Net-(U2-~{RESET})*%
X59681610Y-61275001D03*
%TO.P,U2,4,SD0_4*%
%TO.N,SCL8*%
X60331610Y-61275001D03*
%TO.P,U2,5,SC0_5*%
%TO.N,SDA8*%
X60981610Y-61275001D03*
%TO.P,U2,6,SD1_6*%
%TO.N,SCL9*%
X61631610Y-61275001D03*
%TO.P,U2,7,SC1_7*%
%TO.N,SDA9*%
X62281610Y-61275001D03*
%TO.P,U2,8,SD2_8*%
%TO.N,SCL10*%
X62931610Y-61275001D03*
%TO.P,U2,9,SC2_9*%
%TO.N,SDA10*%
X63581610Y-61275001D03*
%TO.P,U2,10,SD3_10*%
%TO.N,SCL11*%
X64231610Y-61275001D03*
%TO.P,U2,11,SC3_11*%
%TO.N,SDA11*%
X64881610Y-61275001D03*
%TO.P,U2,12,GND_12*%
%TO.N,GND*%
X65531610Y-61275001D03*
%TO.P,U2,13,SD4_13*%
%TO.N,SCL12*%
X65531610Y-67000001D03*
%TO.P,U2,14,SC4_14*%
%TO.N,SDA12*%
X64881610Y-67000001D03*
%TO.P,U2,15,SD5_15*%
%TO.N,SCL13*%
X64231610Y-67000001D03*
%TO.P,U2,16,SC5_16*%
%TO.N,SDA13*%
X63581610Y-67000001D03*
%TO.P,U2,17,SD6_17*%
%TO.N,unconnected-(U2-SD6-Pad17)*%
X62931610Y-67000001D03*
%TO.P,U2,18,SC6_18*%
%TO.N,unconnected-(U2-SC6-Pad18)*%
X62281610Y-67000001D03*
%TO.P,U2,19,SD7_19*%
%TO.N,unconnected-(U2-SD7-Pad19)*%
X61631610Y-67000001D03*
%TO.P,U2,20,SC7_20*%
%TO.N,unconnected-(U2-SC7-Pad20)*%
X60981610Y-67000001D03*
%TO.P,U2,21,A2_21*%
%TO.N,GND*%
X60331610Y-67000001D03*
%TO.P,U2,22,SCL_22*%
%TO.N,SCL_Main*%
X59681610Y-67000001D03*
%TO.P,U2,23,SDA_23*%
%TO.N,SDA_Main*%
X59031610Y-67000001D03*
%TO.P,U2,24,VCC_24*%
%TO.N,+3.3V*%
X58381610Y-67000001D03*
%TD*%
D12*
%TO.P,U1,1,A0_1*%
%TO.N,GND*%
X82075000Y-65725000D03*
%TO.P,U1,2,A1_2*%
X81425000Y-65725000D03*
%TO.P,U1,3,~{RESET}_3*%
%TO.N,Net-(U1-~{RESET})*%
X80775000Y-65725000D03*
%TO.P,U1,4,SD0_4*%
%TO.N,SDA0*%
X80125000Y-65725000D03*
%TO.P,U1,5,SC0_5*%
%TO.N,SCL0*%
X79475000Y-65725000D03*
%TO.P,U1,6,SD1_6*%
%TO.N,SDA1*%
X78825000Y-65725000D03*
%TO.P,U1,7,SC1_7*%
%TO.N,SCL1*%
X78175000Y-65725000D03*
%TO.P,U1,8,SD2_8*%
%TO.N,SDA2*%
X77525000Y-65725000D03*
%TO.P,U1,9,SC2_9*%
%TO.N,SCL2*%
X76875000Y-65725000D03*
%TO.P,U1,10,SD3_10*%
%TO.N,SDA3*%
X76225000Y-65725000D03*
%TO.P,U1,11,SC3_11*%
%TO.N,SCL3*%
X75575000Y-65725000D03*
%TO.P,U1,12,GND_12*%
%TO.N,GND*%
X74925000Y-65725000D03*
%TO.P,U1,13,SD4_13*%
%TO.N,SDA4*%
X74925000Y-60000000D03*
%TO.P,U1,14,SC4_14*%
%TO.N,SCL4*%
X75575000Y-60000000D03*
%TO.P,U1,15,SD5_15*%
%TO.N,SDA5*%
X76225000Y-60000000D03*
%TO.P,U1,16,SC5_16*%
%TO.N,SCL5*%
X76875000Y-60000000D03*
%TO.P,U1,17,SD6_17*%
%TO.N,SDA6*%
X77525000Y-60000000D03*
%TO.P,U1,18,SC6_18*%
%TO.N,SCL6*%
X78175000Y-60000000D03*
%TO.P,U1,19,SD7_19*%
%TO.N,SDA7*%
X78825000Y-60000000D03*
%TO.P,U1,20,SC7_20*%
%TO.N,SCL7*%
X79475000Y-60000000D03*
%TO.P,U1,21,A2_21*%
%TO.N,GND*%
X80125000Y-60000000D03*
%TO.P,U1,22,SCL_22*%
%TO.N,SCL_Main*%
X80775000Y-60000000D03*
%TO.P,U1,23,SDA_23*%
%TO.N,SDA_Main*%
X81425000Y-60000000D03*
%TO.P,U1,24,VCC_24*%
%TO.N,+3.3V*%
X82075000Y-60000000D03*
%TD*%
D13*
%TO.P,J41,1,Pin_1_1*%
%TO.N,GND*%
X68650000Y-70800000D03*
D14*
%TO.P,J41,2,Pin_2_2*%
X71190000Y-70800000D03*
%TO.P,J41,3,Pin_3_3*%
%TO.N,unconnected-(J41-Pin_3-Pad3)*%
X73730000Y-70800000D03*
%TO.P,J41,4,Pin_4_4*%
%TO.N,unconnected-(J41-Pin_4-Pad4)*%
X76270000Y-70800000D03*
%TO.P,J41,5,Pin_5_5*%
%TO.N,unconnected-(J41-Pin_5-Pad5)*%
X78810000Y-70800000D03*
%TO.P,J41,6,Pin_6_6*%
%TO.N,GND*%
X81350000Y-70800000D03*
%TO.P,J41,7,Pin_7_7*%
%TO.N,Net-(J41-Pin_7)*%
X83890000Y-70800000D03*
%TO.P,J41,8,Pin_8_8*%
%TO.N,Net-(J41-Pin_8)*%
X86430000Y-70800000D03*
%TO.P,J41,9,Pin_9_9*%
%TO.N,GND*%
X88970000Y-70800000D03*
%TO.P,J41,10,Pin_10_10*%
%TO.N,+3.3V*%
X91510000Y-70800000D03*
%TD*%
D15*
%TO.P,R3,1*%
%TO.N,SCL_Main*%
X67587500Y-65500000D03*
%TO.P,R3,2*%
%TO.N,+3.3V*%
X69412500Y-65500000D03*
%TD*%
D16*
%TO.P,C3,1*%
%TO.N,GND*%
X87950000Y-67500000D03*
%TO.P,C3,2*%
%TO.N,+3.3V*%
X86050000Y-67500000D03*
%TD*%
D17*
%TO.P,R6,1*%
%TO.N,+3.3V*%
X89500000Y-63500000D03*
%TO.P,R6,2*%
%TO.N,Net-(U1-~{RESET})*%
X87675000Y-63500000D03*
%TD*%
D16*
%TO.P,C5,1*%
%TO.N,+3.3V*%
X63950000Y-56000000D03*
%TO.P,C5,2*%
%TO.N,GND*%
X62050000Y-56000000D03*
%TD*%
D17*
%TO.P,R4,1*%
%TO.N,SDA_Main*%
X73412500Y-65500000D03*
%TO.P,R4,2*%
%TO.N,+3.3V*%
X71587500Y-65500000D03*
%TD*%
%TO.P,R5,1*%
%TO.N,+3.3V*%
X73412500Y-63500000D03*
%TO.P,R5,2*%
%TO.N,Net-(U2-~{RESET})*%
X71587500Y-63500000D03*
%TD*%
D18*
%TO.N,GND*%
X65500000Y-64000000D03*
X68550000Y-63500000D03*
%TO.N,SDA_Main*%
X69000000Y-68500000D03*
%TO.N,GND*%
X61932382Y-65795190D03*
%TO.N,SDA_Main*%
X80500000Y-58500000D03*
X65934313Y-68565687D03*
X76500000Y-62500000D03*
%TO.N,SDA3*%
X99000000Y-64500000D03*
%TO.N,SDA11*%
X67219375Y-59150000D03*
%TO.N,SDA2*%
X83500000Y-66850000D03*
X88000000Y-65850000D03*
X77500000Y-67500000D03*
%TO.N,+3.3V*%
X67000000Y-54000000D03*
X100000000Y-71500000D03*
X99547723Y-69850001D03*
X98000000Y-69500000D03*
X82000000Y-58000000D03*
X90500000Y-63500000D03*
X94500000Y-63350000D03*
X83000000Y-59000000D03*
X59500000Y-64500000D03*
%TO.N,SDA6*%
X78000000Y-58500000D03*
%TO.N,GND*%
X66500000Y-59500000D03*
X66000000Y-54000000D03*
X104000000Y-68500000D03*
X59500000Y-56500000D03*
X69500000Y-53000000D03*
X80012462Y-61050929D03*
X93034620Y-63965380D03*
X88587501Y-64327171D03*
X59500000Y-60000000D03*
X84500000Y-60850000D03*
X86000000Y-57000000D03*
X84500000Y-60000000D03*
X83500000Y-65500000D03*
X59000000Y-72000000D03*
X57731609Y-64500000D03*
%TO.N,SCL8*%
X60500000Y-58000000D03*
%TO.N,SCL5*%
X77000000Y-58500000D03*
%TO.N,SCL7*%
X77000000Y-54500000D03*
%TO.N,SDA7*%
X91500000Y-61500000D03*
X77500000Y-62350929D03*
X78712459Y-61050929D03*
%TO.N,SCL12*%
X64619235Y-68500001D03*
%TO.N,SCL13*%
X63000000Y-69199997D03*
%TO.N,SCL4*%
X74500000Y-58500000D03*
%TO.N,SCL_Main*%
X63500000Y-72500000D03*
X67500000Y-67000000D03*
X80887538Y-61050929D03*
X63000000Y-70000000D03*
%TO.N,SDA10*%
X66000000Y-58000000D03*
%TO.N,SDA1*%
X79000000Y-64000000D03*
%TO.N,SDA4*%
X73000000Y-59000000D03*
%TO.N,SDA13*%
X62000000Y-69000000D03*
%TO.N,SCL10*%
X64500000Y-58000000D03*
%TO.N,SCL6*%
X79000000Y-58500000D03*
%TO.N,SDA8*%
X61500000Y-58000000D03*
%TO.N,SCL11*%
X68000000Y-58000000D03*
%TO.N,SCL1*%
X97000000Y-69500000D03*
%TO.N,SDA5*%
X76000000Y-58500000D03*
%TO.N,SCL2*%
X83541619Y-62740178D03*
%TO.N,SDA12*%
X66500000Y-68000000D03*
%TO.N,SCL9*%
X62500000Y-58000000D03*
%TO.N,SDA9*%
X63500000Y-58000000D03*
%TO.N,SDA0*%
X80500000Y-68150000D03*
%TO.N,SCL0*%
X79000000Y-68500000D03*
%TO.N,SCL3*%
X92000000Y-63850000D03*
X83000000Y-61500000D03*
X76000000Y-64500000D03*
%TD*%
%TO.N,+3.3V*%
D19*
X86050000Y-67500000D02*
X87125000Y-68575000D01*
X87125000Y-68575000D02*
X96925000Y-68575000D01*
X96925000Y-68575000D02*
X97000000Y-68500000D01*
%TO.N,GND*%
X65500000Y-64000000D02*
X64500000Y-65000000D01*
X64500000Y-65000000D02*
X60331611Y-65000000D01*
X69450000Y-63500000D02*
X68550000Y-63500000D01*
%TO.N,SCL_Main*%
X67587500Y-65500000D02*
X67587500Y-66912500D01*
X67587500Y-66912500D02*
X67500000Y-67000000D01*
%TO.N,SDA_Main*%
X73412500Y-65500000D02*
X73500000Y-65500000D01*
X73500000Y-65500000D02*
X76500000Y-62500000D01*
X69000000Y-68500000D02*
X70412500Y-68500000D01*
X70412500Y-68500000D02*
X73412500Y-65500000D01*
%TO.N,+3.3V*%
X82075000Y-60000000D02*
X82075000Y-58075000D01*
X82075000Y-58075000D02*
X82000000Y-58000000D01*
X63950000Y-56000000D02*
X62875000Y-57075000D01*
X60505761Y-57075000D02*
X58550730Y-59030031D01*
X62875000Y-57075000D02*
X60505761Y-57075000D01*
X58550730Y-59030031D02*
X58500000Y-59267282D01*
X58500000Y-59267282D02*
X58481610Y-59285672D01*
X58481610Y-59285672D02*
X58481610Y-61175001D01*
X58481610Y-61175001D02*
X58381610Y-61275001D01*
%TO.N,GND*%
X59500000Y-56500000D02*
X62000000Y-54000000D01*
X62000000Y-54000000D02*
X66000000Y-54000000D01*
%TO.N,+3.3V*%
X73412500Y-63500000D02*
X73412500Y-62989358D01*
X73412500Y-62989358D02*
X74700929Y-61700929D01*
X71587500Y-65500000D02*
X71587500Y-65325000D01*
X71587500Y-65325000D02*
X73412500Y-63500000D01*
X69412500Y-65500000D02*
X71587500Y-65500000D01*
X67550000Y-63500000D02*
X67550000Y-63637500D01*
X67550000Y-63637500D02*
X69412500Y-65500000D01*
%TO.N,GND*%
X66000000Y-54000000D02*
X67000000Y-53000000D01*
X67000000Y-53000000D02*
X69500000Y-53000000D01*
%TO.N,SDA_Main*%
X59031610Y-67000002D02*
X59031610Y-67794607D01*
X63650000Y-69850000D02*
X64349999Y-69150001D01*
X65269235Y-68769240D02*
X65269235Y-68696148D01*
X64888474Y-69150001D02*
X65269235Y-68769240D01*
X59031610Y-67794607D02*
X61887003Y-70650000D01*
X64349999Y-69150001D02*
X64888474Y-69150001D01*
X63650000Y-70269239D02*
X63650000Y-69850000D01*
X65399696Y-68565687D02*
X65934313Y-68565687D01*
X65269235Y-68696148D02*
X65399696Y-68565687D01*
X61887003Y-70650000D02*
X63269239Y-70650000D01*
X80500000Y-58500000D02*
X80651667Y-58500000D01*
X80651667Y-58500000D02*
X81424999Y-59273332D01*
X63269239Y-70650000D02*
X63650000Y-70269239D01*
X59000000Y-67031612D02*
X59031610Y-67000002D01*
X81424999Y-59273332D02*
X81424999Y-60000000D01*
%TO.N,SDA3*%
X77500000Y-71187057D02*
X77500000Y-68500000D01*
X99000000Y-69500000D02*
X99000000Y-64500000D01*
X77500000Y-68500000D02*
X76225001Y-67225001D01*
X77500000Y-71187057D02*
X78312943Y-72000000D01*
X96500000Y-72000000D02*
X99000000Y-69500000D01*
X78312943Y-72000000D02*
X96500000Y-72000000D01*
X76225001Y-67225001D02*
X76225001Y-65725000D01*
%TO.N,SDA11*%
X65231612Y-62362501D02*
X64881610Y-62012499D01*
X66081611Y-60918389D02*
X66081611Y-62101669D01*
X66081611Y-62101669D02*
X65820779Y-62362501D01*
X64881610Y-62012499D02*
X64881610Y-61275000D01*
X65820779Y-62362501D02*
X65231612Y-62362501D01*
X67219375Y-59150000D02*
X67219375Y-59780625D01*
X67219375Y-59780625D02*
X66081611Y-60918389D01*
%TO.N,SDA2*%
X84150000Y-66850000D02*
X85150000Y-65850000D01*
X77524999Y-67475001D02*
X77500000Y-67500000D01*
X83500000Y-66850000D02*
X84150000Y-66850000D01*
X77524999Y-65725000D02*
X77524999Y-67475001D01*
X85150000Y-65850000D02*
X88000000Y-65850000D01*
%TO.N,+3.3V*%
X58381610Y-63500000D02*
X58500000Y-63500000D01*
X58381609Y-67000001D02*
X58381610Y-63500000D01*
X65000000Y-56000000D02*
X67000000Y-54000000D01*
X100000000Y-70302278D02*
X99547723Y-69850001D01*
X81700000Y-61700929D02*
X74700929Y-61700929D01*
X89500000Y-63500000D02*
X90500000Y-63500000D01*
X63950000Y-56000000D02*
X65000000Y-56000000D01*
X83000000Y-60400929D02*
X81700000Y-61700929D01*
X58381610Y-63500000D02*
X58381610Y-61275002D01*
X97000000Y-68500000D02*
X94500000Y-66000000D01*
X100000000Y-71500000D02*
X100000000Y-70302278D01*
X98000000Y-69500000D02*
X97000000Y-68500000D01*
X58500000Y-63500000D02*
X59500000Y-64500000D01*
X73500000Y-60500000D02*
X67000000Y-54000000D01*
X83000000Y-59000000D02*
X83000000Y-60400929D01*
X94500000Y-66000000D02*
X94500000Y-63350000D01*
X74700929Y-61700929D02*
X73500000Y-60500000D01*
%TO.N,SDA6*%
X77525000Y-60000001D02*
X77525000Y-58975000D01*
X77525000Y-58975000D02*
X78000000Y-58500000D01*
%TO.N,GND*%
X60331611Y-65000000D02*
X60331611Y-63369605D01*
X65531611Y-60468389D02*
X66500000Y-59500000D01*
X80125000Y-60938391D02*
X80012462Y-61050929D01*
X88587501Y-64327171D02*
X89000000Y-64739670D01*
X83275000Y-65725000D02*
X83500000Y-65500000D01*
X68650000Y-70800000D02*
X66119239Y-70800000D01*
X89000000Y-66450000D02*
X89000000Y-65000000D01*
X92000000Y-65000000D02*
X89000000Y-65000000D01*
X60331611Y-63369605D02*
X59031611Y-62069605D01*
X60150000Y-73150000D02*
X59000000Y-72000000D01*
X63769239Y-73150000D02*
X60150000Y-73150000D01*
X93034620Y-63965380D02*
X92000000Y-65000000D01*
X59031611Y-62069605D02*
X59031611Y-61275002D01*
X66119239Y-70800000D02*
X63769239Y-73150000D01*
X59500000Y-60000000D02*
X59031611Y-60468389D01*
X84500000Y-58500000D02*
X84500000Y-60000000D01*
X87950000Y-67500000D02*
X89000000Y-66450000D01*
X60331611Y-67000001D02*
X60331611Y-65000000D01*
X89000000Y-64739670D02*
X89000000Y-65000000D01*
X74495000Y-67495000D02*
X72840000Y-69150000D01*
X89000000Y-65000000D02*
X82150001Y-65000000D01*
X74925000Y-67065000D02*
X74495000Y-67495000D01*
X74495000Y-67495000D02*
X71190000Y-70800000D01*
X65531611Y-61275001D02*
X65531611Y-60468389D01*
X59031611Y-60468389D02*
X59031611Y-61275002D01*
X74925000Y-65725000D02*
X74925000Y-67065000D01*
X82075001Y-65725000D02*
X83275000Y-65725000D01*
X82150001Y-65000000D02*
X81425001Y-65725000D01*
X81425001Y-65725000D02*
X82075001Y-65725000D01*
X80125000Y-60000001D02*
X80125000Y-60938391D01*
X86000000Y-57000000D02*
X84500000Y-58500000D01*
%TO.N,SCL8*%
X60331609Y-58168391D02*
X60331609Y-61275002D01*
X60500000Y-58000000D02*
X60331609Y-58168391D01*
%TO.N,SCL5*%
X76875000Y-60000001D02*
X76875000Y-58625000D01*
X76875000Y-58625000D02*
X77000000Y-58500000D01*
%TO.N,SCL7*%
X79475001Y-59024999D02*
X79475001Y-60000000D01*
X78000000Y-54500000D02*
X79650000Y-56150000D01*
X79650000Y-58850000D02*
X79475001Y-59024999D01*
X79650000Y-56150000D02*
X79650000Y-58850000D01*
X77000000Y-54500000D02*
X78000000Y-54500000D01*
%TO.N,SDA7*%
X78824999Y-60938389D02*
X78712459Y-61050929D01*
X79150000Y-62200929D02*
X81907106Y-62200929D01*
X81907106Y-62200929D02*
X82108036Y-62000000D01*
X79000000Y-62350929D02*
X79150000Y-62200929D01*
X91000000Y-62000000D02*
X91500000Y-61500000D01*
X77500000Y-62350929D02*
X79000000Y-62350929D01*
X83269239Y-62150000D02*
X83419239Y-62000000D01*
X82108036Y-62000000D02*
X82580761Y-62000000D01*
X83419239Y-62000000D02*
X91000000Y-62000000D01*
X82730761Y-62150000D02*
X83269239Y-62150000D01*
X82580761Y-62000000D02*
X82730761Y-62150000D01*
X78824999Y-60000000D02*
X78824999Y-60938389D01*
%TO.N,SCL12*%
X65531610Y-67726667D02*
X65531610Y-67000000D01*
X64758276Y-68500001D02*
X65531610Y-67726667D01*
X64619235Y-68500001D02*
X64758276Y-68500001D01*
%TO.N,SCL13*%
X64231608Y-67968389D02*
X64231608Y-67000001D01*
X63000000Y-69199997D02*
X64231608Y-67968389D01*
%TO.N,SCL4*%
X75574999Y-60000000D02*
X75574999Y-59273332D01*
X74801667Y-58500000D02*
X74500000Y-58500000D01*
X75574999Y-59273332D02*
X74801667Y-58500000D01*
%TO.N,SCL_Main*%
X67500000Y-67000000D02*
X67500000Y-68500000D01*
X63000000Y-70000000D02*
X61944109Y-70000000D01*
X59681608Y-67737499D02*
X59681608Y-67000000D01*
X80774999Y-60000000D02*
X80774999Y-60938390D01*
X80774999Y-60938390D02*
X80887538Y-61050929D01*
X59681611Y-66999997D02*
X59681608Y-67000000D01*
X67500000Y-68500000D02*
X63500000Y-72500000D01*
X61944109Y-70000000D02*
X59681608Y-67737499D01*
%TO.N,SDA10*%
X66000000Y-58000000D02*
X63581609Y-60418391D01*
X63581609Y-60418391D02*
X63581609Y-61275001D01*
%TO.N,SDA1*%
X78825000Y-64175000D02*
X78825000Y-65725001D01*
X79000000Y-64000000D02*
X78825000Y-64175000D01*
%TO.N,SDA4*%
X74000000Y-60000000D02*
X73000000Y-59000000D01*
X74924999Y-60000000D02*
X74000000Y-60000000D01*
%TO.N,SDA13*%
X62000000Y-69000000D02*
X62450003Y-68549997D01*
X62450003Y-68549997D02*
X62942894Y-68549997D01*
X62942894Y-68549997D02*
X63581611Y-67911280D01*
X63581611Y-67911280D02*
X63581611Y-67000000D01*
%TO.N,SCL10*%
X64500000Y-58000000D02*
X62931610Y-59568390D01*
X62931610Y-59568390D02*
X62931610Y-61275001D01*
%TO.N,SCL6*%
X78175000Y-59999999D02*
X78175000Y-59262500D01*
X78175000Y-59262500D02*
X78937500Y-58500000D01*
X78937500Y-58500000D02*
X79000000Y-58500000D01*
%TO.N,SDA8*%
X60981610Y-58518390D02*
X60981610Y-61275002D01*
X61500000Y-58000000D02*
X60981610Y-58518390D01*
%TO.N,SCL11*%
X64581615Y-60187500D02*
X64231612Y-60537503D01*
X66500000Y-58500000D02*
X64812500Y-60187500D01*
X67500000Y-58500000D02*
X66500000Y-58500000D01*
X68000000Y-58000000D02*
X67500000Y-58500000D01*
X64812500Y-60187500D02*
X64581615Y-60187500D01*
X64231612Y-60537503D02*
X64231612Y-61275002D01*
%TO.N,SCL1*%
X97000000Y-69500000D02*
X79080761Y-69500000D01*
X78175001Y-68594240D02*
X78175001Y-65725000D01*
X79080761Y-69500000D02*
X78175001Y-68594240D01*
%TO.N,SDA5*%
X76225001Y-60000000D02*
X76225001Y-58725001D01*
X76225001Y-58725001D02*
X76000000Y-58500000D01*
%TO.N,SCL2*%
X83541619Y-62740178D02*
X79529990Y-62740178D01*
X78861571Y-63000929D02*
X76875000Y-64987500D01*
X76875000Y-64987500D02*
X76875000Y-65724999D01*
X79529990Y-62740178D02*
X79269239Y-63000929D01*
X79269239Y-63000929D02*
X78861571Y-63000929D01*
%TO.N,SDA12*%
X65231610Y-65912500D02*
X64881609Y-66262501D01*
X65820778Y-65912500D02*
X65231610Y-65912500D01*
X64881609Y-66262501D02*
X64881609Y-67000000D01*
X66500000Y-68000000D02*
X66500000Y-66591722D01*
X66500000Y-66591722D02*
X65820778Y-65912500D01*
%TO.N,SCL9*%
X62500000Y-58000000D02*
X61631611Y-58868389D01*
X61631611Y-58868389D02*
X61631611Y-61275002D01*
%TO.N,SDA9*%
X63500000Y-58000000D02*
X62281611Y-59218389D01*
X62281611Y-59218389D02*
X62281611Y-61275000D01*
%TO.N,SDA0*%
X80500000Y-68150000D02*
X80125000Y-67775000D01*
X80125000Y-67775000D02*
X80125000Y-65724999D01*
%TO.N,SCL0*%
X79000000Y-68500000D02*
X79475000Y-68025000D01*
X79475000Y-68025000D02*
X79475000Y-65724999D01*
%TO.N,SCL3*%
X92150000Y-63700000D02*
X92150000Y-61230761D01*
X91769239Y-60850000D02*
X91230761Y-60850000D01*
X92000000Y-63850000D02*
X92150000Y-63700000D01*
X91230761Y-60850000D02*
X90580761Y-61500000D01*
X92150000Y-61230761D02*
X91769239Y-60850000D01*
X90580761Y-61500000D02*
X83000000Y-61500000D01*
X75575001Y-64924999D02*
X75575001Y-65725000D01*
X76000000Y-64500000D02*
X75575001Y-64924999D01*
%TO.N,Net-(U1-~{RESET})*%
X80774999Y-64987501D02*
X80774999Y-65725000D01*
X82262500Y-63500000D02*
X80774999Y-64987501D01*
X87675000Y-63500000D02*
X82262500Y-63500000D01*
%TO.N,Net-(U2-~{RESET})*%
X70087500Y-62000000D02*
X66890386Y-62000000D01*
X65024506Y-62862501D02*
X64662005Y-62500000D01*
X66890386Y-62000000D02*
X66027885Y-62862501D01*
X66027885Y-62862501D02*
X65024506Y-62862501D01*
X71587500Y-63500000D02*
X70087500Y-62000000D01*
X64662005Y-62500000D02*
X60169112Y-62500000D01*
X60169112Y-62500000D02*
X59681612Y-62012500D01*
X59681612Y-62012500D02*
X59681612Y-61275001D01*
%TD*%
%TA.AperFunction,Conductor*%
%TO.N,GND*%
G36*
X79016619Y-54272436D02*
G01*
X80215785Y-54551455D01*
X80218043Y-54552004D01*
X81716447Y-54932288D01*
X81977924Y-54998649D01*
X81980314Y-54999281D01*
X82529957Y-55150500D01*
X83709481Y-55475013D01*
X83730883Y-55480901D01*
X83733260Y-55481581D01*
X85473815Y-55997981D01*
X85476177Y-55998707D01*
X87206226Y-56549743D01*
X87208464Y-56550480D01*
X88927158Y-57135885D01*
X88929422Y-57136681D01*
X90636172Y-57756253D01*
X90638362Y-57757073D01*
X92332366Y-58410523D01*
X92334572Y-58411399D01*
X94015298Y-59098521D01*
X94017449Y-59099426D01*
X95684049Y-59819873D01*
X95686236Y-59820844D01*
X97241102Y-60530105D01*
X97338119Y-60574360D01*
X97340352Y-60575405D01*
X97372117Y-60590667D01*
X98976895Y-61361703D01*
X98979112Y-61362796D01*
X99240237Y-61494727D01*
X100599634Y-62181549D01*
X100601782Y-62182662D01*
X102205675Y-63033563D01*
X102207783Y-63034708D01*
X103794393Y-63917410D01*
X103796531Y-63918627D01*
X105360493Y-64830020D01*
X105371641Y-64837348D01*
X105452815Y-64897203D01*
X105474193Y-64912966D01*
X105492173Y-64929156D01*
X105574400Y-65019209D01*
X105588893Y-65038582D01*
X105652066Y-65142885D01*
X105662521Y-65164703D01*
X105675190Y-65199500D01*
X105697944Y-65262000D01*
X105704238Y-65279286D01*
X105710258Y-65302720D01*
X105728931Y-65423229D01*
X105730285Y-65447386D01*
X105725201Y-65569220D01*
X105721839Y-65593179D01*
X105691764Y-65717623D01*
X105688346Y-65729248D01*
X104199253Y-70008349D01*
X102739988Y-74201736D01*
X102739987Y-74201739D01*
X102720198Y-74258606D01*
X102715984Y-74269135D01*
X102651668Y-74410725D01*
X102640453Y-74430410D01*
X102554714Y-74553257D01*
X102540104Y-74570574D01*
X102433447Y-74675767D01*
X102415931Y-74690136D01*
X102291911Y-74774170D01*
X102272071Y-74785113D01*
X102134832Y-74845177D01*
X102113334Y-74852326D01*
X101967452Y-74886419D01*
X101945011Y-74889538D01*
X101795372Y-74896518D01*
X101772738Y-74895502D01*
X101618672Y-74874363D01*
X101607525Y-74872311D01*
X101600115Y-74870593D01*
X101592149Y-74868746D01*
X101542016Y-74857121D01*
X101541963Y-74857110D01*
X100701084Y-74662148D01*
X98869510Y-74273448D01*
X97031044Y-73919118D01*
X95186234Y-73599262D01*
X93335820Y-73314009D01*
X91480277Y-73063433D01*
X90051608Y-72897674D01*
X89987284Y-72870394D01*
X89947920Y-72812669D01*
X89946013Y-72742825D01*
X89982169Y-72683038D01*
X90044909Y-72652289D01*
X90065899Y-72650500D01*
X96564071Y-72650500D01*
X96669499Y-72629528D01*
X96689744Y-72625501D01*
X96808127Y-72576465D01*
X96826679Y-72564069D01*
X96914669Y-72505277D01*
X98911959Y-70507986D01*
X98973280Y-70474503D01*
X99042972Y-70479487D01*
X99068528Y-70492566D01*
X99168544Y-70559395D01*
X99272954Y-70602643D01*
X99327355Y-70646481D01*
X99349421Y-70712774D01*
X99349500Y-70717202D01*
X99349500Y-70995064D01*
X99329815Y-71062103D01*
X99328603Y-71063954D01*
X99290608Y-71120817D01*
X99290602Y-71120828D01*
X99230264Y-71266498D01*
X99230261Y-71266510D01*
X99199500Y-71421153D01*
X99199500Y-71578846D01*
X99230261Y-71733489D01*
X99230264Y-71733501D01*
X99290602Y-71879172D01*
X99290609Y-71879185D01*
X99378210Y-72010288D01*
X99378213Y-72010292D01*
X99489707Y-72121786D01*
X99489711Y-72121789D01*
X99620814Y-72209390D01*
X99620827Y-72209397D01*
X99698088Y-72241399D01*
X99766503Y-72269737D01*
X99907715Y-72297826D01*
X99921153Y-72300499D01*
X99921156Y-72300500D01*
X99921158Y-72300500D01*
X100078844Y-72300500D01*
X100078845Y-72300499D01*
X100233497Y-72269737D01*
X100379179Y-72209394D01*
X100510289Y-72121789D01*
X100621789Y-72010289D01*
X100709394Y-71879179D01*
X100769737Y-71733497D01*
X100800500Y-71578842D01*
X100800500Y-71421158D01*
X100800500Y-71421155D01*
X100800499Y-71421153D01*
X100769737Y-71266503D01*
X100742232Y-71200099D01*
X100709397Y-71120828D01*
X100709396Y-71120827D01*
X100709394Y-71120821D01*
X100671396Y-71063953D01*
X100650520Y-70997276D01*
X100650500Y-70995064D01*
X100650500Y-70238206D01*
X100625502Y-70112539D01*
X100625501Y-70112538D01*
X100625501Y-70112534D01*
X100576465Y-69994151D01*
X100522488Y-69913368D01*
X100505276Y-69887608D01*
X100364735Y-69747067D01*
X100331252Y-69685747D01*
X100330829Y-69683716D01*
X100317460Y-69616504D01*
X100289268Y-69548443D01*
X100257120Y-69470828D01*
X100257113Y-69470815D01*
X100169512Y-69339712D01*
X100169509Y-69339708D01*
X100058015Y-69228214D01*
X100058011Y-69228211D01*
X99926908Y-69140610D01*
X99926895Y-69140603D01*
X99781222Y-69080264D01*
X99781215Y-69080262D01*
X99750307Y-69074114D01*
X99688396Y-69041728D01*
X99653823Y-68981011D01*
X99650500Y-68952497D01*
X99650500Y-65004935D01*
X99670185Y-64937896D01*
X99671366Y-64936090D01*
X99709394Y-64879179D01*
X99769737Y-64733497D01*
X99800500Y-64578842D01*
X99800500Y-64421158D01*
X99800500Y-64421155D01*
X99800499Y-64421153D01*
X99786658Y-64351570D01*
X99769737Y-64266503D01*
X99756062Y-64233489D01*
X99709397Y-64120827D01*
X99709390Y-64120814D01*
X99621789Y-63989711D01*
X99621786Y-63989707D01*
X99510292Y-63878213D01*
X99510288Y-63878210D01*
X99379185Y-63790609D01*
X99379172Y-63790602D01*
X99233501Y-63730264D01*
X99233489Y-63730261D01*
X99078845Y-63699500D01*
X99078842Y-63699500D01*
X98921158Y-63699500D01*
X98921155Y-63699500D01*
X98766510Y-63730261D01*
X98766498Y-63730264D01*
X98620827Y-63790602D01*
X98620814Y-63790609D01*
X98489711Y-63878210D01*
X98489707Y-63878213D01*
X98378213Y-63989707D01*
X98378210Y-63989711D01*
X98290609Y-64120814D01*
X98290602Y-64120827D01*
X98230264Y-64266498D01*
X98230261Y-64266510D01*
X98199500Y-64421153D01*
X98199500Y-64578846D01*
X98230261Y-64733489D01*
X98230264Y-64733501D01*
X98290602Y-64879172D01*
X98290606Y-64879179D01*
X98328602Y-64936044D01*
X98349480Y-65002721D01*
X98349500Y-65004935D01*
X98349500Y-68602242D01*
X98343565Y-68622453D01*
X98342438Y-68643492D01*
X98333918Y-68655307D01*
X98329815Y-68669281D01*
X98313896Y-68683074D01*
X98301573Y-68700165D01*
X98288017Y-68705498D01*
X98277011Y-68715036D01*
X98256159Y-68718034D01*
X98236555Y-68725748D01*
X98211752Y-68724419D01*
X98207853Y-68724980D01*
X98201312Y-68723860D01*
X98166423Y-68716921D01*
X98104511Y-68684537D01*
X98102930Y-68682984D01*
X95186819Y-65766873D01*
X95153334Y-65705550D01*
X95150500Y-65679192D01*
X95150500Y-63854935D01*
X95170185Y-63787896D01*
X95171366Y-63786090D01*
X95209394Y-63729179D01*
X95269737Y-63583497D01*
X95300500Y-63428842D01*
X95300500Y-63271158D01*
X95300500Y-63271155D01*
X95300499Y-63271153D01*
X95271527Y-63125502D01*
X95269737Y-63116503D01*
X95253153Y-63076465D01*
X95209397Y-62970827D01*
X95209390Y-62970814D01*
X95121789Y-62839711D01*
X95121786Y-62839707D01*
X95010292Y-62728213D01*
X95010288Y-62728210D01*
X94879185Y-62640609D01*
X94879172Y-62640602D01*
X94733501Y-62580264D01*
X94733489Y-62580261D01*
X94578845Y-62549500D01*
X94578842Y-62549500D01*
X94421158Y-62549500D01*
X94421155Y-62549500D01*
X94266510Y-62580261D01*
X94266498Y-62580264D01*
X94120827Y-62640602D01*
X94120814Y-62640609D01*
X93989711Y-62728210D01*
X93989707Y-62728213D01*
X93878213Y-62839707D01*
X93878210Y-62839711D01*
X93790609Y-62970814D01*
X93790602Y-62970827D01*
X93730264Y-63116498D01*
X93730261Y-63116510D01*
X93699500Y-63271153D01*
X93699500Y-63428846D01*
X93730261Y-63583489D01*
X93730264Y-63583501D01*
X93790602Y-63729172D01*
X93790606Y-63729179D01*
X93828602Y-63786044D01*
X93849480Y-63852721D01*
X93849500Y-63854935D01*
X93849500Y-66064070D01*
X93853363Y-66083489D01*
X93866693Y-66150500D01*
X93874499Y-66189744D01*
X93923535Y-66308127D01*
X93986165Y-66401861D01*
X93994726Y-66414673D01*
X93994727Y-66414674D01*
X95292873Y-67712819D01*
X95326358Y-67774142D01*
X95321374Y-67843834D01*
X95279502Y-67899767D01*
X95214038Y-67924184D01*
X95205192Y-67924500D01*
X89074000Y-67924500D01*
X89006961Y-67904815D01*
X88961206Y-67852011D01*
X88950000Y-67800500D01*
X88950000Y-67750000D01*
X88074000Y-67750000D01*
X88006961Y-67730315D01*
X87961206Y-67677511D01*
X87950000Y-67626000D01*
X87950000Y-67374000D01*
X87969685Y-67306961D01*
X88022489Y-67261206D01*
X88074000Y-67250000D01*
X88949999Y-67250000D01*
X88949999Y-66975028D01*
X88949998Y-66975013D01*
X88939505Y-66872302D01*
X88884358Y-66705880D01*
X88884356Y-66705875D01*
X88792315Y-66556654D01*
X88683397Y-66447736D01*
X88649912Y-66386413D01*
X88654896Y-66316721D01*
X88667975Y-66291166D01*
X88709394Y-66229179D01*
X88769737Y-66083497D01*
X88800500Y-65928842D01*
X88800500Y-65771158D01*
X88800500Y-65771155D01*
X88800499Y-65771153D01*
X88794763Y-65742316D01*
X88769737Y-65616503D01*
X88760076Y-65593179D01*
X88709397Y-65470827D01*
X88709390Y-65470814D01*
X88621789Y-65339711D01*
X88621786Y-65339707D01*
X88510292Y-65228213D01*
X88510288Y-65228210D01*
X88379185Y-65140609D01*
X88379172Y-65140602D01*
X88233501Y-65080264D01*
X88233489Y-65080261D01*
X88078845Y-65049500D01*
X88078842Y-65049500D01*
X87921158Y-65049500D01*
X87921155Y-65049500D01*
X87766510Y-65080261D01*
X87766498Y-65080264D01*
X87620827Y-65140602D01*
X87620820Y-65140606D01*
X87606585Y-65150118D01*
X87563955Y-65178602D01*
X87497279Y-65199480D01*
X87495065Y-65199500D01*
X85085929Y-65199500D01*
X84960260Y-65224497D01*
X84960254Y-65224499D01*
X84939428Y-65233126D01*
X84841877Y-65273532D01*
X84841863Y-65273540D01*
X84735332Y-65344721D01*
X84735325Y-65344727D01*
X83980381Y-66099671D01*
X83919058Y-66133156D01*
X83849366Y-66128172D01*
X83845248Y-66126551D01*
X83733501Y-66080264D01*
X83733489Y-66080261D01*
X83578845Y-66049500D01*
X83578842Y-66049500D01*
X83421158Y-66049500D01*
X83421155Y-66049500D01*
X83266510Y-66080261D01*
X83266498Y-66080264D01*
X83120827Y-66140602D01*
X83120814Y-66140609D01*
X82989711Y-66228210D01*
X82989707Y-66228213D01*
X82986681Y-66231240D01*
X82925358Y-66264725D01*
X82855666Y-66259741D01*
X82799733Y-66217869D01*
X82775316Y-66152405D01*
X82775000Y-66143559D01*
X82775000Y-65925000D01*
X82275000Y-65925000D01*
X82275000Y-66954510D01*
X82275001Y-66954511D01*
X82331627Y-66947057D01*
X82331633Y-66947055D01*
X82477587Y-66886600D01*
X82477590Y-66886598D01*
X82504621Y-66865856D01*
X82569789Y-66840660D01*
X82638234Y-66854697D01*
X82688225Y-66903510D01*
X82701726Y-66940038D01*
X82730261Y-67083491D01*
X82730264Y-67083501D01*
X82790602Y-67229172D01*
X82790609Y-67229185D01*
X82878210Y-67360288D01*
X82878213Y-67360292D01*
X82989707Y-67471786D01*
X82989711Y-67471789D01*
X83120814Y-67559390D01*
X83120827Y-67559397D01*
X83246986Y-67611653D01*
X83266503Y-67619737D01*
X83421153Y-67650499D01*
X83421156Y-67650500D01*
X83421158Y-67650500D01*
X83578844Y-67650500D01*
X83578845Y-67650499D01*
X83733497Y-67619737D01*
X83879179Y-67559394D01*
X83936044Y-67521397D01*
X84002721Y-67500520D01*
X84004935Y-67500500D01*
X84214071Y-67500500D01*
X84298615Y-67483682D01*
X84339744Y-67475501D01*
X84458127Y-67426465D01*
X84460307Y-67425008D01*
X84462516Y-67423533D01*
X84530616Y-67378029D01*
X84564669Y-67355277D01*
X84837821Y-67082124D01*
X84899141Y-67048641D01*
X84968833Y-67053625D01*
X85024767Y-67095496D01*
X85049184Y-67160960D01*
X85049500Y-67169807D01*
X85049500Y-68025001D01*
X85049501Y-68025019D01*
X85060000Y-68127796D01*
X85060001Y-68127799D01*
X85096519Y-68238001D01*
X85115186Y-68294334D01*
X85207288Y-68443656D01*
X85331344Y-68567712D01*
X85416054Y-68619961D01*
X85462778Y-68671909D01*
X85474001Y-68740872D01*
X85446157Y-68804954D01*
X85388089Y-68843810D01*
X85350957Y-68849500D01*
X81227350Y-68849500D01*
X81160311Y-68829815D01*
X81114556Y-68777011D01*
X81104612Y-68707853D01*
X81124248Y-68656609D01*
X81209390Y-68529185D01*
X81209390Y-68529184D01*
X81209394Y-68529179D01*
X81269737Y-68383497D01*
X81300500Y-68228842D01*
X81300500Y-68071158D01*
X81300500Y-68071155D01*
X81300499Y-68071153D01*
X81285296Y-67994723D01*
X81269737Y-67916503D01*
X81262805Y-67899767D01*
X81209397Y-67770827D01*
X81209390Y-67770814D01*
X81121789Y-67639711D01*
X81121786Y-67639707D01*
X81010292Y-67528213D01*
X81010288Y-67528210D01*
X80879185Y-67440609D01*
X80879180Y-67440607D01*
X80879179Y-67440606D01*
X80861124Y-67433127D01*
X80852046Y-67429367D01*
X80836480Y-67416823D01*
X80818297Y-67408519D01*
X80809832Y-67395348D01*
X80797643Y-67385525D01*
X80791330Y-67366557D01*
X80780523Y-67349741D01*
X80776560Y-67322178D01*
X80775579Y-67319231D01*
X80775500Y-67314806D01*
X80775500Y-67086999D01*
X80795185Y-67019960D01*
X80847989Y-66974205D01*
X80899500Y-66962999D01*
X80914362Y-66962999D01*
X80938829Y-66959777D01*
X81031762Y-66947544D01*
X81053200Y-66938663D01*
X81122668Y-66931194D01*
X81148106Y-66938663D01*
X81168365Y-66947054D01*
X81168377Y-66947058D01*
X81224998Y-66954511D01*
X81225000Y-66954510D01*
X81225000Y-66911999D01*
X81244685Y-66844960D01*
X81255338Y-66830738D01*
X81263558Y-66821262D01*
X81303282Y-66790782D01*
X81399536Y-66665341D01*
X81400175Y-66663796D01*
X81407338Y-66655541D01*
X81433729Y-66638603D01*
X81459052Y-66620113D01*
X81462896Y-66619883D01*
X81466139Y-66617803D01*
X81497496Y-66617822D01*
X81528798Y-66615958D01*
X81532157Y-66617844D01*
X81536009Y-66617847D01*
X81562371Y-66634812D01*
X81589718Y-66650170D01*
X81591524Y-66653573D01*
X81594763Y-66655658D01*
X81607771Y-66684187D01*
X81622471Y-66711887D01*
X81623063Y-66717728D01*
X81623749Y-66719231D01*
X81623436Y-66721396D01*
X81625000Y-66736802D01*
X81625000Y-66954510D01*
X81625001Y-66954511D01*
X81681622Y-66947058D01*
X81681631Y-66947055D01*
X81702547Y-66938392D01*
X81772017Y-66930923D01*
X81797453Y-66938392D01*
X81818368Y-66947055D01*
X81818377Y-66947058D01*
X81874998Y-66954511D01*
X81875000Y-66954510D01*
X81875000Y-65849000D01*
X81894685Y-65781961D01*
X81947489Y-65736206D01*
X81999000Y-65725000D01*
X82075000Y-65725000D01*
X82075000Y-65649000D01*
X82094685Y-65581961D01*
X82147489Y-65536206D01*
X82199000Y-65525000D01*
X82774999Y-65525000D01*
X82774999Y-65048175D01*
X82759557Y-64930871D01*
X82759555Y-64930866D01*
X82699100Y-64784914D01*
X82602924Y-64659575D01*
X82477586Y-64563399D01*
X82395512Y-64529404D01*
X82369962Y-64508815D01*
X82343697Y-64489153D01*
X82342895Y-64487004D01*
X82341108Y-64485564D01*
X82330742Y-64454420D01*
X82319280Y-64423689D01*
X82319767Y-64421447D01*
X82319043Y-64419270D01*
X82327157Y-64387476D01*
X82334132Y-64355416D01*
X82335965Y-64352966D01*
X82336322Y-64351570D01*
X82355276Y-64327169D01*
X82495629Y-64186816D01*
X82556950Y-64153334D01*
X82583308Y-64150500D01*
X86598767Y-64150500D01*
X86665806Y-64170185D01*
X86711561Y-64222989D01*
X86716472Y-64235494D01*
X86727684Y-64269328D01*
X86727687Y-64269336D01*
X86743104Y-64294331D01*
X86819788Y-64418656D01*
X86943844Y-64542712D01*
X87093166Y-64634814D01*
X87259703Y-64689999D01*
X87362491Y-64700500D01*
X87987508Y-64700499D01*
X87987516Y-64700498D01*
X87987519Y-64700498D01*
X88043802Y-64694748D01*
X88090297Y-64689999D01*
X88256834Y-64634814D01*
X88406156Y-64542712D01*
X88499819Y-64449049D01*
X88561142Y-64415564D01*
X88630834Y-64420548D01*
X88675181Y-64449049D01*
X88768844Y-64542712D01*
X88918166Y-64634814D01*
X89084703Y-64689999D01*
X89187491Y-64700500D01*
X89812508Y-64700499D01*
X89812516Y-64700498D01*
X89812519Y-64700498D01*
X89868802Y-64694748D01*
X89915297Y-64689999D01*
X90081834Y-64634814D01*
X90231156Y-64542712D01*
X90355212Y-64418656D01*
X90391759Y-64359402D01*
X90443707Y-64312679D01*
X90497298Y-64300500D01*
X90578844Y-64300500D01*
X90578845Y-64300499D01*
X90733497Y-64269737D01*
X90879179Y-64209394D01*
X91010289Y-64121789D01*
X91045824Y-64086254D01*
X91107146Y-64052768D01*
X91176838Y-64057752D01*
X91232772Y-64099622D01*
X91248067Y-64126481D01*
X91290604Y-64229176D01*
X91290609Y-64229185D01*
X91378210Y-64360288D01*
X91378213Y-64360292D01*
X91489707Y-64471786D01*
X91489711Y-64471789D01*
X91620814Y-64559390D01*
X91620827Y-64559397D01*
X91766498Y-64619735D01*
X91766503Y-64619737D01*
X91921153Y-64650499D01*
X91921156Y-64650500D01*
X91921158Y-64650500D01*
X92078844Y-64650500D01*
X92078845Y-64650499D01*
X92233497Y-64619737D01*
X92379179Y-64559394D01*
X92510289Y-64471789D01*
X92621789Y-64360289D01*
X92709394Y-64229179D01*
X92713897Y-64218309D01*
X92741984Y-64150500D01*
X92769737Y-64083497D01*
X92800500Y-63928842D01*
X92800500Y-63771158D01*
X92800500Y-61166689D01*
X92775502Y-61041022D01*
X92775501Y-61041021D01*
X92775501Y-61041017D01*
X92726465Y-60922634D01*
X92696783Y-60878211D01*
X92696783Y-60878210D01*
X92655279Y-60816095D01*
X92655273Y-60816087D01*
X92183912Y-60344726D01*
X92107159Y-60293442D01*
X92077366Y-60273535D01*
X92063735Y-60267889D01*
X91958983Y-60224499D01*
X91958977Y-60224497D01*
X91833310Y-60199500D01*
X91833308Y-60199500D01*
X91166692Y-60199500D01*
X91161638Y-60199500D01*
X91094599Y-60179815D01*
X91048844Y-60127011D01*
X91038900Y-60057853D01*
X91049942Y-60023025D01*
X91049690Y-60022921D01*
X91050907Y-60019979D01*
X91051154Y-60019204D01*
X91051555Y-60018416D01*
X91051556Y-60018414D01*
X91051557Y-60018412D01*
X91117246Y-59816243D01*
X91150500Y-59606287D01*
X91150500Y-59393713D01*
X91117246Y-59183757D01*
X91051557Y-58981588D01*
X90955051Y-58792184D01*
X90955049Y-58792181D01*
X90955048Y-58792179D01*
X90830109Y-58620213D01*
X90679786Y-58469890D01*
X90507820Y-58344951D01*
X90318414Y-58248444D01*
X90318413Y-58248443D01*
X90318412Y-58248443D01*
X90116243Y-58182754D01*
X90116241Y-58182753D01*
X90116240Y-58182753D01*
X89954957Y-58157208D01*
X89906287Y-58149500D01*
X89693713Y-58149500D01*
X89645042Y-58157208D01*
X89483760Y-58182753D01*
X89483757Y-58182754D01*
X89327612Y-58233489D01*
X89281585Y-58248444D01*
X89092179Y-58344951D01*
X88920213Y-58469890D01*
X88769890Y-58620213D01*
X88644951Y-58792179D01*
X88548444Y-58981585D01*
X88482753Y-59183760D01*
X88455781Y-59354057D01*
X88449500Y-59393713D01*
X88449500Y-59606287D01*
X88482754Y-59816243D01*
X88547738Y-60016243D01*
X88548444Y-60018414D01*
X88644951Y-60207820D01*
X88769890Y-60379786D01*
X88920209Y-60530105D01*
X88920214Y-60530109D01*
X89051071Y-60625182D01*
X89093737Y-60680512D01*
X89099716Y-60750125D01*
X89067111Y-60811920D01*
X89006272Y-60846277D01*
X88978186Y-60849500D01*
X83703870Y-60849500D01*
X83636831Y-60829815D01*
X83591076Y-60777011D01*
X83581132Y-60707853D01*
X83589307Y-60678052D01*
X83611075Y-60625500D01*
X83625501Y-60590673D01*
X83650500Y-60464998D01*
X83650500Y-59504935D01*
X83670185Y-59437896D01*
X83671366Y-59436090D01*
X83709394Y-59379179D01*
X83769737Y-59233497D01*
X83800500Y-59078842D01*
X83800500Y-58921158D01*
X83800500Y-58921155D01*
X83800499Y-58921153D01*
X83792629Y-58881588D01*
X83769737Y-58766503D01*
X83746080Y-58709390D01*
X83709397Y-58620827D01*
X83709390Y-58620814D01*
X83621789Y-58489711D01*
X83621786Y-58489707D01*
X83510292Y-58378213D01*
X83510288Y-58378210D01*
X83379185Y-58290609D01*
X83379172Y-58290602D01*
X83233501Y-58230264D01*
X83233489Y-58230261D01*
X83078845Y-58199500D01*
X83078842Y-58199500D01*
X82924500Y-58199500D01*
X82857461Y-58179815D01*
X82811706Y-58127011D01*
X82800500Y-58075500D01*
X82800500Y-57921155D01*
X82800499Y-57921153D01*
X82782462Y-57830477D01*
X82769737Y-57766503D01*
X82758915Y-57740377D01*
X82709397Y-57620827D01*
X82709390Y-57620814D01*
X82621789Y-57489711D01*
X82621786Y-57489707D01*
X82510292Y-57378213D01*
X82510288Y-57378210D01*
X82379185Y-57290609D01*
X82379172Y-57290602D01*
X82233501Y-57230264D01*
X82233489Y-57230261D01*
X82078845Y-57199500D01*
X82078842Y-57199500D01*
X81921158Y-57199500D01*
X81921155Y-57199500D01*
X81766510Y-57230261D01*
X81766498Y-57230264D01*
X81620827Y-57290602D01*
X81620814Y-57290609D01*
X81489711Y-57378210D01*
X81489707Y-57378213D01*
X81378213Y-57489707D01*
X81378210Y-57489711D01*
X81290609Y-57620814D01*
X81290602Y-57620827D01*
X81230264Y-57766498D01*
X81230261Y-57766507D01*
X81220491Y-57815626D01*
X81188105Y-57877536D01*
X81127389Y-57912110D01*
X81057620Y-57908369D01*
X81015303Y-57881704D01*
X81014999Y-57882076D01*
X81012040Y-57879647D01*
X81011193Y-57879114D01*
X81010292Y-57878213D01*
X81010288Y-57878210D01*
X80879185Y-57790609D01*
X80879172Y-57790602D01*
X80733501Y-57730264D01*
X80733489Y-57730261D01*
X80578845Y-57699500D01*
X80578842Y-57699500D01*
X80424500Y-57699500D01*
X80357461Y-57679815D01*
X80311706Y-57627011D01*
X80300500Y-57575500D01*
X80300500Y-56085928D01*
X80275502Y-55960261D01*
X80275501Y-55960260D01*
X80275501Y-55960256D01*
X80226465Y-55841873D01*
X80226463Y-55841870D01*
X80205339Y-55810255D01*
X80205338Y-55810255D01*
X80155276Y-55735330D01*
X80155274Y-55735328D01*
X80155272Y-55735325D01*
X80155271Y-55735324D01*
X78900838Y-54480892D01*
X78867353Y-54419569D01*
X78872337Y-54349877D01*
X78914209Y-54293944D01*
X78979673Y-54269527D01*
X79016619Y-54272436D01*
G37*
%TD.AperFunction*%
%TA.AperFunction,Conductor*%
G36*
X57662788Y-62113451D02*
G01*
X57713851Y-62161141D01*
X57731110Y-62224248D01*
X57731110Y-63435931D01*
X57731109Y-66097679D01*
X57721670Y-66145131D01*
X57696567Y-66205735D01*
X57696565Y-66205740D01*
X57681111Y-66323130D01*
X57681110Y-66323146D01*
X57681110Y-67676864D01*
X57696563Y-67794254D01*
X57696566Y-67794263D01*
X57749364Y-67921730D01*
X57757074Y-67940342D01*
X57853328Y-68065783D01*
X57978769Y-68162037D01*
X58124848Y-68222545D01*
X58242249Y-68238001D01*
X58503695Y-68238000D01*
X58570734Y-68257684D01*
X58591376Y-68274319D01*
X61472328Y-71155272D01*
X61472335Y-71155278D01*
X61578866Y-71226459D01*
X61578870Y-71226461D01*
X61578877Y-71226466D01*
X61638413Y-71251126D01*
X61697259Y-71275501D01*
X61697263Y-71275501D01*
X61697264Y-71275502D01*
X61822931Y-71300500D01*
X61822934Y-71300500D01*
X63333310Y-71300500D01*
X63417854Y-71283682D01*
X63458983Y-71275501D01*
X63472969Y-71269707D01*
X63542435Y-71262238D01*
X63604915Y-71293511D01*
X63640569Y-71353599D01*
X63638077Y-71423424D01*
X63608103Y-71471949D01*
X63397068Y-71682984D01*
X63335745Y-71716469D01*
X63333579Y-71716920D01*
X63266508Y-71730261D01*
X63266498Y-71730264D01*
X63120827Y-71790602D01*
X63120814Y-71790609D01*
X62989711Y-71878210D01*
X62989707Y-71878213D01*
X62878213Y-71989707D01*
X62878210Y-71989711D01*
X62790609Y-72120814D01*
X62790602Y-72120827D01*
X62730264Y-72266498D01*
X62730261Y-72266510D01*
X62699500Y-72421153D01*
X62699500Y-72578846D01*
X62730261Y-72733489D01*
X62730264Y-72733501D01*
X62790602Y-72879172D01*
X62790609Y-72879185D01*
X62878210Y-73010288D01*
X62878213Y-73010292D01*
X62989707Y-73121786D01*
X62989711Y-73121789D01*
X63120814Y-73209390D01*
X63120827Y-73209397D01*
X63266498Y-73269735D01*
X63266503Y-73269737D01*
X63329463Y-73282260D01*
X63391371Y-73314644D01*
X63425946Y-73375359D01*
X63422207Y-73445129D01*
X63381341Y-73501801D01*
X63325677Y-73526186D01*
X61643784Y-73806811D01*
X61643752Y-73806817D01*
X59803046Y-74149477D01*
X59537457Y-74204078D01*
X58956781Y-74323456D01*
X58956764Y-74323460D01*
X58950606Y-74324726D01*
X58950603Y-74324726D01*
X58903937Y-74334320D01*
X58891099Y-74336960D01*
X58880956Y-74338610D01*
X58722173Y-74357734D01*
X58701648Y-74358493D01*
X58547039Y-74351382D01*
X58526672Y-74348743D01*
X58375356Y-74316210D01*
X58355702Y-74310244D01*
X58211837Y-74253182D01*
X58193439Y-74244055D01*
X58060964Y-74164029D01*
X58044332Y-74151997D01*
X57926864Y-74051185D01*
X57912456Y-74036580D01*
X57813247Y-73917770D01*
X57801443Y-73900984D01*
X57720585Y-73762953D01*
X57715782Y-73753914D01*
X57689516Y-73699121D01*
X57689515Y-73699119D01*
X55151451Y-68404496D01*
X55137430Y-68375246D01*
X55132970Y-68364723D01*
X55095231Y-68262832D01*
X55089302Y-68240762D01*
X55088828Y-68238001D01*
X55071877Y-68139332D01*
X55070101Y-68116562D01*
X55071587Y-68013666D01*
X55074021Y-67990946D01*
X55084227Y-67940342D01*
X55094366Y-67890068D01*
X55100927Y-67868187D01*
X55141600Y-67767405D01*
X55146351Y-67757040D01*
X55416757Y-67232399D01*
X55930107Y-66156738D01*
X56410302Y-65065872D01*
X56856894Y-63960823D01*
X57269464Y-62842627D01*
X57489517Y-62184903D01*
X57529455Y-62127575D01*
X57594048Y-62100938D01*
X57662788Y-62113451D01*
G37*
%TD.AperFunction*%
%TA.AperFunction,Conductor*%
G36*
X67219334Y-69803126D02*
G01*
X67275267Y-69844998D01*
X67299684Y-69910462D01*
X67300000Y-69919308D01*
X67300000Y-70550000D01*
X68216988Y-70550000D01*
X68184075Y-70607007D01*
X68150000Y-70734174D01*
X68150000Y-70865826D01*
X68184075Y-70992993D01*
X68216988Y-71050000D01*
X67300000Y-71050000D01*
X67300000Y-71697844D01*
X67306401Y-71757372D01*
X67306403Y-71757379D01*
X67356645Y-71892086D01*
X67356649Y-71892093D01*
X67442809Y-72007187D01*
X67442812Y-72007190D01*
X67557906Y-72093350D01*
X67557913Y-72093354D01*
X67692620Y-72143596D01*
X67692627Y-72143598D01*
X67752155Y-72149999D01*
X67752172Y-72150000D01*
X68400000Y-72150000D01*
X68400000Y-71233012D01*
X68457007Y-71265925D01*
X68584174Y-71300000D01*
X68715826Y-71300000D01*
X68842993Y-71265925D01*
X68900000Y-71233012D01*
X68900000Y-72150000D01*
X69547828Y-72150000D01*
X69547844Y-72149999D01*
X69607372Y-72143598D01*
X69607379Y-72143596D01*
X69742086Y-72093354D01*
X69742093Y-72093350D01*
X69857187Y-72007190D01*
X69857190Y-72007187D01*
X69943350Y-71892093D01*
X69943354Y-71892086D01*
X69965529Y-71832632D01*
X70004319Y-71659390D01*
X70004682Y-71658734D01*
X70004642Y-71657984D01*
X70037642Y-71598802D01*
X70707037Y-70929408D01*
X70724075Y-70992993D01*
X70789901Y-71107007D01*
X70882993Y-71200099D01*
X70997007Y-71265925D01*
X71060590Y-71282962D01*
X70428282Y-71915269D01*
X70428282Y-71915270D01*
X70482449Y-71954624D01*
X70671782Y-72051095D01*
X70873870Y-72116757D01*
X71083754Y-72150000D01*
X71296246Y-72150000D01*
X71506127Y-72116757D01*
X71506130Y-72116757D01*
X71708217Y-72051095D01*
X71897554Y-71954622D01*
X71951716Y-71915270D01*
X71951717Y-71915270D01*
X71319408Y-71282962D01*
X71382993Y-71265925D01*
X71497007Y-71200099D01*
X71590099Y-71107007D01*
X71655925Y-70992993D01*
X71672962Y-70929408D01*
X72305270Y-71561717D01*
X72305270Y-71561716D01*
X72344622Y-71507555D01*
X72349232Y-71498507D01*
X72397205Y-71447709D01*
X72465025Y-71430912D01*
X72531161Y-71453447D01*
X72570204Y-71498504D01*
X72574949Y-71507817D01*
X72699890Y-71679786D01*
X72850213Y-71830109D01*
X73022179Y-71955048D01*
X73022181Y-71955049D01*
X73022184Y-71955051D01*
X73211588Y-72051557D01*
X73413757Y-72117246D01*
X73623713Y-72150500D01*
X73623714Y-72150500D01*
X73836286Y-72150500D01*
X73836287Y-72150500D01*
X74046243Y-72117246D01*
X74248412Y-72051557D01*
X74437816Y-71955051D01*
X74524471Y-71892093D01*
X74609786Y-71830109D01*
X74609788Y-71830106D01*
X74609792Y-71830104D01*
X74760104Y-71679792D01*
X74760106Y-71679788D01*
X74760109Y-71679786D01*
X74885048Y-71507820D01*
X74885050Y-71507817D01*
X74885051Y-71507816D01*
X74889514Y-71499054D01*
X74937488Y-71448259D01*
X75005308Y-71431463D01*
X75071444Y-71453999D01*
X75110486Y-71499056D01*
X75114951Y-71507820D01*
X75239890Y-71679786D01*
X75390213Y-71830109D01*
X75562179Y-71955048D01*
X75562181Y-71955049D01*
X75562184Y-71955051D01*
X75751588Y-72051557D01*
X75891886Y-72097142D01*
X75949561Y-72136579D01*
X75976759Y-72200938D01*
X75964844Y-72269784D01*
X75917600Y-72321260D01*
X75857816Y-72339000D01*
X74662917Y-72379967D01*
X73030956Y-72466531D01*
X72793205Y-72479142D01*
X72793202Y-72479142D01*
X72793187Y-72479143D01*
X70925691Y-72613302D01*
X69061030Y-72782400D01*
X67199802Y-72986384D01*
X65342825Y-73225162D01*
X63979099Y-73426536D01*
X63909903Y-73416856D01*
X63856925Y-73371302D01*
X63836986Y-73304338D01*
X63856415Y-73237224D01*
X63892092Y-73200765D01*
X64010289Y-73121789D01*
X64121789Y-73010289D01*
X64209394Y-72879179D01*
X64269737Y-72733497D01*
X64283079Y-72666416D01*
X64315463Y-72604509D01*
X64316959Y-72602985D01*
X67088319Y-69831627D01*
X67149642Y-69798142D01*
X67219334Y-69803126D01*
G37*
%TD.AperFunction*%
%TA.AperFunction,Conductor*%
G36*
X74189992Y-66554016D02*
G01*
X74208850Y-66554690D01*
X74222634Y-66564260D01*
X74238649Y-66569287D01*
X74250742Y-66583777D01*
X74266242Y-66594539D01*
X74282268Y-66621550D01*
X74283419Y-66622929D01*
X74284251Y-66624892D01*
X74300899Y-66665086D01*
X74397075Y-66790424D01*
X74522414Y-66886600D01*
X74668366Y-66947055D01*
X74668372Y-66947057D01*
X74724998Y-66954511D01*
X74725000Y-66954510D01*
X74725000Y-66736802D01*
X74732434Y-66711482D01*
X74736174Y-66685361D01*
X74742123Y-66678486D01*
X74744685Y-66669763D01*
X74764625Y-66652484D01*
X74781896Y-66632528D01*
X74790619Y-66629960D01*
X74797489Y-66624008D01*
X74823606Y-66620252D01*
X74848923Y-66612802D01*
X74857647Y-66615357D01*
X74866647Y-66614064D01*
X74890651Y-66625026D01*
X74915975Y-66632445D01*
X74924935Y-66640683D01*
X74930203Y-66643089D01*
X74942662Y-66655541D01*
X74949824Y-66663796D01*
X74950464Y-66665341D01*
X75046718Y-66790782D01*
X75086441Y-66821262D01*
X75094662Y-66830738D01*
X75104185Y-66851556D01*
X75117688Y-66870048D01*
X75120792Y-66887861D01*
X75123727Y-66894276D01*
X75122908Y-66899996D01*
X75125000Y-66911999D01*
X75125000Y-66954510D01*
X75181631Y-66947055D01*
X75201887Y-66938665D01*
X75269877Y-66930936D01*
X75283777Y-66933269D01*
X75318238Y-66947544D01*
X75435639Y-66963000D01*
X75460842Y-66962999D01*
X75471034Y-66964711D01*
X75493535Y-66975634D01*
X75517535Y-66982680D01*
X75524424Y-66990629D01*
X75533888Y-66995224D01*
X75546911Y-67016579D01*
X75563293Y-67035482D01*
X75565984Y-67047851D01*
X75570268Y-67054876D01*
X75569998Y-67066304D01*
X75574501Y-67086999D01*
X75574501Y-67289070D01*
X75574501Y-67289072D01*
X75574500Y-67289072D01*
X75596466Y-67399496D01*
X75599499Y-67414741D01*
X75599501Y-67414748D01*
X75648534Y-67533126D01*
X75666083Y-67559390D01*
X75706405Y-67619737D01*
X75719727Y-67639674D01*
X75719728Y-67639675D01*
X76813181Y-68733127D01*
X76846666Y-68794450D01*
X76849500Y-68820808D01*
X76849500Y-69397620D01*
X76829815Y-69464659D01*
X76777011Y-69510414D01*
X76707853Y-69520358D01*
X76687182Y-69515551D01*
X76586240Y-69482753D01*
X76424957Y-69457208D01*
X76376287Y-69449500D01*
X76163713Y-69449500D01*
X76115042Y-69457208D01*
X75953760Y-69482753D01*
X75751585Y-69548444D01*
X75562179Y-69644951D01*
X75390213Y-69769890D01*
X75239890Y-69920213D01*
X75114949Y-70092182D01*
X75110484Y-70100946D01*
X75062509Y-70151742D01*
X74994688Y-70168536D01*
X74928553Y-70145998D01*
X74889516Y-70100946D01*
X74885050Y-70092182D01*
X74760109Y-69920213D01*
X74609786Y-69769890D01*
X74437820Y-69644951D01*
X74248414Y-69548444D01*
X74248413Y-69548443D01*
X74248412Y-69548443D01*
X74046243Y-69482754D01*
X74046241Y-69482753D01*
X74046240Y-69482753D01*
X73884957Y-69457208D01*
X73836287Y-69449500D01*
X73623713Y-69449500D01*
X73575042Y-69457208D01*
X73413760Y-69482753D01*
X73211585Y-69548444D01*
X73022179Y-69644951D01*
X72850213Y-69769890D01*
X72699890Y-69920213D01*
X72574949Y-70092182D01*
X72570202Y-70101499D01*
X72522227Y-70152293D01*
X72454405Y-70169087D01*
X72388271Y-70146548D01*
X72349234Y-70101495D01*
X72344626Y-70092452D01*
X72305270Y-70038282D01*
X72305269Y-70038282D01*
X71672962Y-70670590D01*
X71655925Y-70607007D01*
X71590099Y-70492993D01*
X71497007Y-70399901D01*
X71382993Y-70334075D01*
X71319409Y-70317037D01*
X71951716Y-69684728D01*
X71897550Y-69645375D01*
X71708217Y-69548904D01*
X71506129Y-69483242D01*
X71296246Y-69450000D01*
X71083754Y-69450000D01*
X70873872Y-69483242D01*
X70873869Y-69483242D01*
X70671782Y-69548904D01*
X70482439Y-69645380D01*
X70428282Y-69684727D01*
X70428282Y-69684728D01*
X71060591Y-70317037D01*
X70997007Y-70334075D01*
X70882993Y-70399901D01*
X70789901Y-70492993D01*
X70724075Y-70607007D01*
X70707037Y-70670591D01*
X70037642Y-70001196D01*
X70004319Y-69940609D01*
X69965527Y-69767364D01*
X69943354Y-69707913D01*
X69943350Y-69707906D01*
X69857190Y-69592812D01*
X69857187Y-69592809D01*
X69742093Y-69506649D01*
X69742086Y-69506645D01*
X69607379Y-69456403D01*
X69607372Y-69456401D01*
X69547844Y-69450000D01*
X69421695Y-69450000D01*
X69354656Y-69430315D01*
X69308901Y-69377511D01*
X69298957Y-69308353D01*
X69327982Y-69244797D01*
X69356454Y-69220550D01*
X69364978Y-69215276D01*
X69379179Y-69209394D01*
X69437857Y-69170186D01*
X69439694Y-69169050D01*
X69471377Y-69160334D01*
X69502721Y-69150520D01*
X69504935Y-69150500D01*
X70476571Y-69150500D01*
X70561115Y-69133682D01*
X70602244Y-69125501D01*
X70720627Y-69076465D01*
X70728861Y-69070963D01*
X70827169Y-69005277D01*
X73095627Y-66736817D01*
X73156950Y-66703333D01*
X73183308Y-66700499D01*
X73725002Y-66700499D01*
X73725008Y-66700499D01*
X73827797Y-66689999D01*
X73994334Y-66634814D01*
X74104596Y-66566804D01*
X74122797Y-66561823D01*
X74139025Y-66552196D01*
X74155794Y-66552794D01*
X74171985Y-66548365D01*
X74189992Y-66554016D01*
G37*
%TD.AperFunction*%
%TA.AperFunction,Conductor*%
G36*
X68247568Y-68807009D02*
G01*
X68279267Y-68851805D01*
X68290604Y-68879175D01*
X68290609Y-68879185D01*
X68378210Y-69010288D01*
X68378213Y-69010292D01*
X68489707Y-69121786D01*
X68489711Y-69121789D01*
X68620814Y-69209390D01*
X68620827Y-69209397D01*
X68766498Y-69269735D01*
X68766503Y-69269737D01*
X68781175Y-69272655D01*
X68800676Y-69276535D01*
X68862587Y-69308920D01*
X68897161Y-69369636D01*
X68895607Y-69398638D01*
X68900000Y-69398638D01*
X68900000Y-70366988D01*
X68842993Y-70334075D01*
X68715826Y-70300000D01*
X68584174Y-70300000D01*
X68457007Y-70334075D01*
X68400000Y-70366988D01*
X68400000Y-69450000D01*
X67769309Y-69450000D01*
X67702270Y-69430315D01*
X67656515Y-69377511D01*
X67646571Y-69308353D01*
X67675596Y-69244797D01*
X67681628Y-69238319D01*
X68005271Y-68914675D01*
X68005271Y-68914674D01*
X68005276Y-68914670D01*
X68061605Y-68830365D01*
X68115215Y-68785563D01*
X68184540Y-68776855D01*
X68247568Y-68807009D01*
G37*
%TD.AperFunction*%
%TA.AperFunction,Conductor*%
G36*
X59228475Y-62515850D02*
G01*
X59259517Y-62520691D01*
X59263427Y-62523440D01*
X59266054Y-62524011D01*
X59270366Y-62528319D01*
X59294349Y-62545184D01*
X59754440Y-63005275D01*
X59837893Y-63061036D01*
X59837892Y-63061036D01*
X59860983Y-63076464D01*
X59860984Y-63076464D01*
X59860985Y-63076465D01*
X59979368Y-63125501D01*
X59979372Y-63125501D01*
X59979373Y-63125502D01*
X60105040Y-63150500D01*
X60105043Y-63150500D01*
X64341197Y-63150500D01*
X64408236Y-63170185D01*
X64428878Y-63186819D01*
X64609831Y-63367773D01*
X64609834Y-63367776D01*
X64609837Y-63367778D01*
X64681406Y-63415598D01*
X64716379Y-63438966D01*
X64834762Y-63488002D01*
X64834766Y-63488002D01*
X64834767Y-63488003D01*
X64960434Y-63513001D01*
X64960437Y-63513001D01*
X66091956Y-63513001D01*
X66210505Y-63489419D01*
X66217629Y-63488002D01*
X66336012Y-63438966D01*
X66356608Y-63425203D01*
X66423285Y-63404325D01*
X66490665Y-63422809D01*
X66537356Y-63474787D01*
X66549500Y-63528305D01*
X66549500Y-64025001D01*
X66549501Y-64025019D01*
X66560000Y-64127796D01*
X66560001Y-64127799D01*
X66615185Y-64294331D01*
X66615187Y-64294336D01*
X66618989Y-64300500D01*
X66707288Y-64443656D01*
X66707290Y-64443658D01*
X66711766Y-64449319D01*
X66710373Y-64450420D01*
X66739433Y-64503639D01*
X66734449Y-64573331D01*
X66723806Y-64595093D01*
X66640190Y-64730659D01*
X66640185Y-64730668D01*
X66628595Y-64765645D01*
X66585001Y-64897203D01*
X66585001Y-64897204D01*
X66585000Y-64897204D01*
X66574500Y-64999983D01*
X66574500Y-65446913D01*
X66554815Y-65513952D01*
X66502011Y-65559707D01*
X66432853Y-65569651D01*
X66369297Y-65540626D01*
X66362819Y-65534594D01*
X66235451Y-65407226D01*
X66162118Y-65358227D01*
X66128905Y-65336035D01*
X66128900Y-65336033D01*
X66010522Y-65286999D01*
X66010516Y-65286997D01*
X65884849Y-65262000D01*
X65884847Y-65262000D01*
X65167541Y-65262000D01*
X65167539Y-65262000D01*
X65041871Y-65286997D01*
X65041865Y-65286999D01*
X64923485Y-65336033D01*
X64923476Y-65336038D01*
X64816941Y-65407223D01*
X64816937Y-65407226D01*
X64494793Y-65729370D01*
X64433470Y-65762855D01*
X64390928Y-65764628D01*
X64370972Y-65762001D01*
X64092246Y-65762001D01*
X63974856Y-65777454D01*
X63974844Y-65777458D01*
X63954060Y-65786067D01*
X63884591Y-65793534D01*
X63859160Y-65786067D01*
X63838375Y-65777458D01*
X63838370Y-65777456D01*
X63720971Y-65762001D01*
X63442246Y-65762001D01*
X63324856Y-65777454D01*
X63324844Y-65777458D01*
X63304060Y-65786067D01*
X63234591Y-65793534D01*
X63209160Y-65786067D01*
X63188375Y-65777458D01*
X63188370Y-65777456D01*
X63070971Y-65762001D01*
X62792246Y-65762001D01*
X62674856Y-65777454D01*
X62674844Y-65777458D01*
X62654060Y-65786067D01*
X62584591Y-65793534D01*
X62559160Y-65786067D01*
X62538375Y-65777458D01*
X62538370Y-65777456D01*
X62420971Y-65762001D01*
X62142246Y-65762001D01*
X62024856Y-65777454D01*
X62024844Y-65777458D01*
X62004060Y-65786067D01*
X61934591Y-65793534D01*
X61909160Y-65786067D01*
X61888375Y-65777458D01*
X61888370Y-65777456D01*
X61770971Y-65762001D01*
X61492246Y-65762001D01*
X61374856Y-65777454D01*
X61374844Y-65777458D01*
X61354060Y-65786067D01*
X61284591Y-65793534D01*
X61259160Y-65786067D01*
X61238375Y-65777458D01*
X61238370Y-65777456D01*
X61120971Y-65762001D01*
X60842246Y-65762001D01*
X60724851Y-65777455D01*
X60724849Y-65777456D01*
X60703406Y-65786338D01*
X60633937Y-65793805D01*
X60608505Y-65786338D01*
X60588241Y-65777945D01*
X60531610Y-65770488D01*
X60531610Y-65813000D01*
X60522982Y-65842381D01*
X60516502Y-65872317D01*
X60512984Y-65876429D01*
X60511925Y-65880039D01*
X60495379Y-65900593D01*
X60489587Y-65906396D01*
X60453328Y-65934219D01*
X60425076Y-65971036D01*
X60419379Y-65976746D01*
X60395523Y-65989803D01*
X60373558Y-66005842D01*
X60365325Y-66006332D01*
X60358090Y-66010293D01*
X60330959Y-66008379D01*
X60303812Y-66009997D01*
X60296620Y-66005958D01*
X60288393Y-66005378D01*
X60266604Y-65989101D01*
X60242891Y-65975784D01*
X60233240Y-65964647D01*
X60209892Y-65934219D01*
X60209890Y-65934218D01*
X60209890Y-65934217D01*
X60180121Y-65911374D01*
X60138920Y-65854945D01*
X60131610Y-65813000D01*
X60131610Y-65770488D01*
X60074980Y-65777944D01*
X60054713Y-65786339D01*
X59985243Y-65793805D01*
X59959813Y-65786338D01*
X59938372Y-65777457D01*
X59938370Y-65777456D01*
X59820971Y-65762001D01*
X59542246Y-65762001D01*
X59424856Y-65777454D01*
X59424844Y-65777458D01*
X59404060Y-65786067D01*
X59336173Y-65793809D01*
X59322220Y-65791477D01*
X59288372Y-65777457D01*
X59170971Y-65762001D01*
X59145822Y-65762001D01*
X59135672Y-65760305D01*
X59113115Y-65749376D01*
X59089070Y-65742316D01*
X59082216Y-65734406D01*
X59072793Y-65729841D01*
X59059723Y-65708448D01*
X59043315Y-65689512D01*
X59040638Y-65677210D01*
X59036367Y-65670218D01*
X59036627Y-65658772D01*
X59032109Y-65638001D01*
X59032109Y-65358227D01*
X59051794Y-65291188D01*
X59104598Y-65245433D01*
X59173756Y-65235489D01*
X59203561Y-65243666D01*
X59247824Y-65262000D01*
X59266503Y-65269737D01*
X59371941Y-65290710D01*
X59421153Y-65300499D01*
X59421156Y-65300500D01*
X59421158Y-65300500D01*
X59578844Y-65300500D01*
X59578845Y-65300499D01*
X59733497Y-65269737D01*
X59879179Y-65209394D01*
X60010289Y-65121789D01*
X60121789Y-65010289D01*
X60209394Y-64879179D01*
X60269737Y-64733497D01*
X60300500Y-64578842D01*
X60300500Y-64421158D01*
X60300500Y-64421155D01*
X60300499Y-64421153D01*
X60286658Y-64351570D01*
X60269737Y-64266503D01*
X60256062Y-64233489D01*
X60209397Y-64120827D01*
X60209390Y-64120814D01*
X60121789Y-63989711D01*
X60121786Y-63989707D01*
X60010292Y-63878213D01*
X60010288Y-63878210D01*
X59879185Y-63790609D01*
X59879172Y-63790602D01*
X59733501Y-63730264D01*
X59733489Y-63730261D01*
X59666420Y-63716920D01*
X59604509Y-63684535D01*
X59602930Y-63682984D01*
X59068429Y-63148483D01*
X59034944Y-63087160D01*
X59032110Y-63060802D01*
X59032110Y-62636500D01*
X59033390Y-62632139D01*
X59032423Y-62627700D01*
X59043144Y-62598922D01*
X59051795Y-62569461D01*
X59055228Y-62566486D01*
X59056815Y-62562227D01*
X59081398Y-62543809D01*
X59104599Y-62523706D01*
X59110111Y-62522297D01*
X59112733Y-62520334D01*
X59130023Y-62517211D01*
X59147218Y-62512819D01*
X59197776Y-62509184D01*
X59228475Y-62515850D01*
G37*
%TD.AperFunction*%
%TA.AperFunction,Conductor*%
G36*
X59600443Y-59002777D02*
G01*
X59656376Y-59044649D01*
X59680793Y-59110113D01*
X59681109Y-59118959D01*
X59681109Y-59913001D01*
X59661424Y-59980040D01*
X59608620Y-60025795D01*
X59577642Y-60035289D01*
X59567440Y-60037001D01*
X59542250Y-60037002D01*
X59424848Y-60052457D01*
X59390390Y-60066729D01*
X59376488Y-60069064D01*
X59355226Y-60066516D01*
X59333937Y-60068805D01*
X59308505Y-60061338D01*
X59288244Y-60052946D01*
X59288240Y-60052945D01*
X59239924Y-60046584D01*
X59176028Y-60018317D01*
X59137557Y-59959993D01*
X59132110Y-59923645D01*
X59132110Y-59436009D01*
X59134493Y-59411818D01*
X59136908Y-59399677D01*
X59137265Y-59397946D01*
X59138170Y-59393713D01*
X59138985Y-59389898D01*
X59172249Y-59328457D01*
X59469429Y-59031277D01*
X59530751Y-58997793D01*
X59600443Y-59002777D01*
G37*
%TD.AperFunction*%
%TA.AperFunction,Conductor*%
G36*
X62239765Y-52038617D02*
G01*
X62242053Y-52038707D01*
X64055602Y-52127992D01*
X64057919Y-52128129D01*
X65869301Y-52253546D01*
X65871648Y-52253732D01*
X67680199Y-52415235D01*
X67682547Y-52415469D01*
X69487451Y-52612983D01*
X69489744Y-52613256D01*
X71290403Y-52846716D01*
X71292755Y-52847045D01*
X73088421Y-53116356D01*
X73090680Y-53116718D01*
X74880579Y-53421763D01*
X74882984Y-53422198D01*
X76384937Y-53709089D01*
X76447092Y-53741002D01*
X76482127Y-53801453D01*
X76478918Y-53871249D01*
X76449353Y-53918568D01*
X76378210Y-53989711D01*
X76290609Y-54120814D01*
X76290602Y-54120827D01*
X76230264Y-54266498D01*
X76230261Y-54266510D01*
X76199500Y-54421153D01*
X76199500Y-54578846D01*
X76230261Y-54733489D01*
X76230264Y-54733501D01*
X76290602Y-54879172D01*
X76290609Y-54879185D01*
X76378210Y-55010288D01*
X76378213Y-55010292D01*
X76489707Y-55121786D01*
X76489711Y-55121789D01*
X76620814Y-55209390D01*
X76620827Y-55209397D01*
X76766498Y-55269735D01*
X76766503Y-55269737D01*
X76921153Y-55300499D01*
X76921156Y-55300500D01*
X76921158Y-55300500D01*
X77078844Y-55300500D01*
X77078845Y-55300499D01*
X77233497Y-55269737D01*
X77379179Y-55209394D01*
X77436044Y-55171397D01*
X77454091Y-55165746D01*
X77470000Y-55155523D01*
X77500959Y-55151071D01*
X77502721Y-55150520D01*
X77504935Y-55150500D01*
X77679192Y-55150500D01*
X77746231Y-55170185D01*
X77766873Y-55186819D01*
X78963181Y-56383127D01*
X78996666Y-56444450D01*
X78999500Y-56470808D01*
X78999500Y-57582152D01*
X78979815Y-57649191D01*
X78927011Y-57694946D01*
X78899692Y-57703769D01*
X78766508Y-57730261D01*
X78766498Y-57730264D01*
X78620827Y-57790602D01*
X78620814Y-57790609D01*
X78568891Y-57825304D01*
X78502214Y-57846182D01*
X78434833Y-57827698D01*
X78431109Y-57825304D01*
X78379185Y-57790609D01*
X78379172Y-57790602D01*
X78233501Y-57730264D01*
X78233489Y-57730261D01*
X78078845Y-57699500D01*
X78078842Y-57699500D01*
X77921158Y-57699500D01*
X77921155Y-57699500D01*
X77766510Y-57730261D01*
X77766498Y-57730264D01*
X77620827Y-57790602D01*
X77620814Y-57790609D01*
X77568891Y-57825304D01*
X77502214Y-57846182D01*
X77434833Y-57827698D01*
X77431109Y-57825304D01*
X77379185Y-57790609D01*
X77379172Y-57790602D01*
X77233501Y-57730264D01*
X77233489Y-57730261D01*
X77078845Y-57699500D01*
X77078842Y-57699500D01*
X76921158Y-57699500D01*
X76921155Y-57699500D01*
X76766510Y-57730261D01*
X76766498Y-57730264D01*
X76620827Y-57790602D01*
X76620814Y-57790609D01*
X76568891Y-57825304D01*
X76502214Y-57846182D01*
X76434833Y-57827698D01*
X76431109Y-57825304D01*
X76379185Y-57790609D01*
X76379172Y-57790602D01*
X76233501Y-57730264D01*
X76233489Y-57730261D01*
X76078845Y-57699500D01*
X76078842Y-57699500D01*
X75921158Y-57699500D01*
X75921155Y-57699500D01*
X75766510Y-57730261D01*
X75766498Y-57730264D01*
X75620827Y-57790602D01*
X75620814Y-57790609D01*
X75489711Y-57878210D01*
X75381961Y-57985960D01*
X75320638Y-58019444D01*
X75250946Y-58014460D01*
X75232908Y-58006025D01*
X75220663Y-57999050D01*
X75216336Y-57994723D01*
X75109794Y-57923535D01*
X75030219Y-57890573D01*
X75023469Y-57886729D01*
X75019975Y-57883107D01*
X75015953Y-57880697D01*
X75015354Y-57881595D01*
X74879185Y-57790609D01*
X74879172Y-57790602D01*
X74733501Y-57730264D01*
X74733489Y-57730261D01*
X74578845Y-57699500D01*
X74578842Y-57699500D01*
X74421158Y-57699500D01*
X74421155Y-57699500D01*
X74266510Y-57730261D01*
X74266498Y-57730264D01*
X74120827Y-57790602D01*
X74120814Y-57790609D01*
X73989711Y-57878210D01*
X73989707Y-57878213D01*
X73878213Y-57989707D01*
X73878210Y-57989711D01*
X73790609Y-58120814D01*
X73790602Y-58120827D01*
X73730264Y-58266498D01*
X73730261Y-58266507D01*
X73720491Y-58315626D01*
X73688105Y-58377536D01*
X73627389Y-58412110D01*
X73557620Y-58408369D01*
X73515303Y-58381704D01*
X73514999Y-58382076D01*
X73512040Y-58379647D01*
X73511193Y-58379114D01*
X73510292Y-58378213D01*
X73510288Y-58378210D01*
X73379185Y-58290609D01*
X73379172Y-58290602D01*
X73233501Y-58230264D01*
X73233489Y-58230261D01*
X73078845Y-58199500D01*
X73078842Y-58199500D01*
X72921158Y-58199500D01*
X72921155Y-58199500D01*
X72766510Y-58230261D01*
X72766498Y-58230264D01*
X72620827Y-58290602D01*
X72620814Y-58290609D01*
X72489714Y-58378208D01*
X72481611Y-58386311D01*
X72420286Y-58419793D01*
X72350595Y-58414806D01*
X72306252Y-58386307D01*
X67817015Y-53897069D01*
X67783530Y-53835746D01*
X67783079Y-53833581D01*
X67769737Y-53766503D01*
X67745599Y-53708230D01*
X67709397Y-53620827D01*
X67709390Y-53620814D01*
X67621789Y-53489711D01*
X67621786Y-53489707D01*
X67510292Y-53378213D01*
X67510288Y-53378210D01*
X67379185Y-53290609D01*
X67379172Y-53290602D01*
X67233501Y-53230264D01*
X67233489Y-53230261D01*
X67078845Y-53199500D01*
X67078842Y-53199500D01*
X66921158Y-53199500D01*
X66921155Y-53199500D01*
X66766510Y-53230261D01*
X66766498Y-53230264D01*
X66620827Y-53290602D01*
X66620814Y-53290609D01*
X66489711Y-53378210D01*
X66489707Y-53378213D01*
X66378213Y-53489707D01*
X66378210Y-53489711D01*
X66290609Y-53620814D01*
X66290602Y-53620827D01*
X66230263Y-53766500D01*
X66230261Y-53766506D01*
X66216919Y-53833581D01*
X66184533Y-53895491D01*
X66182983Y-53897069D01*
X64991727Y-55088325D01*
X64930404Y-55121810D01*
X64860712Y-55116826D01*
X64804779Y-55074954D01*
X64798518Y-55065757D01*
X64792712Y-55056344D01*
X64668656Y-54932288D01*
X64519334Y-54840186D01*
X64352797Y-54785001D01*
X64352795Y-54785000D01*
X64250010Y-54774500D01*
X63649998Y-54774500D01*
X63649980Y-54774501D01*
X63547203Y-54785000D01*
X63547200Y-54785001D01*
X63380668Y-54840185D01*
X63380663Y-54840187D01*
X63231342Y-54932289D01*
X63107288Y-55056343D01*
X63107283Y-55056349D01*
X63105241Y-55059661D01*
X63103247Y-55061453D01*
X63102807Y-55062011D01*
X63102711Y-55061935D01*
X63053291Y-55106383D01*
X62984328Y-55117602D01*
X62920247Y-55089755D01*
X62894168Y-55059656D01*
X62892319Y-55056659D01*
X62892316Y-55056655D01*
X62768345Y-54932684D01*
X62619124Y-54840643D01*
X62619119Y-54840641D01*
X62452697Y-54785494D01*
X62452690Y-54785493D01*
X62349986Y-54775000D01*
X62300000Y-54775000D01*
X62300000Y-55876000D01*
X62280315Y-55943039D01*
X62227511Y-55988794D01*
X62176000Y-56000000D01*
X62050000Y-56000000D01*
X62050000Y-56126000D01*
X62030315Y-56193039D01*
X61977511Y-56238794D01*
X61926000Y-56250000D01*
X61050001Y-56250000D01*
X61050001Y-56300500D01*
X61030316Y-56367539D01*
X60977512Y-56413294D01*
X60926001Y-56424500D01*
X60441690Y-56424500D01*
X60316022Y-56449497D01*
X60316016Y-56449499D01*
X60197631Y-56498535D01*
X60091092Y-56569722D01*
X60091085Y-56569728D01*
X58907065Y-57753748D01*
X58845742Y-57787233D01*
X58776050Y-57782249D01*
X58720117Y-57740377D01*
X58695700Y-57674913D01*
X58697866Y-57641382D01*
X58809599Y-57091461D01*
X59011063Y-55916732D01*
X59072970Y-55475013D01*
X61050000Y-55475013D01*
X61050000Y-55750000D01*
X61800000Y-55750000D01*
X61800000Y-54775000D01*
X61799999Y-54774999D01*
X61750029Y-54775000D01*
X61750011Y-54775001D01*
X61647302Y-54785494D01*
X61480880Y-54840641D01*
X61480875Y-54840643D01*
X61331654Y-54932684D01*
X61207684Y-55056654D01*
X61115643Y-55205875D01*
X61115641Y-55205880D01*
X61060494Y-55372302D01*
X61060493Y-55372309D01*
X61050000Y-55475013D01*
X59072970Y-55475013D01*
X59176488Y-54736388D01*
X59305719Y-53551536D01*
X59351760Y-52962573D01*
X59352999Y-52952293D01*
X59379023Y-52793098D01*
X59384092Y-52772919D01*
X59434661Y-52625305D01*
X59443032Y-52606256D01*
X59517579Y-52469164D01*
X59529014Y-52451786D01*
X59625440Y-52329085D01*
X59639611Y-52313875D01*
X59755203Y-52209018D01*
X59771712Y-52196397D01*
X59903215Y-52112342D01*
X59921611Y-52102656D01*
X60065303Y-52041781D01*
X60085068Y-52035302D01*
X60236919Y-51999312D01*
X60257477Y-51996232D01*
X60417807Y-51985842D01*
X60429436Y-51985636D01*
X62239765Y-52038617D01*
G37*
%TD.AperFunction*%
%TD*%
M02*
