%TF.GenerationSoftware,KiCad,Pcbnew,10.0.2*%
%TF.CreationDate,2026-06-17T00:55:55+02:00*%
%TF.ProjectId,Zero_Palm_V1,5a65726f-5f50-4616-9c6d-5f56312e6b69,rev?*%
%TF.SameCoordinates,Original*%
%TF.FileFunction,Legend,Bot*%
%TF.FilePolarity,Positive*%
%FSLAX46Y46*%
G04 Gerber Fmt 4.6, Leading zero omitted, Abs format (unit mm)*
G04 Created by KiCad (PCBNEW 10.0.2) date 2026-06-17 00:55:55*
%MOMM*%
%LPD*%
G01*
G04 APERTURE LIST*
G04 Aperture macros list*
%AMRoundRect*
0 Rectangle with rounded corners*
0 $1 Rounding radius*
0 $2 $3 $4 $5 $6 $7 $8 $9 X,Y pos of 4 corners*
0 Add a 4 corners polygon primitive as box body*
4,1,4,$2,$3,$4,$5,$6,$7,$8,$9,$2,$3,0*
0 Add four circle primitives for the rounded corners*
1,1,$1+$1,$2,$3*
1,1,$1+$1,$4,$5*
1,1,$1+$1,$6,$7*
1,1,$1+$1,$8,$9*
0 Add four rect primitives between the rounded corners*
20,1,$1+$1,$2,$3,$4,$5,0*
20,1,$1+$1,$4,$5,$6,$7,0*
20,1,$1+$1,$6,$7,$8,$9,0*
20,1,$1+$1,$8,$9,$2,$3,0*%
G04 Aperture macros list end*
%ADD10C,0.120000*%
%ADD11RoundRect,0.250000X-0.250000X-0.475000X0.250000X-0.475000X0.250000X0.475000X-0.250000X0.475000X0*%
%ADD12RoundRect,0.100000X-0.100000X0.637500X-0.100000X-0.637500X0.100000X-0.637500X0.100000X0.637500X0*%
%ADD13RoundRect,0.100000X0.100000X-0.637500X0.100000X0.637500X-0.100000X0.637500X-0.100000X-0.637500X0*%
%ADD14R,1.700000X1.700000*%
%ADD15C,1.700000*%
%ADD16C,2.200000*%
%ADD17RoundRect,0.250000X-0.262500X-0.450000X0.262500X-0.450000X0.262500X0.450000X-0.262500X0.450000X0*%
%ADD18RoundRect,0.250000X0.250000X0.475000X-0.250000X0.475000X-0.250000X-0.475000X0.250000X-0.475000X0*%
%ADD19RoundRect,0.250000X0.262500X0.450000X-0.262500X0.450000X-0.262500X-0.450000X0.262500X-0.450000X0*%
G04 APERTURE END LIST*
%TO.C,C4*%
D10*
X68238748Y-64235000D02*
X68761252Y-64235000D01*
X68238748Y-62765000D02*
X68761252Y-62765000D01*
%TO.C,U2*%
X57921610Y-61827501D02*
X57921610Y-66447501D01*
X65991610Y-66447501D02*
X65991610Y-61827501D01*
X58376610Y-60277501D02*
X58616610Y-59947501D01*
X58136610Y-59947501D01*
X58376610Y-60277501D01*
G36*
X58376610Y-60277501D02*
G01*
X58136610Y-59947501D01*
X58616610Y-59947501D01*
X58376610Y-60277501D01*
G37*
%TO.C,U1*%
X82535000Y-65172500D02*
X82535000Y-60552500D01*
X74465000Y-60552500D02*
X74465000Y-65172500D01*
X82080000Y-66722500D02*
X81840000Y-67052500D01*
X82320000Y-67052500D01*
X82080000Y-66722500D01*
G36*
X82320000Y-67052500D02*
G01*
X81840000Y-67052500D01*
X82080000Y-66722500D01*
X82320000Y-67052500D01*
G37*
%TO.C,R3*%
X68272936Y-64765000D02*
X68727064Y-64765000D01*
X68272936Y-66235000D02*
X68727064Y-66235000D01*
%TO.C,C3*%
X87261252Y-66765000D02*
X86738748Y-66765000D01*
X87261252Y-68235000D02*
X86738748Y-68235000D01*
%TO.C,R6*%
X88814564Y-62765000D02*
X88360436Y-62765000D01*
X88814564Y-64235000D02*
X88360436Y-64235000D01*
%TO.C,C5*%
X63261252Y-55265000D02*
X62738748Y-55265000D01*
X63261252Y-56735000D02*
X62738748Y-56735000D01*
%TO.C,R4*%
X72727064Y-64765000D02*
X72272936Y-64765000D01*
X72727064Y-66235000D02*
X72272936Y-66235000D01*
%TO.C,R5*%
X72727064Y-62765000D02*
X72272936Y-62765000D01*
X72727064Y-64235000D02*
X72272936Y-64235000D01*
%TD*%
%LPC*%
D11*
%TO.C,C4*%
X69450000Y-63500000D03*
X67550000Y-63500000D03*
%TD*%
D12*
%TO.C,U2*%
X58381610Y-61275001D03*
X59031610Y-61275001D03*
X59681610Y-61275001D03*
X60331610Y-61275001D03*
X60981610Y-61275001D03*
X61631610Y-61275001D03*
X62281610Y-61275001D03*
X62931610Y-61275001D03*
X63581610Y-61275001D03*
X64231610Y-61275001D03*
X64881610Y-61275001D03*
X65531610Y-61275001D03*
X65531610Y-67000001D03*
X64881610Y-67000001D03*
X64231610Y-67000001D03*
X63581610Y-67000001D03*
X62931610Y-67000001D03*
X62281610Y-67000001D03*
X61631610Y-67000001D03*
X60981610Y-67000001D03*
X60331610Y-67000001D03*
X59681610Y-67000001D03*
X59031610Y-67000001D03*
X58381610Y-67000001D03*
%TD*%
D13*
%TO.C,U1*%
X82075000Y-65725000D03*
X81425000Y-65725000D03*
X80775000Y-65725000D03*
X80125000Y-65725000D03*
X79475000Y-65725000D03*
X78825000Y-65725000D03*
X78175000Y-65725000D03*
X77525000Y-65725000D03*
X76875000Y-65725000D03*
X76225000Y-65725000D03*
X75575000Y-65725000D03*
X74925000Y-65725000D03*
X74925000Y-60000000D03*
X75575000Y-60000000D03*
X76225000Y-60000000D03*
X76875000Y-60000000D03*
X77525000Y-60000000D03*
X78175000Y-60000000D03*
X78825000Y-60000000D03*
X79475000Y-60000000D03*
X80125000Y-60000000D03*
X80775000Y-60000000D03*
X81425000Y-60000000D03*
X82075000Y-60000000D03*
%TD*%
D14*
%TO.C,J41*%
X68650000Y-70800000D03*
D15*
X71190000Y-70800000D03*
X73730000Y-70800000D03*
X76270000Y-70800000D03*
X78810000Y-70800000D03*
X81350000Y-70800000D03*
X83890000Y-70800000D03*
X86430000Y-70800000D03*
X88970000Y-70800000D03*
X91510000Y-70800000D03*
%TD*%
D16*
%TO.C,REF\u002A\u002A*%
X89800000Y-59500000D03*
%TD*%
D17*
%TO.C,R3*%
X67587500Y-65500000D03*
X69412500Y-65500000D03*
%TD*%
D16*
%TO.C,REF\u002A\u002A*%
X70000000Y-59700000D03*
%TD*%
D18*
%TO.C,C3*%
X87950000Y-67500000D03*
X86050000Y-67500000D03*
%TD*%
D19*
%TO.C,R6*%
X89500000Y-63500000D03*
X87675000Y-63500000D03*
%TD*%
D18*
%TO.C,C5*%
X63950000Y-56000000D03*
X62050000Y-56000000D03*
%TD*%
D19*
%TO.C,R4*%
X73412500Y-65500000D03*
X71587500Y-65500000D03*
%TD*%
%TO.C,R5*%
X73412500Y-63500000D03*
X71587500Y-63500000D03*
%TD*%
%LPD*%
M02*
