%TF.GenerationSoftware,KiCad,Pcbnew,10.0.2*%
%TF.CreationDate,2026-06-17T00:55:55+02:00*%
%TF.ProjectId,Zero_Palm_V1,5a65726f-5f50-4616-9c6d-5f56312e6b69,rev?*%
%TF.SameCoordinates,Original*%
%TF.FileFunction,Copper,L1,Top*%
%TF.FilePolarity,Positive*%
%FSLAX46Y46*%
G04 Gerber Fmt 4.6, Leading zero omitted, Abs format (unit mm)*
G04 Created by KiCad (PCBNEW 10.0.2) date 2026-06-17 00:55:55*
%MOMM*%
%LPD*%
G01*
G04 APERTURE LIST*
G04 Aperture macros list*
%AMRoundRect*
0 Rectangle with rounded corners*
0 $1 Rounding radius*
0 $2 $3 $4 $5 $6 $7 $8 $9 X,Y pos of 4 corners*
0 Add a 4 corners polygon primitive as box body*
4,1,4,$2,$3,$4,$5,$6,$7,$8,$9,$2,$3,0*
0 Add four circle primitives for the rounded corners*
1,1,$1+$1,$2,$3*
1,1,$1+$1,$4,$5*
1,1,$1+$1,$6,$7*
1,1,$1+$1,$8,$9*
0 Add four rect primitives between the rounded corners*
20,1,$1+$1,$2,$3,$4,$5,0*
20,1,$1+$1,$4,$5,$6,$7,0*
20,1,$1+$1,$6,$7,$8,$9,0*
20,1,$1+$1,$8,$9,$2,$3,0*%
G04 Aperture macros list end*
%TA.AperFunction,SMDPad,CuDef*%
%ADD10RoundRect,0.250000X-0.250000X-0.750000X0.250000X-0.750000X0.250000X0.750000X-0.250000X0.750000X0*%
%TD*%
%TA.AperFunction,SMDPad,CuDef*%
%ADD11RoundRect,0.250000X0.250000X0.750000X-0.250000X0.750000X-0.250000X-0.750000X0.250000X-0.750000X0*%
%TD*%
%TA.AperFunction,SMDPad,CuDef*%
%ADD12RoundRect,0.250000X0.750000X-0.250000X0.750000X0.250000X-0.750000X0.250000X-0.750000X-0.250000X0*%
%TD*%
%TA.AperFunction,ComponentPad*%
%ADD13R,1.700000X1.700000*%
%TD*%
%TA.AperFunction,ComponentPad*%
%ADD14C,1.700000*%
%TD*%
%TA.AperFunction,ViaPad*%
%ADD15C,0.600000*%
%TD*%
%TA.AperFunction,Conductor*%
%ADD16C,0.300000*%
%TD*%
G04 APERTURE END LIST*
D10*
%TO.P,J9,1,Pin_1_1*%
%TO.N,GND*%
X96500000Y-62500000D03*
%TD*%
%TO.P,J18,1,Pin_1_1*%
%TO.N,+3.3V*%
X59500000Y-66200000D03*
%TD*%
%TO.P,J50,1,Pin_1_1*%
%TO.N,SDA_Main*%
X66000000Y-70000000D03*
%TD*%
D11*
%TO.P,J15,1,Pin_1_1*%
%TO.N,SDA3*%
X100500000Y-64000000D03*
%TD*%
D10*
%TO.P,J57,1,Pin_1_1*%
%TO.N,SDA11*%
X71000000Y-56000000D03*
%TD*%
D11*
%TO.P,J11,1,Pin_1_1*%
%TO.N,SDA2*%
X103500000Y-66000000D03*
%TD*%
D12*
%TO.P,J2,1,Pin_1_1*%
%TO.N,+3.3V*%
X61500000Y-54000000D03*
%TD*%
D10*
%TO.P,J27,1,Pin_1_1*%
%TO.N,SDA6*%
X78500000Y-56000000D03*
%TD*%
D12*
%TO.P,J1,1,Pin_1_1*%
%TO.N,GND*%
X84500000Y-56500000D03*
%TD*%
D10*
%TO.P,J36,1,Pin_1_1*%
%TO.N,SCL8*%
X60500000Y-56000000D03*
%TD*%
%TO.P,J24,1,Pin_1_1*%
%TO.N,SCL5*%
X77000000Y-56000000D03*
%TD*%
%TO.P,J62,1,Pin_1_1*%
%TO.N,Net-(J41-Pin_7)*%
X97000000Y-71500000D03*
%TD*%
D12*
%TO.P,J32,1,Pin_1_1*%
%TO.N,SCL7*%
X73500000Y-54000000D03*
%TD*%
D11*
%TO.P,J31,1,Pin_1_1*%
%TO.N,SDA7*%
X93000000Y-61000000D03*
%TD*%
D10*
%TO.P,J61,1,Pin_1_1*%
%TO.N,Net-(J41-Pin_8)*%
X95500000Y-71000000D03*
%TD*%
%TO.P,J22,1,Pin_1_1*%
%TO.N,SCL12*%
X60000000Y-69000000D03*
%TD*%
D12*
%TO.P,J6,1,Pin_1_1*%
%TO.N,+3.3V*%
X68500000Y-54000000D03*
%TD*%
D13*
%TO.P,J41,1,Pin_1_1*%
%TO.N,GND*%
X68650000Y-70800000D03*
D14*
%TO.P,J41,2,Pin_2_2*%
X71190000Y-70800000D03*
%TO.P,J41,3,Pin_3_3*%
%TO.N,unconnected-(J41-Pin_3-Pad3)*%
X73730000Y-70800000D03*
%TO.P,J41,4,Pin_4_4*%
%TO.N,unconnected-(J41-Pin_4-Pad4)*%
X76270000Y-70800000D03*
%TO.P,J41,5,Pin_5_5*%
%TO.N,unconnected-(J41-Pin_5-Pad5)*%
X78810000Y-70800000D03*
%TO.P,J41,6,Pin_6_6*%
%TO.N,GND*%
X81350000Y-70800000D03*
%TO.P,J41,7,Pin_7_7*%
%TO.N,Net-(J41-Pin_7)*%
X83890000Y-70800000D03*
%TO.P,J41,8,Pin_8_8*%
%TO.N,Net-(J41-Pin_8)*%
X86430000Y-70800000D03*
%TO.P,J41,9,Pin_9_9*%
%TO.N,GND*%
X88970000Y-70800000D03*
%TO.P,J41,10,Pin_10_10*%
%TO.N,+3.3V*%
X91510000Y-70800000D03*
%TD*%
D10*
%TO.P,J34,1,Pin_1_1*%
%TO.N,SCL13*%
X62000000Y-71500000D03*
%TD*%
%TO.P,J20,1,Pin_1_1*%
%TO.N,SCL4*%
X74000000Y-56000000D03*
%TD*%
D12*
%TO.P,J49,1,Pin_1_1*%
%TO.N,GND*%
X64000000Y-54000000D03*
%TD*%
D10*
%TO.P,J47,1,Pin_1_1*%
%TO.N,SCL_Main*%
X64500000Y-70000000D03*
%TD*%
D12*
%TO.P,J13,1,Pin_1_1*%
%TO.N,GND*%
X71000000Y-54000000D03*
%TD*%
D10*
%TO.P,J53,1,Pin_1_1*%
%TO.N,SDA10*%
X68000000Y-56000000D03*
%TD*%
%TO.P,J7,1,Pin_1_1*%
%TO.N,SDA1*%
X101000000Y-68500000D03*
%TD*%
D12*
%TO.P,J14,1,Pin_1_1*%
%TO.N,+3.3V*%
X82000000Y-56500000D03*
%TD*%
D10*
%TO.P,J19,1,Pin_1_1*%
%TO.N,SDA4*%
X72500000Y-56000000D03*
%TD*%
%TO.P,J33,1,Pin_1_1*%
%TO.N,SDA13*%
X60500000Y-72000000D03*
%TD*%
%TO.P,J48,1,Pin_1_1*%
%TO.N,+3.3V*%
X98500000Y-72000000D03*
%TD*%
%TO.P,J54,1,Pin_1_1*%
%TO.N,SCL10*%
X66500000Y-56000000D03*
%TD*%
%TO.P,J28,1,Pin_1_1*%
%TO.N,SCL6*%
X80000000Y-56000000D03*
%TD*%
D12*
%TO.P,J5,1,Pin_1_1*%
%TO.N,GND*%
X65500000Y-72500000D03*
%TD*%
D10*
%TO.P,J35,1,Pin_1_1*%
%TO.N,SDA8*%
X62000000Y-56000000D03*
%TD*%
%TO.P,J58,1,Pin_1_1*%
%TO.N,SCL11*%
X69500000Y-56000000D03*
%TD*%
%TO.P,J8,1,Pin_1_1*%
%TO.N,SCL1*%
X102500000Y-69000000D03*
%TD*%
%TO.P,J17,1,Pin_1_1*%
%TO.N,GND*%
X57500000Y-67000000D03*
%TD*%
%TO.P,J23,1,Pin_1_1*%
%TO.N,SDA5*%
X75500000Y-56000000D03*
%TD*%
D11*
%TO.P,J12,1,Pin_1_1*%
%TO.N,SCL2*%
X102000000Y-65000000D03*
%TD*%
D10*
%TO.P,J21,1,Pin_1_1*%
%TO.N,SDA12*%
X58500000Y-69500000D03*
%TD*%
%TO.P,J40,1,Pin_1_1*%
%TO.N,SCL9*%
X63500000Y-56000000D03*
%TD*%
%TO.P,J39,1,Pin_1_1*%
%TO.N,SDA9*%
X65000000Y-56000000D03*
%TD*%
%TO.P,J3,1,Pin_1_1*%
%TO.N,SDA0*%
X98000000Y-67500000D03*
%TD*%
%TO.P,J4,1,Pin_1_1*%
%TO.N,SCL0*%
X99500000Y-68000000D03*
%TD*%
D11*
%TO.P,J16,1,Pin_1_1*%
%TO.N,SCL3*%
X98000000Y-63000000D03*
%TD*%
D10*
%TO.P,J10,1,Pin_1_1*%
%TO.N,+3.3V*%
X94500000Y-61500000D03*
%TD*%
D15*
%TO.N,GND*%
X65500000Y-64000000D03*
X68550000Y-63500000D03*
%TO.N,SDA_Main*%
X69000000Y-68500000D03*
%TO.N,GND*%
X61932382Y-65795190D03*
%TO.N,SDA_Main*%
X80500000Y-58500000D03*
X65934313Y-68565687D03*
X76500000Y-62500000D03*
%TO.N,SDA3*%
X99000000Y-64500000D03*
%TO.N,SDA11*%
X67219375Y-59150000D03*
%TO.N,SDA2*%
X83500000Y-66850000D03*
X88000000Y-65850000D03*
X77500000Y-67500000D03*
%TO.N,+3.3V*%
X67000000Y-54000000D03*
X100000000Y-71500000D03*
X99547723Y-69850001D03*
X98000000Y-69500000D03*
X82000000Y-58000000D03*
X90500000Y-63500000D03*
X94500000Y-63350000D03*
X83000000Y-59000000D03*
X59500000Y-64500000D03*
%TO.N,SDA6*%
X78000000Y-58500000D03*
%TO.N,GND*%
X66500000Y-59500000D03*
X66000000Y-54000000D03*
X104000000Y-68500000D03*
X59500000Y-56500000D03*
X69500000Y-53000000D03*
X80012462Y-61050929D03*
X93034620Y-63965380D03*
X88587501Y-64327171D03*
X59500000Y-60000000D03*
X84500000Y-60850000D03*
X86000000Y-57000000D03*
X84500000Y-60000000D03*
X83500000Y-65500000D03*
X59000000Y-72000000D03*
X57731609Y-64500000D03*
%TO.N,SCL8*%
X60500000Y-58000000D03*
%TO.N,SCL5*%
X77000000Y-58500000D03*
%TO.N,SCL7*%
X77000000Y-54500000D03*
%TO.N,SDA7*%
X91500000Y-61500000D03*
X77500000Y-62350929D03*
X78712459Y-61050929D03*
%TO.N,SCL12*%
X64619235Y-68500001D03*
%TO.N,SCL13*%
X63000000Y-69199997D03*
%TO.N,SCL4*%
X74500000Y-58500000D03*
%TO.N,SCL_Main*%
X63500000Y-72500000D03*
X67500000Y-67000000D03*
X80887538Y-61050929D03*
X63000000Y-70000000D03*
%TO.N,SDA10*%
X66000000Y-58000000D03*
%TO.N,SDA1*%
X79000000Y-64000000D03*
%TO.N,SDA4*%
X73000000Y-59000000D03*
%TO.N,SDA13*%
X62000000Y-69000000D03*
%TO.N,SCL10*%
X64500000Y-58000000D03*
%TO.N,SCL6*%
X79000000Y-58500000D03*
%TO.N,SDA8*%
X61500000Y-58000000D03*
%TO.N,SCL11*%
X68000000Y-58000000D03*
%TO.N,SCL1*%
X97000000Y-69500000D03*
%TO.N,SDA5*%
X76000000Y-58500000D03*
%TO.N,SCL2*%
X83541619Y-62740178D03*
%TO.N,SDA12*%
X66500000Y-68000000D03*
%TO.N,SCL9*%
X62500000Y-58000000D03*
%TO.N,SDA9*%
X63500000Y-58000000D03*
%TO.N,SDA0*%
X80500000Y-68150000D03*
%TO.N,SCL0*%
X79000000Y-68500000D03*
%TO.N,SCL3*%
X92000000Y-63850000D03*
X83000000Y-61500000D03*
X76000000Y-64500000D03*
%TD*%
%TO.N,GND*%
D16*
X66000000Y-63500000D02*
X65500000Y-64000000D01*
X68550000Y-63500000D02*
X66000000Y-63500000D01*
%TO.N,SCL_Main*%
X67500000Y-67000000D02*
X70650000Y-63850000D01*
X70650000Y-63850000D02*
X76920168Y-63850000D01*
%TO.N,SDA_Main*%
X68850000Y-68650000D02*
X69000000Y-68500000D01*
X66018626Y-68650000D02*
X68850000Y-68650000D01*
%TO.N,+3.3V*%
X59500000Y-66200000D02*
X59500000Y-64500000D01*
%TO.N,GND*%
X59500000Y-56500000D02*
X59500000Y-60000000D01*
X96500000Y-62500000D02*
X97350000Y-61650000D01*
X96500000Y-62500000D02*
X95000000Y-64000000D01*
X62637192Y-66500000D02*
X61932382Y-65795190D01*
X66080761Y-66500000D02*
X62637192Y-66500000D01*
X72769239Y-67850000D02*
X67430761Y-67850000D01*
X67430761Y-67850000D02*
X66080761Y-66500000D01*
X73500000Y-67000000D02*
X75000000Y-65500000D01*
X75000000Y-65500000D02*
X83500000Y-65500000D01*
X72769239Y-67730761D02*
X73500000Y-67000000D01*
X72769239Y-67850000D02*
X72769239Y-67730761D01*
X73409239Y-68490000D02*
X73409239Y-68580761D01*
X72769239Y-67850000D02*
X73409239Y-68490000D01*
X73409239Y-68580761D02*
X71190000Y-70800000D01*
%TO.N,+3.3V*%
X92000000Y-62350000D02*
X91430761Y-62350000D01*
X91430761Y-62350000D02*
X90850000Y-61769239D01*
%TO.N,SDA_Main*%
X79850000Y-59150000D02*
X80500000Y-58500000D01*
X76500000Y-61000000D02*
X78350000Y-59150000D01*
X78350000Y-59150000D02*
X79850000Y-59150000D01*
X65934313Y-68565687D02*
X66018626Y-68650000D01*
X65934313Y-69934313D02*
X66000000Y-70000000D01*
X76500000Y-62500000D02*
X76500000Y-61000000D01*
X65934313Y-68565687D02*
X65934313Y-69934313D01*
%TO.N,SDA3*%
X100500000Y-64000000D02*
X100000000Y-64500000D01*
X100000000Y-64500000D02*
X99000000Y-64500000D01*
%TO.N,SDA11*%
X69357106Y-57350000D02*
X70005456Y-57350000D01*
X69096723Y-57903277D02*
X69096723Y-57610383D01*
X70350000Y-57005456D02*
X70350000Y-56650000D01*
X67219375Y-59150000D02*
X67850000Y-59150000D01*
X69096723Y-57610383D02*
X69357106Y-57350000D01*
X67850000Y-59150000D02*
X69096723Y-57903277D01*
X70350000Y-56650000D02*
X71000000Y-56000000D01*
X70005456Y-57350000D02*
X70350000Y-57005456D01*
%TO.N,SDA2*%
X77500000Y-67500000D02*
X78150000Y-66850000D01*
X100500000Y-66000000D02*
X99062562Y-66000000D01*
X102855456Y-66000000D02*
X102355456Y-66500000D01*
X99062562Y-66000000D02*
X98712562Y-65650000D01*
X103500000Y-66000000D02*
X102855456Y-66000000D01*
X88150000Y-66000000D02*
X88000000Y-65850000D01*
X101000000Y-66500000D02*
X100500000Y-66000000D01*
X102355456Y-66500000D02*
X101000000Y-66500000D01*
X98712562Y-65650000D02*
X97287438Y-65650000D01*
X78150000Y-66850000D02*
X83500000Y-66850000D01*
X97287438Y-65650000D02*
X96937438Y-66000000D01*
X96937438Y-66000000D02*
X88150000Y-66000000D01*
%TO.N,+3.3V*%
X94500000Y-63350000D02*
X93850000Y-63350000D01*
X83000000Y-57500000D02*
X84000000Y-58500000D01*
X83000000Y-57500000D02*
X82000000Y-56500000D01*
X98350001Y-69850001D02*
X98000000Y-69500000D01*
X61500000Y-54000000D02*
X62350000Y-53150000D01*
X88000000Y-61500000D02*
X90850000Y-61500000D01*
X68500000Y-54000000D02*
X67000000Y-54000000D01*
X93560000Y-72850000D02*
X97650000Y-72850000D01*
X90850000Y-61500000D02*
X90850000Y-61769239D01*
X85000000Y-58500000D02*
X88000000Y-61500000D01*
X67650000Y-53150000D02*
X62350000Y-53150000D01*
X98500000Y-72000000D02*
X99500000Y-72000000D01*
X99547723Y-69850001D02*
X98350001Y-69850001D01*
X68500000Y-54000000D02*
X67650000Y-53150000D01*
X94500000Y-61500000D02*
X94500000Y-63350000D01*
X92850000Y-62350000D02*
X92000000Y-62350000D01*
X97650000Y-72850000D02*
X98500000Y-72000000D01*
X82000000Y-56500000D02*
X82000000Y-58000000D01*
X83000000Y-59000000D02*
X83000000Y-57500000D01*
X91510000Y-70800000D02*
X93560000Y-72850000D01*
X93850000Y-63350000D02*
X92850000Y-62350000D01*
X90500000Y-63500000D02*
X90850000Y-63500000D01*
X84000000Y-58500000D02*
X85000000Y-58500000D01*
X99500000Y-72000000D02*
X100000000Y-71500000D01*
X90850000Y-63500000D02*
X92000000Y-62350000D01*
%TO.N,SDA6*%
X78000000Y-58500000D02*
X78000000Y-56500000D01*
X78000000Y-56500000D02*
X78500000Y-56000000D01*
%TO.N,GND*%
X68650000Y-70800000D02*
X71190000Y-70800000D01*
X66950000Y-72500000D02*
X65500000Y-72500000D01*
X93069240Y-64000000D02*
X95000000Y-64000000D01*
X84650000Y-60850000D02*
X84500000Y-60850000D01*
X71190000Y-70800000D02*
X72390000Y-72000000D01*
X84500000Y-60000000D02*
X85000000Y-60500000D01*
X87770000Y-72000000D02*
X88970000Y-70800000D01*
X64000000Y-54000000D02*
X66000000Y-54000000D01*
X97350000Y-61650000D02*
X98650000Y-61650000D01*
X67000000Y-60000000D02*
X66500000Y-59500000D01*
X57500000Y-64731609D02*
X57731609Y-64500000D01*
X99650000Y-62650000D02*
X101005456Y-62650000D01*
X60000000Y-59500000D02*
X59500000Y-60000000D01*
X57500000Y-65500000D02*
X57500000Y-67000000D01*
X59500000Y-63500000D02*
X57500000Y-65500000D01*
X98650000Y-61650000D02*
X99650000Y-62650000D01*
X81350000Y-70800000D02*
X82550000Y-72000000D01*
X80012462Y-61006766D02*
X81019228Y-60000000D01*
X59500000Y-60000000D02*
X59500000Y-63500000D01*
X68650000Y-70800000D02*
X66950000Y-72500000D01*
X101005456Y-62650000D02*
X102000000Y-63644544D01*
X104350000Y-68150000D02*
X104000000Y-68500000D01*
X85000000Y-60500000D02*
X84650000Y-60850000D01*
X80150000Y-72000000D02*
X81350000Y-70800000D01*
X72390000Y-72000000D02*
X80150000Y-72000000D01*
X104350000Y-64994544D02*
X104350000Y-68150000D01*
X88587501Y-64087501D02*
X88587501Y-64327171D01*
X103000000Y-63644544D02*
X104350000Y-64994544D01*
X102000000Y-63644544D02*
X103000000Y-63644544D01*
X66500000Y-59500000D02*
X60000000Y-59500000D01*
X82550000Y-72000000D02*
X87770000Y-72000000D01*
X71190000Y-70800000D02*
X71092802Y-70800000D01*
X57500000Y-65500000D02*
X57500000Y-64731609D01*
X85000000Y-60500000D02*
X88587501Y-64087501D01*
X80012462Y-61050929D02*
X80012462Y-61006766D01*
X81019228Y-60000000D02*
X84500000Y-60000000D01*
X84500000Y-56500000D02*
X85500000Y-56500000D01*
X85500000Y-56500000D02*
X86000000Y-57000000D01*
X93034620Y-63965380D02*
X93069240Y-64000000D01*
X70500000Y-54000000D02*
X69500000Y-53000000D01*
X71000000Y-54000000D02*
X70500000Y-54000000D01*
%TO.N,SCL8*%
X60500000Y-56000000D02*
X60500000Y-58000000D01*
%TO.N,SCL5*%
X77000000Y-58500000D02*
X77000000Y-56000000D01*
%TO.N,Net-(J41-Pin_7)*%
X97000000Y-70500000D02*
X95600000Y-69100000D01*
X97000000Y-71500000D02*
X97000000Y-70500000D01*
X85590000Y-69100000D02*
X83890000Y-70800000D01*
X95600000Y-69100000D02*
X85590000Y-69100000D01*
%TO.N,SCL7*%
X75500000Y-54500000D02*
X75000000Y-54000000D01*
X77000000Y-54500000D02*
X75500000Y-54500000D01*
X73500000Y-54000000D02*
X75000000Y-54000000D01*
%TO.N,SDA7*%
X93000000Y-61000000D02*
X92000000Y-61000000D01*
X78712459Y-61138470D02*
X77500000Y-62350929D01*
X78712459Y-61050929D02*
X78712459Y-61138470D01*
X92000000Y-61000000D02*
X91500000Y-61500000D01*
%TO.N,Net-(J41-Pin_8)*%
X95500000Y-71000000D02*
X94100000Y-69600000D01*
X94100000Y-69600000D02*
X87630000Y-69600000D01*
X87630000Y-69600000D02*
X86430000Y-70800000D01*
%TO.N,SCL12*%
X60000000Y-69000000D02*
X60650000Y-68350000D01*
X64469234Y-68350000D02*
X64619235Y-68500001D01*
X60650000Y-68350000D02*
X64469234Y-68350000D01*
%TO.N,SCL13*%
X62800003Y-69199997D02*
X63000000Y-69199997D01*
X62000000Y-70080761D02*
X62880764Y-69199997D01*
X62880764Y-69199997D02*
X63000000Y-69199997D01*
X62000000Y-71500000D02*
X62000000Y-70080761D01*
%TO.N,SCL4*%
X74500000Y-56500000D02*
X74000000Y-56000000D01*
X74500000Y-58500000D02*
X74500000Y-56500000D01*
%TO.N,SCL_Main*%
X80887538Y-61612462D02*
X79650000Y-62850000D01*
X77920168Y-62850000D02*
X76920168Y-63850000D01*
X64500000Y-70000000D02*
X63000000Y-70000000D01*
X63500000Y-72500000D02*
X63500000Y-71000000D01*
X79650000Y-62850000D02*
X77920168Y-62850000D01*
X80887538Y-61050929D02*
X80887538Y-61612462D01*
X63500000Y-71000000D02*
X64500000Y-70000000D01*
%TO.N,SDA10*%
X67000000Y-58000000D02*
X66000000Y-58000000D01*
X68000000Y-56000000D02*
X68000000Y-57000000D01*
X68000000Y-57000000D02*
X67000000Y-58000000D01*
%TO.N,SDA1*%
X100000000Y-66500000D02*
X98850000Y-66500000D01*
X87500000Y-66500000D02*
X85000000Y-64000000D01*
X97150000Y-66500000D02*
X87500000Y-66500000D01*
X97150000Y-66494544D02*
X97150000Y-66500000D01*
X98850000Y-66500000D02*
X98850000Y-66494544D01*
X97494544Y-66150000D02*
X97150000Y-66494544D01*
X98505456Y-66150000D02*
X97494544Y-66150000D01*
X98850000Y-66494544D02*
X98505456Y-66150000D01*
X101000000Y-68500000D02*
X101000000Y-67500000D01*
X101000000Y-67500000D02*
X100000000Y-66500000D01*
X85000000Y-64000000D02*
X79000000Y-64000000D01*
%TO.N,SDA4*%
X72500000Y-58500000D02*
X72500000Y-56000000D01*
X73000000Y-59000000D02*
X72500000Y-58500000D01*
%TO.N,SDA13*%
X60500000Y-70500000D02*
X62000000Y-69000000D01*
X60500000Y-72000000D02*
X60500000Y-70500000D01*
%TO.N,SCL10*%
X65000000Y-58000000D02*
X64500000Y-58000000D01*
X66500000Y-56000000D02*
X66500000Y-56500000D01*
X66500000Y-56500000D02*
X65000000Y-58000000D01*
%TO.N,SCL6*%
X79000000Y-58500000D02*
X80000000Y-57500000D01*
X80000000Y-57500000D02*
X80000000Y-56000000D01*
%TO.N,SDA8*%
X62000000Y-57500000D02*
X61500000Y-58000000D01*
X62000000Y-56000000D02*
X62000000Y-57500000D01*
%TO.N,SCL11*%
X69500000Y-56500000D02*
X68000000Y-58000000D01*
X69500000Y-56000000D02*
X69500000Y-56500000D01*
%TO.N,SCL1*%
X98000000Y-70500000D02*
X101000000Y-70500000D01*
X97000000Y-69500000D02*
X98000000Y-70500000D01*
X101000000Y-70500000D02*
X102500000Y-69000000D01*
%TO.N,SDA5*%
X76000000Y-56500000D02*
X75500000Y-56000000D01*
X76000000Y-58500000D02*
X76000000Y-56500000D01*
%TO.N,SCL2*%
X87992894Y-65150000D02*
X87942893Y-65200000D01*
X87430761Y-65500000D02*
X87207106Y-65500000D01*
X87942893Y-65200000D02*
X87730761Y-65200000D01*
X87730761Y-65200000D02*
X87430761Y-65500000D01*
X84447284Y-62740178D02*
X83541619Y-62740178D01*
X101500000Y-65500000D02*
X99619239Y-65500000D01*
X99269239Y-65150000D02*
X87992894Y-65150000D01*
X87207106Y-65500000D02*
X84447284Y-62740178D01*
X102000000Y-65000000D02*
X101500000Y-65500000D01*
X99619239Y-65500000D02*
X99269239Y-65150000D01*
%TO.N,SDA12*%
X58500000Y-69500000D02*
X58500000Y-68644544D01*
X66150000Y-67650000D02*
X66500000Y-68000000D01*
X59494544Y-67650000D02*
X66150000Y-67650000D01*
X58500000Y-68644544D02*
X59494544Y-67650000D01*
%TO.N,SCL9*%
X63500000Y-57000000D02*
X62500000Y-58000000D01*
X63500000Y-56000000D02*
X63500000Y-57000000D01*
%TO.N,SDA9*%
X65000000Y-56500000D02*
X63500000Y-58000000D01*
X65000000Y-56000000D02*
X65000000Y-56500000D01*
%TO.N,SDA0*%
X81150000Y-67500000D02*
X80500000Y-68150000D01*
X98000000Y-67500000D02*
X81150000Y-67500000D01*
%TO.N,SCL0*%
X80000000Y-69500000D02*
X84482894Y-69500000D01*
X97150000Y-68505456D02*
X97494544Y-68850000D01*
X97494544Y-68850000D02*
X98650000Y-68850000D01*
X98650000Y-68850000D02*
X99500000Y-68000000D01*
X84482894Y-69500000D02*
X85477438Y-68505456D01*
X85477438Y-68505456D02*
X97150000Y-68505456D01*
X79000000Y-68500000D02*
X80000000Y-69500000D01*
%TO.N,SCL3*%
X81150000Y-63350000D02*
X78569239Y-63350000D01*
X78569239Y-63350000D02*
X77419239Y-64500000D01*
X83000000Y-61500000D02*
X81150000Y-63350000D01*
X92800000Y-64650000D02*
X92000000Y-63850000D01*
X77419239Y-64500000D02*
X76000000Y-64500000D01*
X98000000Y-64000000D02*
X97350000Y-64650000D01*
X98000000Y-63000000D02*
X98000000Y-64000000D01*
X97350000Y-64650000D02*
X92800000Y-64650000D01*
%TD*%
%TA.AperFunction,Conductor*%
%TO.N,GND*%
G36*
X101557570Y-62689728D02*
G01*
X102205675Y-63033563D01*
X102207783Y-63034708D01*
X103768127Y-63902797D01*
X103794393Y-63917410D01*
X103796531Y-63918627D01*
X105360493Y-64830020D01*
X105371641Y-64837348D01*
X105474193Y-64912966D01*
X105492173Y-64929156D01*
X105574400Y-65019209D01*
X105588893Y-65038582D01*
X105644666Y-65130668D01*
X105652066Y-65142885D01*
X105662521Y-65164703D01*
X105704238Y-65279286D01*
X105710258Y-65302720D01*
X105728931Y-65423229D01*
X105730285Y-65447386D01*
X105725201Y-65569220D01*
X105721839Y-65593179D01*
X105691764Y-65717623D01*
X105688346Y-65729248D01*
X104382156Y-69482754D01*
X102739988Y-74201736D01*
X102739987Y-74201739D01*
X102720198Y-74258606D01*
X102715984Y-74269135D01*
X102651668Y-74410725D01*
X102640453Y-74430410D01*
X102554714Y-74553257D01*
X102540104Y-74570574D01*
X102433447Y-74675767D01*
X102415931Y-74690136D01*
X102291911Y-74774170D01*
X102272071Y-74785113D01*
X102134832Y-74845177D01*
X102113334Y-74852326D01*
X101967452Y-74886419D01*
X101945011Y-74889538D01*
X101795372Y-74896518D01*
X101772738Y-74895502D01*
X101618672Y-74874363D01*
X101607525Y-74872311D01*
X101600115Y-74870593D01*
X101592149Y-74868746D01*
X101542016Y-74857121D01*
X101541963Y-74857110D01*
X100701084Y-74662148D01*
X98869510Y-74273448D01*
X97031044Y-73919118D01*
X96036466Y-73746677D01*
X95973775Y-73715830D01*
X95937713Y-73655985D01*
X95939730Y-73586145D01*
X95979186Y-73528482D01*
X96043553Y-73501304D01*
X96057649Y-73500500D01*
X97714071Y-73500500D01*
X97839739Y-73475502D01*
X97839739Y-73475501D01*
X97839744Y-73475501D01*
X97892080Y-73453821D01*
X97961548Y-73446352D01*
X97978525Y-73450672D01*
X98097203Y-73489999D01*
X98199991Y-73500500D01*
X98800008Y-73500499D01*
X98800016Y-73500498D01*
X98800019Y-73500498D01*
X98856302Y-73494748D01*
X98902797Y-73489999D01*
X99069334Y-73434814D01*
X99218656Y-73342712D01*
X99342712Y-73218656D01*
X99434814Y-73069334D01*
X99489999Y-72902797D01*
X99500500Y-72800009D01*
X99500500Y-72764908D01*
X99520185Y-72697869D01*
X99572989Y-72652114D01*
X99600307Y-72643291D01*
X99689744Y-72625501D01*
X99808127Y-72576465D01*
X99859898Y-72541873D01*
X99914669Y-72505277D01*
X100102932Y-72317012D01*
X100164251Y-72283530D01*
X100166316Y-72283099D01*
X100233497Y-72269737D01*
X100379179Y-72209394D01*
X100510289Y-72121789D01*
X100621789Y-72010289D01*
X100709394Y-71879179D01*
X100769737Y-71733497D01*
X100800500Y-71578842D01*
X100800500Y-71421158D01*
X100800500Y-71421155D01*
X100776140Y-71298692D01*
X100782367Y-71229100D01*
X100825230Y-71173923D01*
X100891120Y-71150678D01*
X100897757Y-71150500D01*
X101064071Y-71150500D01*
X101148615Y-71133682D01*
X101189744Y-71125501D01*
X101308127Y-71076465D01*
X101326679Y-71064069D01*
X101414669Y-71005277D01*
X101917495Y-70502449D01*
X101978815Y-70468967D01*
X102044173Y-70472426D01*
X102097203Y-70489999D01*
X102199991Y-70500500D01*
X102800008Y-70500499D01*
X102800016Y-70500498D01*
X102800019Y-70500498D01*
X102856302Y-70494748D01*
X102902797Y-70489999D01*
X103069334Y-70434814D01*
X103218656Y-70342712D01*
X103342712Y-70218656D01*
X103434814Y-70069334D01*
X103489999Y-69902797D01*
X103500500Y-69800009D01*
X103500499Y-68199992D01*
X103492510Y-68121789D01*
X103489999Y-68097203D01*
X103489998Y-68097200D01*
X103485871Y-68084747D01*
X103434814Y-67930666D01*
X103342712Y-67781344D01*
X103273548Y-67712180D01*
X103240063Y-67650857D01*
X103245047Y-67581165D01*
X103286919Y-67525232D01*
X103352383Y-67500815D01*
X103361208Y-67500499D01*
X103800008Y-67500499D01*
X103800016Y-67500498D01*
X103800019Y-67500498D01*
X103873585Y-67492983D01*
X103902797Y-67489999D01*
X104069334Y-67434814D01*
X104218656Y-67342712D01*
X104342712Y-67218656D01*
X104434814Y-67069334D01*
X104489999Y-66902797D01*
X104500500Y-66800009D01*
X104500499Y-65199992D01*
X104494665Y-65142885D01*
X104489999Y-65097203D01*
X104489998Y-65097200D01*
X104479617Y-65065872D01*
X104434814Y-64930666D01*
X104342712Y-64781344D01*
X104218656Y-64657288D01*
X104091481Y-64578846D01*
X104069336Y-64565187D01*
X104069331Y-64565185D01*
X104034261Y-64553564D01*
X103902797Y-64510001D01*
X103902795Y-64510000D01*
X103800010Y-64499500D01*
X103199998Y-64499500D01*
X103199980Y-64499501D01*
X103137100Y-64505925D01*
X103068407Y-64493155D01*
X103017523Y-64445274D01*
X103000499Y-64382567D01*
X103000499Y-64199998D01*
X103000498Y-64199981D01*
X102989999Y-64097203D01*
X102989998Y-64097200D01*
X102957623Y-63999500D01*
X102934814Y-63930666D01*
X102842712Y-63781344D01*
X102718656Y-63657288D01*
X102599008Y-63583489D01*
X102569336Y-63565187D01*
X102569331Y-63565185D01*
X102567862Y-63564698D01*
X102402797Y-63510001D01*
X102402795Y-63510000D01*
X102300010Y-63499500D01*
X101699998Y-63499500D01*
X101699980Y-63499501D01*
X101637100Y-63505925D01*
X101568407Y-63493155D01*
X101517523Y-63445274D01*
X101500499Y-63382567D01*
X101500499Y-63199998D01*
X101500498Y-63199981D01*
X101489999Y-63097203D01*
X101489998Y-63097200D01*
X101482074Y-63073286D01*
X101434814Y-62930666D01*
X101406120Y-62884146D01*
X101393919Y-62864364D01*
X101375479Y-62796972D01*
X101396402Y-62730309D01*
X101450044Y-62685539D01*
X101519375Y-62676878D01*
X101557570Y-62689728D01*
G37*
%TD.AperFunction*%
%TA.AperFunction,Conductor*%
G36*
X62239765Y-52038617D02*
G01*
X62242053Y-52038707D01*
X64055602Y-52127992D01*
X64057919Y-52128129D01*
X65805759Y-52249147D01*
X65844016Y-52251796D01*
X65909536Y-52276064D01*
X65951534Y-52331903D01*
X65956677Y-52401583D01*
X65923331Y-52462982D01*
X65862084Y-52496606D01*
X65835451Y-52499500D01*
X62285929Y-52499500D01*
X62160261Y-52524497D01*
X62160251Y-52524500D01*
X62115428Y-52543067D01*
X62041881Y-52573530D01*
X62041863Y-52573540D01*
X61935332Y-52644721D01*
X61935325Y-52644727D01*
X61616871Y-52963181D01*
X61555548Y-52996666D01*
X61529190Y-52999500D01*
X60699998Y-52999500D01*
X60699980Y-52999501D01*
X60597203Y-53010000D01*
X60597200Y-53010001D01*
X60430668Y-53065185D01*
X60430663Y-53065187D01*
X60281342Y-53157289D01*
X60157289Y-53281342D01*
X60065187Y-53430663D01*
X60065186Y-53430666D01*
X60010001Y-53597203D01*
X60010001Y-53597204D01*
X60010000Y-53597204D01*
X59999500Y-53699983D01*
X59999500Y-54300001D01*
X59999501Y-54300019D01*
X60010000Y-54402796D01*
X60010002Y-54402803D01*
X60011635Y-54407731D01*
X60014033Y-54477560D01*
X59978298Y-54537600D01*
X59937125Y-54561956D01*
X59937209Y-54562136D01*
X59935379Y-54562989D01*
X59932942Y-54564431D01*
X59930676Y-54565181D01*
X59930663Y-54565187D01*
X59781342Y-54657289D01*
X59657289Y-54781342D01*
X59565187Y-54930663D01*
X59565186Y-54930666D01*
X59510001Y-55097203D01*
X59510001Y-55097204D01*
X59510000Y-55097204D01*
X59499500Y-55199983D01*
X59499500Y-56800001D01*
X59499501Y-56800018D01*
X59510000Y-56902796D01*
X59510001Y-56902799D01*
X59565185Y-57069331D01*
X59565187Y-57069336D01*
X59578834Y-57091461D01*
X59657288Y-57218656D01*
X59781344Y-57342712D01*
X59790591Y-57348416D01*
X59797416Y-57356003D01*
X59806703Y-57360244D01*
X59820390Y-57381541D01*
X59837318Y-57400360D01*
X59839963Y-57411998D01*
X59844477Y-57419022D01*
X59849500Y-57453957D01*
X59849500Y-57495064D01*
X59829815Y-57562103D01*
X59828603Y-57563954D01*
X59790608Y-57620817D01*
X59790602Y-57620828D01*
X59730264Y-57766498D01*
X59730261Y-57766510D01*
X59699500Y-57921153D01*
X59699500Y-58078846D01*
X59730261Y-58233489D01*
X59730264Y-58233501D01*
X59790602Y-58379172D01*
X59790609Y-58379185D01*
X59878210Y-58510288D01*
X59878213Y-58510292D01*
X59989707Y-58621786D01*
X59989711Y-58621789D01*
X60120814Y-58709390D01*
X60120827Y-58709397D01*
X60266498Y-58769735D01*
X60266503Y-58769737D01*
X60379326Y-58792179D01*
X60421153Y-58800499D01*
X60421156Y-58800500D01*
X60421158Y-58800500D01*
X60578844Y-58800500D01*
X60578845Y-58800499D01*
X60733497Y-58769737D01*
X60879179Y-58709394D01*
X60931110Y-58674694D01*
X60997785Y-58653816D01*
X61065165Y-58672300D01*
X61068863Y-58674676D01*
X61120821Y-58709394D01*
X61120823Y-58709395D01*
X61120825Y-58709396D01*
X61266498Y-58769735D01*
X61266503Y-58769737D01*
X61379326Y-58792179D01*
X61421153Y-58800499D01*
X61421156Y-58800500D01*
X61421158Y-58800500D01*
X61578844Y-58800500D01*
X61578845Y-58800499D01*
X61733497Y-58769737D01*
X61879179Y-58709394D01*
X61931110Y-58674694D01*
X61997785Y-58653816D01*
X62065165Y-58672300D01*
X62068863Y-58674676D01*
X62120821Y-58709394D01*
X62120823Y-58709395D01*
X62120825Y-58709396D01*
X62266498Y-58769735D01*
X62266503Y-58769737D01*
X62379326Y-58792179D01*
X62421153Y-58800499D01*
X62421156Y-58800500D01*
X62421158Y-58800500D01*
X62578844Y-58800500D01*
X62578845Y-58800499D01*
X62733497Y-58769737D01*
X62879179Y-58709394D01*
X62931110Y-58674694D01*
X62997785Y-58653816D01*
X63065165Y-58672300D01*
X63068863Y-58674676D01*
X63120821Y-58709394D01*
X63120823Y-58709395D01*
X63120825Y-58709396D01*
X63266498Y-58769735D01*
X63266503Y-58769737D01*
X63379326Y-58792179D01*
X63421153Y-58800499D01*
X63421156Y-58800500D01*
X63421158Y-58800500D01*
X63578844Y-58800500D01*
X63578845Y-58800499D01*
X63733497Y-58769737D01*
X63879179Y-58709394D01*
X63931110Y-58674694D01*
X63997785Y-58653816D01*
X64065165Y-58672300D01*
X64068863Y-58674676D01*
X64120821Y-58709394D01*
X64120823Y-58709395D01*
X64120825Y-58709396D01*
X64266498Y-58769735D01*
X64266503Y-58769737D01*
X64379326Y-58792179D01*
X64421153Y-58800499D01*
X64421156Y-58800500D01*
X64421158Y-58800500D01*
X64578844Y-58800500D01*
X64578845Y-58800499D01*
X64733497Y-58769737D01*
X64879179Y-58709394D01*
X64936044Y-58671397D01*
X65002721Y-58650520D01*
X65004935Y-58650500D01*
X65064071Y-58650500D01*
X65148615Y-58633682D01*
X65189744Y-58625501D01*
X65308127Y-58576465D01*
X65308127Y-58576464D01*
X65308129Y-58576464D01*
X65313497Y-58573595D01*
X65314520Y-58575509D01*
X65371841Y-58557546D01*
X65439225Y-58576014D01*
X65461766Y-58593845D01*
X65489707Y-58621786D01*
X65489711Y-58621789D01*
X65620814Y-58709390D01*
X65620827Y-58709397D01*
X65766498Y-58769735D01*
X65766503Y-58769737D01*
X65879326Y-58792179D01*
X65921153Y-58800499D01*
X65921156Y-58800500D01*
X65921158Y-58800500D01*
X66078844Y-58800500D01*
X66078845Y-58800499D01*
X66233497Y-58769737D01*
X66291212Y-58745830D01*
X66360679Y-58738362D01*
X66423158Y-58769637D01*
X66458811Y-58829726D01*
X66456318Y-58899551D01*
X66453225Y-58907842D01*
X66449639Y-58916498D01*
X66449636Y-58916510D01*
X66418875Y-59071153D01*
X66418875Y-59228846D01*
X66449636Y-59383489D01*
X66449639Y-59383501D01*
X66509977Y-59529172D01*
X66509984Y-59529185D01*
X66597585Y-59660288D01*
X66597588Y-59660292D01*
X66709082Y-59771786D01*
X66709086Y-59771789D01*
X66840189Y-59859390D01*
X66840202Y-59859397D01*
X66985873Y-59919735D01*
X66985878Y-59919737D01*
X67140528Y-59950499D01*
X67140531Y-59950500D01*
X67140533Y-59950500D01*
X67298219Y-59950500D01*
X67298220Y-59950499D01*
X67452872Y-59919737D01*
X67598554Y-59859394D01*
X67655419Y-59821397D01*
X67722096Y-59800520D01*
X67724310Y-59800500D01*
X67914071Y-59800500D01*
X68010380Y-59781342D01*
X68039744Y-59775501D01*
X68158127Y-59726465D01*
X68183676Y-59709394D01*
X68264669Y-59655277D01*
X68440483Y-59479462D01*
X68501803Y-59445979D01*
X68571495Y-59450963D01*
X68627429Y-59492834D01*
X68651846Y-59558298D01*
X68650637Y-59586535D01*
X68649500Y-59593716D01*
X68649500Y-59806286D01*
X68681765Y-60010002D01*
X68682754Y-60016243D01*
X68745001Y-60207820D01*
X68748444Y-60218414D01*
X68844951Y-60407820D01*
X68969890Y-60579786D01*
X69120213Y-60730109D01*
X69292179Y-60855048D01*
X69292181Y-60855049D01*
X69292184Y-60855051D01*
X69481588Y-60951557D01*
X69683757Y-61017246D01*
X69893713Y-61050500D01*
X69893714Y-61050500D01*
X70106286Y-61050500D01*
X70106287Y-61050500D01*
X70316243Y-61017246D01*
X70518412Y-60951557D01*
X70707816Y-60855051D01*
X70759585Y-60817439D01*
X70879786Y-60730109D01*
X70879788Y-60730106D01*
X70879792Y-60730104D01*
X71030104Y-60579792D01*
X71030106Y-60579788D01*
X71030109Y-60579786D01*
X71155048Y-60407820D01*
X71155047Y-60407820D01*
X71155051Y-60407816D01*
X71251557Y-60218412D01*
X71317246Y-60016243D01*
X71350500Y-59806287D01*
X71350500Y-59593713D01*
X71317246Y-59383757D01*
X71251557Y-59181588D01*
X71155051Y-58992184D01*
X71155049Y-58992181D01*
X71155048Y-58992179D01*
X71030109Y-58820213D01*
X70879786Y-58669890D01*
X70707820Y-58544951D01*
X70518414Y-58448444D01*
X70518413Y-58448443D01*
X70518412Y-58448443D01*
X70316243Y-58382754D01*
X70316241Y-58382753D01*
X70316240Y-58382753D01*
X70151108Y-58356599D01*
X70106287Y-58349500D01*
X69893713Y-58349500D01*
X69815177Y-58361938D01*
X69808057Y-58361018D01*
X69801265Y-58363344D01*
X69773867Y-58356599D01*
X69745884Y-58352983D01*
X69740391Y-58348359D01*
X69733420Y-58346643D01*
X69714017Y-58326156D01*
X69692433Y-58307986D01*
X69690312Y-58301127D01*
X69685375Y-58295914D01*
X69680128Y-58268189D01*
X69671794Y-58241235D01*
X69673401Y-58232643D01*
X69672383Y-58227263D01*
X69680362Y-58195433D01*
X69680819Y-58192992D01*
X69680980Y-58192593D01*
X69710709Y-58120821D01*
X69722224Y-58093021D01*
X69723185Y-58088188D01*
X69727293Y-58078027D01*
X69745669Y-58054819D01*
X69761899Y-58030060D01*
X69767119Y-58027732D01*
X69770668Y-58023251D01*
X69798679Y-58013661D01*
X69825714Y-58001608D01*
X69835876Y-58000927D01*
X69836771Y-58000621D01*
X69837557Y-58000814D01*
X69842255Y-58000500D01*
X70069527Y-58000500D01*
X70154071Y-57983682D01*
X70195200Y-57975501D01*
X70313583Y-57926465D01*
X70315763Y-57925008D01*
X70317972Y-57923533D01*
X70386072Y-57878029D01*
X70420125Y-57855277D01*
X70738584Y-57536816D01*
X70799906Y-57503333D01*
X70826264Y-57500499D01*
X71300002Y-57500499D01*
X71300008Y-57500499D01*
X71402797Y-57489999D01*
X71569334Y-57434814D01*
X71660404Y-57378641D01*
X71727796Y-57360202D01*
X71794459Y-57381125D01*
X71839229Y-57434767D01*
X71849500Y-57484181D01*
X71849500Y-58564070D01*
X71854982Y-58591629D01*
X71866693Y-58650500D01*
X71874499Y-58689744D01*
X71923535Y-58808127D01*
X71994723Y-58914669D01*
X71994726Y-58914673D01*
X71994727Y-58914674D01*
X72182984Y-59102930D01*
X72216469Y-59164253D01*
X72216920Y-59166420D01*
X72230261Y-59233489D01*
X72230264Y-59233501D01*
X72290602Y-59379172D01*
X72290609Y-59379185D01*
X72378210Y-59510288D01*
X72378213Y-59510292D01*
X72489707Y-59621786D01*
X72489711Y-59621789D01*
X72620814Y-59709390D01*
X72620827Y-59709397D01*
X72766498Y-59769735D01*
X72766503Y-59769737D01*
X72921153Y-59800499D01*
X72921156Y-59800500D01*
X72921158Y-59800500D01*
X73078844Y-59800500D01*
X73078845Y-59800499D01*
X73233497Y-59769737D01*
X73379179Y-59709394D01*
X73510289Y-59621789D01*
X73621789Y-59510289D01*
X73709394Y-59379179D01*
X73769737Y-59233497D01*
X73779508Y-59184373D01*
X73811892Y-59122464D01*
X73872607Y-59087890D01*
X73942377Y-59091629D01*
X73984696Y-59118295D01*
X73985001Y-59117924D01*
X73987957Y-59120350D01*
X73988806Y-59120885D01*
X73989707Y-59121786D01*
X73989711Y-59121789D01*
X74120814Y-59209390D01*
X74120827Y-59209397D01*
X74179035Y-59233507D01*
X74266503Y-59269737D01*
X74370468Y-59290417D01*
X74421153Y-59300499D01*
X74421156Y-59300500D01*
X74421158Y-59300500D01*
X74578844Y-59300500D01*
X74578845Y-59300499D01*
X74733497Y-59269737D01*
X74879179Y-59209394D01*
X75010289Y-59121789D01*
X75121789Y-59010289D01*
X75129145Y-58999279D01*
X75146898Y-58972712D01*
X75200510Y-58927906D01*
X75269835Y-58919199D01*
X75332862Y-58949353D01*
X75353102Y-58972712D01*
X75378207Y-59010284D01*
X75378213Y-59010292D01*
X75489707Y-59121786D01*
X75489711Y-59121789D01*
X75620814Y-59209390D01*
X75620827Y-59209397D01*
X75679035Y-59233507D01*
X75766503Y-59269737D01*
X75870468Y-59290417D01*
X75921153Y-59300499D01*
X75921156Y-59300500D01*
X75921158Y-59300500D01*
X76078844Y-59300500D01*
X76078845Y-59300499D01*
X76233497Y-59269737D01*
X76379179Y-59209394D01*
X76431110Y-59174694D01*
X76497785Y-59153816D01*
X76565165Y-59172300D01*
X76568863Y-59174676D01*
X76620821Y-59209394D01*
X76620823Y-59209395D01*
X76620825Y-59209396D01*
X76679035Y-59233507D01*
X76766503Y-59269737D01*
X76870468Y-59290417D01*
X76921153Y-59300499D01*
X76921156Y-59300500D01*
X76980191Y-59300500D01*
X77047230Y-59320185D01*
X77092985Y-59372989D01*
X77102929Y-59442147D01*
X77073904Y-59505703D01*
X77067872Y-59512181D01*
X75994725Y-60585328D01*
X75994719Y-60585336D01*
X75936982Y-60671746D01*
X75936983Y-60671747D01*
X75936981Y-60671750D01*
X75923535Y-60691873D01*
X75923533Y-60691875D01*
X75923533Y-60691877D01*
X75874499Y-60810255D01*
X75874497Y-60810261D01*
X75849500Y-60935928D01*
X75849500Y-61995064D01*
X75829815Y-62062103D01*
X75828603Y-62063954D01*
X75790608Y-62120817D01*
X75790602Y-62120828D01*
X75730264Y-62266498D01*
X75730261Y-62266510D01*
X75699500Y-62421153D01*
X75699500Y-62578846D01*
X75730261Y-62733489D01*
X75730264Y-62733501D01*
X75790602Y-62879172D01*
X75790609Y-62879185D01*
X75875752Y-63006609D01*
X75896630Y-63073286D01*
X75878146Y-63140666D01*
X75826167Y-63187357D01*
X75772650Y-63199500D01*
X70585929Y-63199500D01*
X70460261Y-63224497D01*
X70460255Y-63224499D01*
X70358850Y-63266503D01*
X70341877Y-63273533D01*
X70341869Y-63273537D01*
X70235326Y-63344726D01*
X67397068Y-66182984D01*
X67335745Y-66216469D01*
X67333579Y-66216920D01*
X67266508Y-66230261D01*
X67266498Y-66230264D01*
X67120827Y-66290602D01*
X67120814Y-66290609D01*
X66989711Y-66378210D01*
X66989707Y-66378213D01*
X66878213Y-66489707D01*
X66878210Y-66489711D01*
X66790609Y-66620814D01*
X66790602Y-66620827D01*
X66730264Y-66766498D01*
X66730261Y-66766510D01*
X66699500Y-66921153D01*
X66699500Y-67002827D01*
X66679815Y-67069866D01*
X66627011Y-67115621D01*
X66557853Y-67125565D01*
X66506610Y-67105930D01*
X66458127Y-67073535D01*
X66449269Y-67069866D01*
X66339744Y-67024499D01*
X66339738Y-67024497D01*
X66214071Y-66999500D01*
X66214069Y-66999500D01*
X60624500Y-66999500D01*
X60557461Y-66979815D01*
X60511706Y-66927011D01*
X60500500Y-66875500D01*
X60500499Y-65399998D01*
X60500498Y-65399981D01*
X60489999Y-65297203D01*
X60489998Y-65297200D01*
X60460902Y-65209394D01*
X60434814Y-65130666D01*
X60342712Y-64981344D01*
X60277103Y-64915735D01*
X60243620Y-64854412D01*
X60248605Y-64784721D01*
X60250215Y-64780627D01*
X60269737Y-64733497D01*
X60300500Y-64578842D01*
X60300500Y-64421158D01*
X60300500Y-64421155D01*
X60300499Y-64421153D01*
X60292824Y-64382567D01*
X60269737Y-64266503D01*
X60242190Y-64199998D01*
X60209397Y-64120827D01*
X60209390Y-64120814D01*
X60121789Y-63989711D01*
X60121786Y-63989707D01*
X60010292Y-63878213D01*
X60010288Y-63878210D01*
X59879185Y-63790609D01*
X59879172Y-63790602D01*
X59733501Y-63730264D01*
X59733489Y-63730261D01*
X59578845Y-63699500D01*
X59578842Y-63699500D01*
X59421158Y-63699500D01*
X59421155Y-63699500D01*
X59266510Y-63730261D01*
X59266498Y-63730264D01*
X59120827Y-63790602D01*
X59120814Y-63790609D01*
X58989711Y-63878210D01*
X58989707Y-63878213D01*
X58878213Y-63989707D01*
X58878210Y-63989711D01*
X58790609Y-64120814D01*
X58790602Y-64120827D01*
X58730264Y-64266498D01*
X58730261Y-64266510D01*
X58699500Y-64421153D01*
X58699500Y-64578846D01*
X58730260Y-64733488D01*
X58730262Y-64733493D01*
X58730263Y-64733497D01*
X58730265Y-64733501D01*
X58749775Y-64780604D01*
X58757242Y-64850074D01*
X58725966Y-64912552D01*
X58722895Y-64915735D01*
X58657289Y-64981342D01*
X58565187Y-65130663D01*
X58565185Y-65130668D01*
X58558607Y-65150520D01*
X58510001Y-65297203D01*
X58510001Y-65297204D01*
X58510000Y-65297204D01*
X58499500Y-65399983D01*
X58499500Y-67000001D01*
X58499501Y-67000018D01*
X58510000Y-67102796D01*
X58510001Y-67102799D01*
X58544047Y-67205541D01*
X58565186Y-67269334D01*
X58647243Y-67402371D01*
X58661080Y-67424803D01*
X58658931Y-67426128D01*
X58680625Y-67479923D01*
X58667573Y-67548563D01*
X58644897Y-67579700D01*
X58259146Y-67965450D01*
X58197823Y-67998935D01*
X58184067Y-68001127D01*
X58097202Y-68010001D01*
X58097200Y-68010001D01*
X57930668Y-68065185D01*
X57930663Y-68065187D01*
X57781342Y-68157289D01*
X57657289Y-68281342D01*
X57565187Y-68430663D01*
X57565186Y-68430666D01*
X57510001Y-68597203D01*
X57510001Y-68597204D01*
X57510000Y-68597204D01*
X57499500Y-68699983D01*
X57499500Y-70300001D01*
X57499501Y-70300018D01*
X57510000Y-70402796D01*
X57510001Y-70402799D01*
X57565185Y-70569331D01*
X57565187Y-70569336D01*
X57573293Y-70582478D01*
X57657288Y-70718656D01*
X57781344Y-70842712D01*
X57930666Y-70934814D01*
X58097203Y-70989999D01*
X58199991Y-71000500D01*
X58800008Y-71000499D01*
X58800016Y-71000498D01*
X58800019Y-71000498D01*
X58856302Y-70994748D01*
X58902797Y-70989999D01*
X59069334Y-70934814D01*
X59218656Y-70842712D01*
X59342712Y-70718656D01*
X59434814Y-70569334D01*
X59435562Y-70567075D01*
X59436497Y-70565724D01*
X59437869Y-70562784D01*
X59438371Y-70563018D01*
X59475331Y-70509628D01*
X59539844Y-70482800D01*
X59571337Y-70483394D01*
X59582016Y-70484966D01*
X59597203Y-70489999D01*
X59659196Y-70496332D01*
X59661924Y-70496734D01*
X59691248Y-70510247D01*
X59721152Y-70522449D01*
X59722790Y-70524782D01*
X59725380Y-70525976D01*
X59742746Y-70553201D01*
X59761304Y-70579630D01*
X59761420Y-70582478D01*
X59762954Y-70584882D01*
X59762843Y-70617170D01*
X59764167Y-70649441D01*
X59762724Y-70651989D01*
X59762715Y-70654751D01*
X59750381Y-70673798D01*
X59731540Y-70707092D01*
X59657287Y-70781345D01*
X59565187Y-70930663D01*
X59565186Y-70930666D01*
X59510001Y-71097203D01*
X59510001Y-71097204D01*
X59510000Y-71097204D01*
X59499500Y-71199983D01*
X59499500Y-72800001D01*
X59499501Y-72800018D01*
X59510000Y-72902796D01*
X59510001Y-72902799D01*
X59545401Y-73009628D01*
X59565186Y-73069334D01*
X59657288Y-73218656D01*
X59781344Y-73342712D01*
X59930666Y-73434814D01*
X60097203Y-73489999D01*
X60199991Y-73500500D01*
X60800008Y-73500499D01*
X60800016Y-73500498D01*
X60800019Y-73500498D01*
X60856302Y-73494748D01*
X60902797Y-73489999D01*
X61069334Y-73434814D01*
X61218656Y-73342712D01*
X61342712Y-73218656D01*
X61434814Y-73069334D01*
X61435562Y-73067075D01*
X61436497Y-73065724D01*
X61437869Y-73062784D01*
X61438371Y-73063018D01*
X61475331Y-73009628D01*
X61539844Y-72982800D01*
X61592276Y-72988366D01*
X61597203Y-72989999D01*
X61699991Y-73000500D01*
X62300008Y-73000499D01*
X62300016Y-73000498D01*
X62300019Y-73000498D01*
X62356302Y-72994748D01*
X62402797Y-72989999D01*
X62569334Y-72934814D01*
X62650582Y-72884699D01*
X62717974Y-72866259D01*
X62784638Y-72887181D01*
X62818781Y-72921347D01*
X62878210Y-73010288D01*
X62878213Y-73010292D01*
X62989707Y-73121786D01*
X62989711Y-73121789D01*
X63120814Y-73209390D01*
X63120827Y-73209397D01*
X63266498Y-73269735D01*
X63266503Y-73269737D01*
X63329463Y-73282260D01*
X63391371Y-73314644D01*
X63425946Y-73375359D01*
X63422207Y-73445129D01*
X63381341Y-73501801D01*
X63325677Y-73526186D01*
X61643784Y-73806811D01*
X61643752Y-73806817D01*
X59803046Y-74149477D01*
X59537457Y-74204078D01*
X58956781Y-74323456D01*
X58956764Y-74323460D01*
X58950606Y-74324726D01*
X58950603Y-74324726D01*
X58903937Y-74334320D01*
X58891099Y-74336960D01*
X58880956Y-74338610D01*
X58722173Y-74357734D01*
X58701648Y-74358493D01*
X58547039Y-74351382D01*
X58526672Y-74348743D01*
X58375356Y-74316210D01*
X58355702Y-74310244D01*
X58211837Y-74253182D01*
X58193439Y-74244055D01*
X58060964Y-74164029D01*
X58044332Y-74151997D01*
X57926864Y-74051185D01*
X57912456Y-74036580D01*
X57813247Y-73917770D01*
X57801443Y-73900984D01*
X57720585Y-73762953D01*
X57715782Y-73753914D01*
X57689516Y-73699121D01*
X57689515Y-73699119D01*
X55193000Y-68491169D01*
X55137432Y-68375250D01*
X55132968Y-68364718D01*
X55095230Y-68262829D01*
X55089302Y-68240762D01*
X55086249Y-68222989D01*
X55071877Y-68139332D01*
X55070101Y-68116562D01*
X55071587Y-68013666D01*
X55074021Y-67990946D01*
X55082596Y-67948429D01*
X55094366Y-67890068D01*
X55100927Y-67868187D01*
X55141600Y-67767405D01*
X55146351Y-67757040D01*
X55416757Y-67232399D01*
X55930107Y-66156738D01*
X56410302Y-65065872D01*
X56856894Y-63960823D01*
X57269464Y-62842627D01*
X57647626Y-61712331D01*
X57991026Y-60570993D01*
X57999155Y-60540640D01*
X58299336Y-59419701D01*
X58299336Y-59419698D01*
X58299341Y-59419682D01*
X58572284Y-58259475D01*
X58809599Y-57091461D01*
X59011063Y-55916732D01*
X59176488Y-54736388D01*
X59305719Y-53551536D01*
X59351760Y-52962573D01*
X59352999Y-52952293D01*
X59379023Y-52793098D01*
X59384092Y-52772919D01*
X59414708Y-52683550D01*
X59434662Y-52625301D01*
X59443032Y-52606256D01*
X59517579Y-52469164D01*
X59529014Y-52451786D01*
X59625440Y-52329085D01*
X59639611Y-52313875D01*
X59755203Y-52209018D01*
X59771712Y-52196397D01*
X59903215Y-52112342D01*
X59921611Y-52102656D01*
X60065303Y-52041781D01*
X60085068Y-52035302D01*
X60236919Y-51999312D01*
X60257477Y-51996232D01*
X60417807Y-51985842D01*
X60429436Y-51985636D01*
X62239765Y-52038617D01*
G37*
%TD.AperFunction*%
%TA.AperFunction,Conductor*%
G36*
X75112617Y-64509445D02*
G01*
X75143511Y-64516746D01*
X75145895Y-64519217D01*
X75149191Y-64520185D01*
X75169980Y-64544177D01*
X75192027Y-64567025D01*
X75193571Y-64571402D01*
X75194946Y-64572989D01*
X75203769Y-64600308D01*
X75230261Y-64733491D01*
X75230264Y-64733501D01*
X75290602Y-64879172D01*
X75290609Y-64879185D01*
X75378210Y-65010288D01*
X75378213Y-65010292D01*
X75489707Y-65121786D01*
X75489711Y-65121789D01*
X75620814Y-65209390D01*
X75620827Y-65209397D01*
X75766498Y-65269735D01*
X75766503Y-65269737D01*
X75871941Y-65290710D01*
X75921153Y-65300499D01*
X75921156Y-65300500D01*
X75921158Y-65300500D01*
X76078844Y-65300500D01*
X76078845Y-65300499D01*
X76233497Y-65269737D01*
X76379179Y-65209394D01*
X76436044Y-65171397D01*
X76502721Y-65150520D01*
X76504935Y-65150500D01*
X77483310Y-65150500D01*
X77583007Y-65130668D01*
X77608983Y-65125501D01*
X77727366Y-65076465D01*
X77745918Y-65064069D01*
X77833908Y-65005277D01*
X78265874Y-64573309D01*
X78327193Y-64539827D01*
X78396885Y-64544811D01*
X78441233Y-64573312D01*
X78489707Y-64621786D01*
X78489711Y-64621789D01*
X78620814Y-64709390D01*
X78620827Y-64709397D01*
X78756624Y-64765645D01*
X78766503Y-64769737D01*
X78921153Y-64800499D01*
X78921156Y-64800500D01*
X78921158Y-64800500D01*
X79078844Y-64800500D01*
X79078845Y-64800499D01*
X79233497Y-64769737D01*
X79379179Y-64709394D01*
X79436044Y-64671397D01*
X79502721Y-64650520D01*
X79504935Y-64650500D01*
X84679192Y-64650500D01*
X84746231Y-64670185D01*
X84766873Y-64686819D01*
X86717873Y-66637819D01*
X86751358Y-66699142D01*
X86746374Y-66768834D01*
X86704502Y-66824767D01*
X86639038Y-66849184D01*
X86630192Y-66849500D01*
X84417848Y-66849500D01*
X84350809Y-66829815D01*
X84305054Y-66777011D01*
X84296231Y-66749692D01*
X84269738Y-66616508D01*
X84269737Y-66616507D01*
X84269737Y-66616503D01*
X84269735Y-66616498D01*
X84209397Y-66470827D01*
X84209390Y-66470814D01*
X84121789Y-66339711D01*
X84121786Y-66339707D01*
X84010292Y-66228213D01*
X84010288Y-66228210D01*
X83879185Y-66140609D01*
X83879172Y-66140602D01*
X83733501Y-66080264D01*
X83733489Y-66080261D01*
X83578845Y-66049500D01*
X83578842Y-66049500D01*
X83421158Y-66049500D01*
X83421155Y-66049500D01*
X83266510Y-66080261D01*
X83266498Y-66080264D01*
X83120827Y-66140602D01*
X83120820Y-66140606D01*
X83096684Y-66156734D01*
X83063955Y-66178602D01*
X82997279Y-66199480D01*
X82995065Y-66199500D01*
X78085929Y-66199500D01*
X77960261Y-66224497D01*
X77960255Y-66224499D01*
X77862469Y-66265004D01*
X77841877Y-66273533D01*
X77841869Y-66273537D01*
X77735329Y-66344724D01*
X77735328Y-66344725D01*
X77397068Y-66682984D01*
X77335745Y-66716469D01*
X77333579Y-66716920D01*
X77266508Y-66730261D01*
X77266498Y-66730264D01*
X77120827Y-66790602D01*
X77120814Y-66790609D01*
X76989711Y-66878210D01*
X76989707Y-66878213D01*
X76878213Y-66989707D01*
X76878210Y-66989711D01*
X76790609Y-67120814D01*
X76790602Y-67120827D01*
X76730264Y-67266498D01*
X76730261Y-67266510D01*
X76699500Y-67421153D01*
X76699500Y-67578846D01*
X76730261Y-67733489D01*
X76730264Y-67733501D01*
X76790602Y-67879172D01*
X76790609Y-67879185D01*
X76878210Y-68010288D01*
X76878213Y-68010292D01*
X76989707Y-68121786D01*
X76989711Y-68121789D01*
X77120814Y-68209390D01*
X77120827Y-68209397D01*
X77223848Y-68252069D01*
X77266503Y-68269737D01*
X77379165Y-68292147D01*
X77421153Y-68300499D01*
X77421156Y-68300500D01*
X77421158Y-68300500D01*
X77578844Y-68300500D01*
X77578845Y-68300499D01*
X77733497Y-68269737D01*
X77879179Y-68209394D01*
X78010289Y-68121789D01*
X78047331Y-68084747D01*
X78108653Y-68051261D01*
X78178345Y-68056245D01*
X78234279Y-68098115D01*
X78258697Y-68163579D01*
X78249575Y-68219878D01*
X78230263Y-68266502D01*
X78230261Y-68266510D01*
X78199500Y-68421153D01*
X78199500Y-68578846D01*
X78230261Y-68733489D01*
X78230264Y-68733501D01*
X78290602Y-68879172D01*
X78290609Y-68879185D01*
X78378210Y-69010288D01*
X78378213Y-69010292D01*
X78489707Y-69121786D01*
X78489711Y-69121789D01*
X78620814Y-69209390D01*
X78620818Y-69209392D01*
X78620821Y-69209394D01*
X78656873Y-69224327D01*
X78711276Y-69268165D01*
X78733343Y-69334459D01*
X78716065Y-69402159D01*
X78664929Y-69449771D01*
X78628821Y-69461361D01*
X78493759Y-69482753D01*
X78291585Y-69548444D01*
X78102179Y-69644951D01*
X77930213Y-69769890D01*
X77779890Y-69920213D01*
X77654949Y-70092182D01*
X77650484Y-70100946D01*
X77602509Y-70151742D01*
X77534688Y-70168536D01*
X77468553Y-70145998D01*
X77429516Y-70100946D01*
X77425050Y-70092182D01*
X77300109Y-69920213D01*
X77149786Y-69769890D01*
X76977820Y-69644951D01*
X76788414Y-69548444D01*
X76788413Y-69548443D01*
X76788412Y-69548443D01*
X76586243Y-69482754D01*
X76586241Y-69482753D01*
X76586240Y-69482753D01*
X76424957Y-69457208D01*
X76376287Y-69449500D01*
X76163713Y-69449500D01*
X76115042Y-69457208D01*
X75953760Y-69482753D01*
X75751585Y-69548444D01*
X75562179Y-69644951D01*
X75390213Y-69769890D01*
X75239890Y-69920213D01*
X75114949Y-70092182D01*
X75110484Y-70100946D01*
X75062509Y-70151742D01*
X74994688Y-70168536D01*
X74928553Y-70145998D01*
X74889516Y-70100946D01*
X74885050Y-70092182D01*
X74760109Y-69920213D01*
X74609786Y-69769890D01*
X74437820Y-69644951D01*
X74248414Y-69548444D01*
X74248413Y-69548443D01*
X74248412Y-69548443D01*
X74046243Y-69482754D01*
X74046241Y-69482753D01*
X74046240Y-69482753D01*
X73884957Y-69457208D01*
X73836287Y-69449500D01*
X73623713Y-69449500D01*
X73575042Y-69457208D01*
X73413760Y-69482753D01*
X73211585Y-69548444D01*
X73022179Y-69644951D01*
X72850213Y-69769890D01*
X72699890Y-69920213D01*
X72574951Y-70092179D01*
X72478444Y-70281585D01*
X72412753Y-70483760D01*
X72391623Y-70617170D01*
X72379500Y-70693713D01*
X72379500Y-70906287D01*
X72389534Y-70969644D01*
X72406453Y-71076465D01*
X72412754Y-71116243D01*
X72476154Y-71311368D01*
X72478444Y-71318414D01*
X72574951Y-71507820D01*
X72699890Y-71679786D01*
X72850213Y-71830109D01*
X73022179Y-71955048D01*
X73022181Y-71955049D01*
X73022184Y-71955051D01*
X73211588Y-72051557D01*
X73413757Y-72117246D01*
X73623713Y-72150500D01*
X73623714Y-72150500D01*
X73836286Y-72150500D01*
X73836287Y-72150500D01*
X74046243Y-72117246D01*
X74248412Y-72051557D01*
X74437816Y-71955051D01*
X74509738Y-71902797D01*
X74609786Y-71830109D01*
X74609788Y-71830106D01*
X74609792Y-71830104D01*
X74760104Y-71679792D01*
X74760106Y-71679788D01*
X74760109Y-71679786D01*
X74885048Y-71507820D01*
X74885047Y-71507820D01*
X74885051Y-71507816D01*
X74889514Y-71499054D01*
X74937488Y-71448259D01*
X75005308Y-71431463D01*
X75071444Y-71453999D01*
X75110484Y-71499054D01*
X75114591Y-71507115D01*
X75114951Y-71507820D01*
X75239890Y-71679786D01*
X75390213Y-71830109D01*
X75562179Y-71955048D01*
X75562181Y-71955049D01*
X75562184Y-71955051D01*
X75751588Y-72051557D01*
X75891886Y-72097142D01*
X75949561Y-72136579D01*
X75976759Y-72200938D01*
X75964844Y-72269784D01*
X75917600Y-72321260D01*
X75857816Y-72339000D01*
X74662917Y-72379967D01*
X73030956Y-72466531D01*
X72793205Y-72479142D01*
X72793202Y-72479142D01*
X72793187Y-72479143D01*
X70925691Y-72613302D01*
X69061030Y-72782400D01*
X67199802Y-72986384D01*
X65342825Y-73225162D01*
X63979099Y-73426536D01*
X63909903Y-73416856D01*
X63856925Y-73371302D01*
X63836986Y-73304338D01*
X63856415Y-73237224D01*
X63892092Y-73200765D01*
X64010289Y-73121789D01*
X64121789Y-73010289D01*
X64209394Y-72879179D01*
X64269737Y-72733497D01*
X64300500Y-72578842D01*
X64300500Y-72421158D01*
X64300500Y-72421155D01*
X64300499Y-72421153D01*
X64292307Y-72379968D01*
X64269737Y-72266503D01*
X64209394Y-72120821D01*
X64171396Y-72063953D01*
X64150520Y-71997276D01*
X64150500Y-71995064D01*
X64150500Y-71624499D01*
X64170185Y-71557460D01*
X64222989Y-71511705D01*
X64274495Y-71500499D01*
X64800008Y-71500499D01*
X64800016Y-71500498D01*
X64800019Y-71500498D01*
X64856302Y-71494748D01*
X64902797Y-71489999D01*
X65069334Y-71434814D01*
X65184905Y-71363529D01*
X65252296Y-71345090D01*
X65315094Y-71363529D01*
X65430666Y-71434814D01*
X65597203Y-71489999D01*
X65699991Y-71500500D01*
X66300008Y-71500499D01*
X66300016Y-71500498D01*
X66300019Y-71500498D01*
X66356302Y-71494748D01*
X66402797Y-71489999D01*
X66569334Y-71434814D01*
X66718656Y-71342712D01*
X66842712Y-71218656D01*
X66934814Y-71069334D01*
X66989999Y-70902797D01*
X67000500Y-70800009D01*
X67000499Y-69424499D01*
X67020184Y-69357461D01*
X67072987Y-69311706D01*
X67124499Y-69300500D01*
X69078844Y-69300500D01*
X69078845Y-69300499D01*
X69233497Y-69269737D01*
X69379179Y-69209394D01*
X69510289Y-69121789D01*
X69621789Y-69010289D01*
X69709394Y-68879179D01*
X69769737Y-68733497D01*
X69800500Y-68578842D01*
X69800500Y-68421158D01*
X69800500Y-68421155D01*
X69800499Y-68421153D01*
X69793009Y-68383497D01*
X69769737Y-68266503D01*
X69751713Y-68222989D01*
X69709397Y-68120827D01*
X69709390Y-68120814D01*
X69621789Y-67989711D01*
X69621786Y-67989707D01*
X69510292Y-67878213D01*
X69510288Y-67878210D01*
X69379185Y-67790609D01*
X69379172Y-67790602D01*
X69233501Y-67730264D01*
X69233489Y-67730261D01*
X69078845Y-67699500D01*
X69078842Y-67699500D01*
X68921158Y-67699500D01*
X68921155Y-67699500D01*
X68766510Y-67730261D01*
X68766498Y-67730264D01*
X68620827Y-67790602D01*
X68620814Y-67790609D01*
X68489712Y-67878209D01*
X68466040Y-67901882D01*
X68404739Y-67963182D01*
X68343419Y-67996666D01*
X68317060Y-67999500D01*
X67802190Y-67999500D01*
X67735151Y-67979815D01*
X67689396Y-67927011D01*
X67679452Y-67857853D01*
X67708477Y-67794297D01*
X67754738Y-67760939D01*
X67879172Y-67709397D01*
X67879172Y-67709396D01*
X67879179Y-67709394D01*
X68010289Y-67621789D01*
X68121789Y-67510289D01*
X68209394Y-67379179D01*
X68269737Y-67233497D01*
X68283079Y-67166416D01*
X68315463Y-67104509D01*
X68316959Y-67102985D01*
X70883127Y-64536819D01*
X70944450Y-64503334D01*
X70970808Y-64500500D01*
X75082152Y-64500500D01*
X75112617Y-64509445D01*
G37*
%TD.AperFunction*%
%TA.AperFunction,Conductor*%
G36*
X82577404Y-70170185D02*
G01*
X82623159Y-70222989D01*
X82633103Y-70292147D01*
X82628296Y-70312814D01*
X82599060Y-70402796D01*
X82572753Y-70483760D01*
X82551623Y-70617170D01*
X82539500Y-70693713D01*
X82539500Y-70906287D01*
X82549534Y-70969644D01*
X82566453Y-71076465D01*
X82572754Y-71116243D01*
X82636154Y-71311368D01*
X82638444Y-71318414D01*
X82734951Y-71507820D01*
X82859890Y-71679786D01*
X83010213Y-71830109D01*
X83182179Y-71955048D01*
X83182181Y-71955049D01*
X83182184Y-71955051D01*
X83371588Y-72051557D01*
X83573757Y-72117246D01*
X83783713Y-72150500D01*
X83783714Y-72150500D01*
X83996286Y-72150500D01*
X83996287Y-72150500D01*
X84206243Y-72117246D01*
X84408412Y-72051557D01*
X84597816Y-71955051D01*
X84669738Y-71902797D01*
X84769786Y-71830109D01*
X84769788Y-71830106D01*
X84769792Y-71830104D01*
X84920104Y-71679792D01*
X84920106Y-71679788D01*
X84920109Y-71679786D01*
X85045048Y-71507820D01*
X85045047Y-71507820D01*
X85045051Y-71507816D01*
X85049514Y-71499054D01*
X85097488Y-71448259D01*
X85165308Y-71431463D01*
X85231444Y-71453999D01*
X85270484Y-71499054D01*
X85274591Y-71507115D01*
X85274951Y-71507820D01*
X85399890Y-71679786D01*
X85550213Y-71830109D01*
X85722179Y-71955048D01*
X85722181Y-71955049D01*
X85722184Y-71955051D01*
X85911588Y-72051557D01*
X86113757Y-72117246D01*
X86323713Y-72150500D01*
X86323714Y-72150500D01*
X86536286Y-72150500D01*
X86536287Y-72150500D01*
X86746243Y-72117246D01*
X86948412Y-72051557D01*
X87137816Y-71955051D01*
X87209738Y-71902797D01*
X87309786Y-71830109D01*
X87309788Y-71830106D01*
X87309792Y-71830104D01*
X87460104Y-71679792D01*
X87460106Y-71679788D01*
X87460109Y-71679786D01*
X87585048Y-71507820D01*
X87585047Y-71507820D01*
X87585051Y-71507816D01*
X87681557Y-71318412D01*
X87747246Y-71116243D01*
X87780500Y-70906287D01*
X87780500Y-70693713D01*
X87762431Y-70579630D01*
X87746484Y-70478945D01*
X87748126Y-70478684D01*
X87748283Y-70475546D01*
X87744654Y-70465814D01*
X87749998Y-70441245D01*
X87751254Y-70416137D01*
X87757692Y-70405878D01*
X87759506Y-70397541D01*
X87780653Y-70369292D01*
X87863128Y-70286817D01*
X87924451Y-70253334D01*
X87950808Y-70250500D01*
X90097873Y-70250500D01*
X90164912Y-70270185D01*
X90210667Y-70322989D01*
X90220611Y-70392147D01*
X90215805Y-70412813D01*
X90208657Y-70434814D01*
X90192753Y-70483760D01*
X90171623Y-70617170D01*
X90159500Y-70693713D01*
X90159500Y-70906287D01*
X90169534Y-70969644D01*
X90186453Y-71076465D01*
X90192754Y-71116243D01*
X90256154Y-71311368D01*
X90258444Y-71318414D01*
X90354951Y-71507820D01*
X90479890Y-71679786D01*
X90630213Y-71830109D01*
X90802179Y-71955048D01*
X90802181Y-71955049D01*
X90802184Y-71955051D01*
X90991588Y-72051557D01*
X91193757Y-72117246D01*
X91403713Y-72150500D01*
X91403714Y-72150500D01*
X91616286Y-72150500D01*
X91616287Y-72150500D01*
X91797579Y-72121786D01*
X91831055Y-72116484D01*
X91831315Y-72118128D01*
X91893852Y-72121250D01*
X91940711Y-72150657D01*
X92808159Y-73018105D01*
X92841644Y-73079428D01*
X92836660Y-73149120D01*
X92794788Y-73205053D01*
X92729324Y-73229470D01*
X92703884Y-73228671D01*
X91480284Y-73063434D01*
X89620441Y-72847648D01*
X87756832Y-72666713D01*
X85890280Y-72520708D01*
X84021214Y-72409665D01*
X82150401Y-72333635D01*
X80278546Y-72292643D01*
X79376284Y-72289780D01*
X79309308Y-72269883D01*
X79263721Y-72216934D01*
X79253997Y-72147745D01*
X79283223Y-72084281D01*
X79324503Y-72054617D01*
X79324071Y-72053769D01*
X79409399Y-72010292D01*
X79517816Y-71955051D01*
X79589738Y-71902797D01*
X79689786Y-71830109D01*
X79689788Y-71830106D01*
X79689792Y-71830104D01*
X79840104Y-71679792D01*
X79840106Y-71679788D01*
X79840109Y-71679786D01*
X79965048Y-71507820D01*
X79965047Y-71507820D01*
X79965051Y-71507816D01*
X80061557Y-71318412D01*
X80127246Y-71116243D01*
X80160500Y-70906287D01*
X80160500Y-70693713D01*
X80127246Y-70483757D01*
X80071703Y-70312817D01*
X80069709Y-70242977D01*
X80105789Y-70183144D01*
X80168490Y-70152316D01*
X80189635Y-70150500D01*
X82510365Y-70150500D01*
X82577404Y-70170185D01*
G37*
%TD.AperFunction*%
%TA.AperFunction,Conductor*%
G36*
X77611444Y-71453999D02*
G01*
X77650484Y-71499054D01*
X77654591Y-71507115D01*
X77654951Y-71507820D01*
X77779890Y-71679786D01*
X77930213Y-71830109D01*
X78102179Y-71955048D01*
X78102181Y-71955049D01*
X78102184Y-71955051D01*
X78210593Y-72010288D01*
X78295929Y-72053769D01*
X78295161Y-72055274D01*
X78343856Y-72094496D01*
X78365936Y-72160785D01*
X78348673Y-72228488D01*
X78297547Y-72276111D01*
X78243944Y-72289225D01*
X76771249Y-72312125D01*
X76703912Y-72293485D01*
X76657341Y-72241399D01*
X76646324Y-72172403D01*
X76674357Y-72108404D01*
X76730999Y-72070211D01*
X76788412Y-72051557D01*
X76977816Y-71955051D01*
X77049738Y-71902797D01*
X77149786Y-71830109D01*
X77149788Y-71830106D01*
X77149792Y-71830104D01*
X77300104Y-71679792D01*
X77300106Y-71679788D01*
X77300109Y-71679786D01*
X77425048Y-71507820D01*
X77425047Y-71507820D01*
X77425051Y-71507816D01*
X77429514Y-71499054D01*
X77477488Y-71448259D01*
X77545308Y-71431463D01*
X77611444Y-71453999D01*
G37*
%TD.AperFunction*%
%TA.AperFunction,Conductor*%
G36*
X81442377Y-58591629D02*
G01*
X81484696Y-58618295D01*
X81485001Y-58617924D01*
X81487957Y-58620350D01*
X81488806Y-58620885D01*
X81489707Y-58621786D01*
X81489711Y-58621789D01*
X81620814Y-58709390D01*
X81620827Y-58709397D01*
X81766498Y-58769735D01*
X81766503Y-58769737D01*
X81879326Y-58792179D01*
X81921153Y-58800499D01*
X81921156Y-58800500D01*
X82075500Y-58800500D01*
X82142539Y-58820185D01*
X82188294Y-58872989D01*
X82199500Y-58924500D01*
X82199500Y-59078846D01*
X82230261Y-59233489D01*
X82230264Y-59233501D01*
X82290602Y-59379172D01*
X82290609Y-59379185D01*
X82378210Y-59510288D01*
X82378213Y-59510292D01*
X82489707Y-59621786D01*
X82489711Y-59621789D01*
X82620814Y-59709390D01*
X82620827Y-59709397D01*
X82766498Y-59769735D01*
X82766503Y-59769737D01*
X82921153Y-59800499D01*
X82921156Y-59800500D01*
X82921158Y-59800500D01*
X83078844Y-59800500D01*
X83078845Y-59800499D01*
X83233497Y-59769737D01*
X83379179Y-59709394D01*
X83510289Y-59621789D01*
X83621789Y-59510289D01*
X83709394Y-59379179D01*
X83769737Y-59233497D01*
X83769740Y-59233478D01*
X83770311Y-59231600D01*
X83770886Y-59230722D01*
X83772068Y-59227869D01*
X83772609Y-59228093D01*
X83808606Y-59173160D01*
X83872416Y-59144699D01*
X83913166Y-59145972D01*
X83935929Y-59150500D01*
X83935931Y-59150500D01*
X84679192Y-59150500D01*
X84746231Y-59170185D01*
X84766873Y-59186819D01*
X87585325Y-62005272D01*
X87585326Y-62005273D01*
X87585329Y-62005275D01*
X87585331Y-62005277D01*
X87681201Y-62069334D01*
X87681200Y-62069334D01*
X87681202Y-62069335D01*
X87691873Y-62076465D01*
X87691874Y-62076465D01*
X87691875Y-62076466D01*
X87700243Y-62079932D01*
X87810256Y-62125501D01*
X87810260Y-62125501D01*
X87810261Y-62125502D01*
X87935928Y-62150500D01*
X87935931Y-62150500D01*
X88064069Y-62150500D01*
X90259952Y-62150500D01*
X90326991Y-62170185D01*
X90347633Y-62186819D01*
X90648634Y-62487819D01*
X90682119Y-62549142D01*
X90677135Y-62618833D01*
X90635264Y-62674767D01*
X90569799Y-62699184D01*
X90560953Y-62699500D01*
X90421155Y-62699500D01*
X90266510Y-62730261D01*
X90266498Y-62730264D01*
X90120827Y-62790602D01*
X90120814Y-62790609D01*
X89989711Y-62878210D01*
X89989707Y-62878213D01*
X89878213Y-62989707D01*
X89878210Y-62989711D01*
X89790609Y-63120814D01*
X89790602Y-63120827D01*
X89730264Y-63266498D01*
X89730261Y-63266510D01*
X89699500Y-63421153D01*
X89699500Y-63578846D01*
X89730261Y-63733489D01*
X89730264Y-63733501D01*
X89790602Y-63879172D01*
X89790609Y-63879185D01*
X89878210Y-64010288D01*
X89878213Y-64010292D01*
X89989707Y-64121786D01*
X89989711Y-64121789D01*
X90120814Y-64209390D01*
X90120827Y-64209397D01*
X90245262Y-64260939D01*
X90299666Y-64304779D01*
X90321731Y-64371074D01*
X90304452Y-64438773D01*
X90253315Y-64486384D01*
X90197810Y-64499500D01*
X87928823Y-64499500D01*
X87853836Y-64514416D01*
X87803169Y-64524494D01*
X87803164Y-64524495D01*
X87803156Y-64524497D01*
X87803152Y-64524498D01*
X87803150Y-64524498D01*
X87803145Y-64524500D01*
X87801164Y-64525232D01*
X87799085Y-64526182D01*
X87765582Y-64540060D01*
X87718127Y-64549500D01*
X87666690Y-64549500D01*
X87545877Y-64573532D01*
X87545875Y-64573532D01*
X87545050Y-64573696D01*
X87541017Y-64574498D01*
X87422634Y-64623534D01*
X87404110Y-64635912D01*
X87337432Y-64656788D01*
X87270052Y-64638302D01*
X87247541Y-64620489D01*
X84861958Y-62234905D01*
X84861957Y-62234904D01*
X84809707Y-62199992D01*
X84755411Y-62163713D01*
X84637028Y-62114677D01*
X84637022Y-62114675D01*
X84511355Y-62089678D01*
X84511353Y-62089678D01*
X84046554Y-62089678D01*
X84033952Y-62086701D01*
X84024566Y-62087713D01*
X84005289Y-62079932D01*
X83991076Y-62076575D01*
X83984124Y-62073097D01*
X83920798Y-62030784D01*
X83797239Y-61979604D01*
X83793288Y-61977628D01*
X83770810Y-61956711D01*
X83746910Y-61937451D01*
X83745472Y-61933132D01*
X83742139Y-61930030D01*
X83734538Y-61900282D01*
X83724845Y-61871157D01*
X83725777Y-61865988D01*
X83724844Y-61862335D01*
X83728325Y-61851866D01*
X83734204Y-61819280D01*
X83769737Y-61733497D01*
X83800500Y-61578842D01*
X83800500Y-61421158D01*
X83800500Y-61421155D01*
X83800499Y-61421153D01*
X83788778Y-61362229D01*
X83769737Y-61266503D01*
X83769735Y-61266498D01*
X83709397Y-61120827D01*
X83709390Y-61120814D01*
X83621789Y-60989711D01*
X83621786Y-60989707D01*
X83510292Y-60878213D01*
X83510288Y-60878210D01*
X83379185Y-60790609D01*
X83379172Y-60790602D01*
X83233501Y-60730264D01*
X83233489Y-60730261D01*
X83078845Y-60699500D01*
X83078842Y-60699500D01*
X82921158Y-60699500D01*
X82921155Y-60699500D01*
X82766510Y-60730261D01*
X82766498Y-60730264D01*
X82620827Y-60790602D01*
X82620814Y-60790609D01*
X82489711Y-60878210D01*
X82489707Y-60878213D01*
X82378213Y-60989707D01*
X82378210Y-60989711D01*
X82290609Y-61120814D01*
X82290602Y-61120827D01*
X82230264Y-61266498D01*
X82230261Y-61266508D01*
X82216920Y-61333579D01*
X82184535Y-61395490D01*
X82182984Y-61397068D01*
X81736332Y-61843720D01*
X81713383Y-61856250D01*
X81692521Y-61872019D01*
X81683207Y-61872728D01*
X81675009Y-61877205D01*
X81648927Y-61875339D01*
X81622853Y-61877326D01*
X81614634Y-61872887D01*
X81605317Y-61872221D01*
X81584385Y-61856551D01*
X81561376Y-61844125D01*
X81556860Y-61835946D01*
X81549384Y-61830349D01*
X81540246Y-61805850D01*
X81527608Y-61782957D01*
X81527480Y-61771624D01*
X81524967Y-61764885D01*
X81524927Y-61747765D01*
X81525463Y-61739745D01*
X81538038Y-61676531D01*
X81538038Y-61551717D01*
X81538314Y-61547590D01*
X81549003Y-61518521D01*
X81557723Y-61488825D01*
X81558904Y-61487019D01*
X81596932Y-61430108D01*
X81657275Y-61284426D01*
X81688038Y-61129771D01*
X81688038Y-60972087D01*
X81688038Y-60972084D01*
X81688037Y-60972082D01*
X81669365Y-60878211D01*
X81657275Y-60817432D01*
X81646164Y-60790608D01*
X81596935Y-60671756D01*
X81596928Y-60671743D01*
X81509327Y-60540640D01*
X81509324Y-60540636D01*
X81397830Y-60429142D01*
X81397826Y-60429139D01*
X81266723Y-60341538D01*
X81266710Y-60341531D01*
X81121039Y-60281193D01*
X81121027Y-60281190D01*
X80966383Y-60250429D01*
X80966380Y-60250429D01*
X80808696Y-60250429D01*
X80808693Y-60250429D01*
X80654048Y-60281190D01*
X80654036Y-60281193D01*
X80508365Y-60341531D01*
X80508352Y-60341538D01*
X80377249Y-60429139D01*
X80377245Y-60429142D01*
X80265751Y-60540636D01*
X80265748Y-60540640D01*
X80178147Y-60671743D01*
X80178140Y-60671756D01*
X80117802Y-60817427D01*
X80117799Y-60817439D01*
X80087038Y-60972082D01*
X80087038Y-61129775D01*
X80117799Y-61284418D01*
X80117801Y-61284426D01*
X80138178Y-61333620D01*
X80145647Y-61403090D01*
X80114372Y-61465569D01*
X80111298Y-61468754D01*
X79416873Y-62163181D01*
X79355550Y-62196666D01*
X79329192Y-62199500D01*
X78870736Y-62199500D01*
X78849490Y-62193261D01*
X78827403Y-62191682D01*
X78816619Y-62183609D01*
X78803697Y-62179815D01*
X78789198Y-62163083D01*
X78771469Y-62149811D01*
X78766761Y-62137188D01*
X78757942Y-62127011D01*
X78754790Y-62105094D01*
X78747052Y-62084346D01*
X78749914Y-62071185D01*
X78747998Y-62057853D01*
X78757197Y-62037709D01*
X78761904Y-62016073D01*
X78775173Y-61998345D01*
X78777023Y-61994297D01*
X78783034Y-61987839D01*
X78935779Y-61835094D01*
X78975999Y-61808220D01*
X79091638Y-61760323D01*
X79222748Y-61672718D01*
X79334248Y-61561218D01*
X79421853Y-61430108D01*
X79482196Y-61284426D01*
X79512959Y-61129771D01*
X79512959Y-60972087D01*
X79512959Y-60972084D01*
X79512958Y-60972082D01*
X79494286Y-60878211D01*
X79482196Y-60817432D01*
X79471085Y-60790608D01*
X79421856Y-60671756D01*
X79421849Y-60671743D01*
X79334248Y-60540640D01*
X79334245Y-60540636D01*
X79222751Y-60429142D01*
X79222747Y-60429139D01*
X79091644Y-60341538D01*
X79091631Y-60341531D01*
X78945960Y-60281193D01*
X78945948Y-60281190D01*
X78791304Y-60250429D01*
X78791301Y-60250429D01*
X78633617Y-60250429D01*
X78633614Y-60250429D01*
X78478969Y-60281190D01*
X78478959Y-60281193D01*
X78474118Y-60283198D01*
X78404648Y-60290661D01*
X78342171Y-60259382D01*
X78306523Y-60199290D01*
X78309023Y-60129465D01*
X78338991Y-60080954D01*
X78583127Y-59836819D01*
X78644450Y-59803334D01*
X78670808Y-59800500D01*
X79914071Y-59800500D01*
X80010380Y-59781342D01*
X80039744Y-59775501D01*
X80158127Y-59726465D01*
X80183676Y-59709394D01*
X80264669Y-59655277D01*
X80602932Y-59317012D01*
X80664251Y-59283530D01*
X80666316Y-59283099D01*
X80733497Y-59269737D01*
X80879179Y-59209394D01*
X81010289Y-59121789D01*
X81121789Y-59010289D01*
X81209394Y-58879179D01*
X81269737Y-58733497D01*
X81279508Y-58684373D01*
X81311892Y-58622464D01*
X81372607Y-58587890D01*
X81442377Y-58591629D01*
G37*
%TD.AperFunction*%
%TA.AperFunction,Conductor*%
G36*
X92908377Y-63328324D02*
G01*
X93367872Y-63787819D01*
X93401357Y-63849142D01*
X93396373Y-63918834D01*
X93354501Y-63974767D01*
X93289037Y-63999184D01*
X93280191Y-63999500D01*
X93120808Y-63999500D01*
X93053769Y-63979815D01*
X93033127Y-63963181D01*
X92817015Y-63747069D01*
X92783530Y-63685746D01*
X92783093Y-63683652D01*
X92769737Y-63616503D01*
X92725623Y-63510001D01*
X92707063Y-63465192D01*
X92709228Y-63464295D01*
X92697093Y-63406090D01*
X92722075Y-63340839D01*
X92778369Y-63299453D01*
X92848101Y-63295071D01*
X92908377Y-63328324D01*
G37*
%TD.AperFunction*%
%TA.AperFunction,Conductor*%
G36*
X81083040Y-54771533D02*
G01*
X81710301Y-54930728D01*
X81977924Y-54998649D01*
X81980314Y-54999281D01*
X82960387Y-55268920D01*
X82964705Y-55271592D01*
X82976817Y-55273441D01*
X83319705Y-55367777D01*
X83601387Y-55445274D01*
X83730883Y-55480901D01*
X83733250Y-55481578D01*
X84325490Y-55657288D01*
X85473815Y-55997981D01*
X85476177Y-55998707D01*
X87206226Y-56549743D01*
X87208464Y-56550480D01*
X88927158Y-57135885D01*
X88929422Y-57136681D01*
X90636172Y-57756253D01*
X90638362Y-57757073D01*
X92332366Y-58410523D01*
X92334572Y-58411399D01*
X94015298Y-59098521D01*
X94017449Y-59099426D01*
X95684049Y-59819873D01*
X95686236Y-59820844D01*
X97241102Y-60530105D01*
X97338119Y-60574360D01*
X97340352Y-60575405D01*
X97616019Y-60707853D01*
X98976895Y-61361703D01*
X98979112Y-61362796D01*
X99287332Y-61518521D01*
X100599634Y-62181549D01*
X100601782Y-62182662D01*
X100758796Y-62265961D01*
X100808792Y-62314768D01*
X100824465Y-62382857D01*
X100800837Y-62448611D01*
X100745411Y-62491152D01*
X100700683Y-62499500D01*
X100199998Y-62499500D01*
X100199980Y-62499501D01*
X100097203Y-62510000D01*
X100097200Y-62510001D01*
X99930668Y-62565185D01*
X99930663Y-62565187D01*
X99781342Y-62657289D01*
X99657289Y-62781342D01*
X99565187Y-62930663D01*
X99565185Y-62930668D01*
X99537349Y-63014670D01*
X99510001Y-63097203D01*
X99510001Y-63097204D01*
X99510000Y-63097204D01*
X99499500Y-63199983D01*
X99499500Y-63654865D01*
X99479815Y-63721904D01*
X99427011Y-63767659D01*
X99357853Y-63777603D01*
X99328048Y-63769427D01*
X99318630Y-63765526D01*
X99233497Y-63730263D01*
X99233496Y-63730262D01*
X99233492Y-63730261D01*
X99100307Y-63703769D01*
X99038396Y-63671384D01*
X99003822Y-63610668D01*
X99000499Y-63582159D01*
X99000499Y-62199992D01*
X98999811Y-62193261D01*
X98989999Y-62097203D01*
X98989998Y-62097200D01*
X98984276Y-62079932D01*
X98934814Y-61930666D01*
X98842712Y-61781344D01*
X98718656Y-61657288D01*
X98591481Y-61578846D01*
X98569336Y-61565187D01*
X98569331Y-61565185D01*
X98555226Y-61560511D01*
X98402797Y-61510001D01*
X98402795Y-61510000D01*
X98300010Y-61499500D01*
X97699998Y-61499500D01*
X97699980Y-61499501D01*
X97597203Y-61510000D01*
X97597200Y-61510001D01*
X97430668Y-61565185D01*
X97430663Y-61565187D01*
X97281342Y-61657289D01*
X97157289Y-61781342D01*
X97065187Y-61930663D01*
X97065185Y-61930668D01*
X97042759Y-61998345D01*
X97010001Y-62097203D01*
X97010001Y-62097204D01*
X97010000Y-62097204D01*
X96999500Y-62199983D01*
X96999500Y-63800001D01*
X96999501Y-63800019D01*
X97005925Y-63862899D01*
X96993155Y-63931592D01*
X96945274Y-63982476D01*
X96882567Y-63999500D01*
X95260759Y-63999500D01*
X95193720Y-63979815D01*
X95147965Y-63927011D01*
X95138021Y-63857853D01*
X95157657Y-63806609D01*
X95206506Y-63733501D01*
X95209394Y-63729179D01*
X95269737Y-63583497D01*
X95300500Y-63428842D01*
X95300500Y-63271158D01*
X95300500Y-63271155D01*
X95300499Y-63271153D01*
X95277715Y-63156610D01*
X95269737Y-63116503D01*
X95261743Y-63097203D01*
X95207063Y-62965192D01*
X95209230Y-62964294D01*
X95197105Y-62906087D01*
X95222098Y-62840840D01*
X95233011Y-62828356D01*
X95342712Y-62718656D01*
X95434814Y-62569334D01*
X95489999Y-62402797D01*
X95500500Y-62300009D01*
X95500499Y-60699992D01*
X95499563Y-60690833D01*
X95489999Y-60597203D01*
X95489998Y-60597200D01*
X95486064Y-60585328D01*
X95434814Y-60430666D01*
X95342712Y-60281344D01*
X95218656Y-60157288D01*
X95069334Y-60065186D01*
X94902797Y-60010001D01*
X94902795Y-60010000D01*
X94800010Y-59999500D01*
X94199998Y-59999500D01*
X94199980Y-59999501D01*
X94097203Y-60010000D01*
X94097196Y-60010002D01*
X94092269Y-60011635D01*
X94022440Y-60014033D01*
X93962400Y-59978298D01*
X93938050Y-59937131D01*
X93937869Y-59937216D01*
X93937007Y-59935368D01*
X93935565Y-59932930D01*
X93934816Y-59930670D01*
X93934812Y-59930663D01*
X93842712Y-59781344D01*
X93718656Y-59657288D01*
X93615584Y-59593713D01*
X93569336Y-59565187D01*
X93569331Y-59565185D01*
X93548547Y-59558298D01*
X93402797Y-59510001D01*
X93402795Y-59510000D01*
X93300010Y-59499500D01*
X92699998Y-59499500D01*
X92699980Y-59499501D01*
X92597203Y-59510000D01*
X92597200Y-59510001D01*
X92430668Y-59565185D01*
X92430663Y-59565187D01*
X92281342Y-59657289D01*
X92157289Y-59781342D01*
X92065187Y-59930663D01*
X92065185Y-59930668D01*
X92049402Y-59978298D01*
X92010001Y-60097203D01*
X92010001Y-60097204D01*
X92010000Y-60097204D01*
X91999500Y-60199983D01*
X91999500Y-60235091D01*
X91979815Y-60302130D01*
X91927011Y-60347885D01*
X91899692Y-60356708D01*
X91810261Y-60374497D01*
X91810255Y-60374499D01*
X91747656Y-60400429D01*
X91691877Y-60423533D01*
X91691869Y-60423537D01*
X91585331Y-60494723D01*
X91397068Y-60682985D01*
X91335744Y-60716469D01*
X91333579Y-60716920D01*
X91266508Y-60730261D01*
X91266498Y-60730264D01*
X91120828Y-60790602D01*
X91120817Y-60790608D01*
X91048175Y-60839146D01*
X90981497Y-60860023D01*
X90955093Y-60857660D01*
X90914071Y-60849500D01*
X90914069Y-60849500D01*
X90621814Y-60849500D01*
X90554775Y-60829815D01*
X90509020Y-60777011D01*
X90499076Y-60707853D01*
X90528101Y-60644297D01*
X90548929Y-60625182D01*
X90679785Y-60530109D01*
X90679783Y-60530109D01*
X90679792Y-60530104D01*
X90830104Y-60379792D01*
X90830106Y-60379788D01*
X90830109Y-60379786D01*
X90955048Y-60207820D01*
X90955047Y-60207820D01*
X90955051Y-60207816D01*
X91051557Y-60018412D01*
X91117246Y-59816243D01*
X91150500Y-59606287D01*
X91150500Y-59393713D01*
X91117246Y-59183757D01*
X91051557Y-58981588D01*
X90955051Y-58792184D01*
X90955049Y-58792181D01*
X90955048Y-58792179D01*
X90830109Y-58620213D01*
X90679786Y-58469890D01*
X90507820Y-58344951D01*
X90318414Y-58248444D01*
X90318413Y-58248443D01*
X90318412Y-58248443D01*
X90116243Y-58182754D01*
X90116241Y-58182753D01*
X90116240Y-58182753D01*
X89954957Y-58157208D01*
X89906287Y-58149500D01*
X89693713Y-58149500D01*
X89645042Y-58157208D01*
X89483760Y-58182753D01*
X89483757Y-58182754D01*
X89327612Y-58233489D01*
X89281585Y-58248444D01*
X89092179Y-58344951D01*
X88920213Y-58469890D01*
X88769890Y-58620213D01*
X88644951Y-58792179D01*
X88548444Y-58981585D01*
X88482753Y-59183760D01*
X88449500Y-59393713D01*
X88449500Y-59606286D01*
X88480263Y-59800520D01*
X88482754Y-59816243D01*
X88547738Y-60016243D01*
X88548444Y-60018414D01*
X88644951Y-60207820D01*
X88769890Y-60379786D01*
X88920209Y-60530105D01*
X88920214Y-60530109D01*
X89051071Y-60625182D01*
X89093737Y-60680512D01*
X89099716Y-60750125D01*
X89067111Y-60811920D01*
X89006272Y-60846277D01*
X88978186Y-60849500D01*
X88320808Y-60849500D01*
X88253769Y-60829815D01*
X88233127Y-60813181D01*
X85414674Y-57994727D01*
X85414673Y-57994726D01*
X85414669Y-57994723D01*
X85308127Y-57923535D01*
X85308122Y-57923533D01*
X85189744Y-57874499D01*
X85189738Y-57874497D01*
X85064071Y-57849500D01*
X85064069Y-57849500D01*
X84320808Y-57849500D01*
X84253769Y-57829815D01*
X84233127Y-57813181D01*
X83502452Y-57082506D01*
X83468967Y-57021183D01*
X83472427Y-56955822D01*
X83489999Y-56902797D01*
X83500500Y-56800009D01*
X83500499Y-56199992D01*
X83489999Y-56097203D01*
X83434814Y-55930666D01*
X83342712Y-55781344D01*
X83218656Y-55657288D01*
X83069334Y-55565186D01*
X82904918Y-55510704D01*
X82904094Y-55510133D01*
X82800010Y-55499500D01*
X81199998Y-55499500D01*
X81199980Y-55499501D01*
X81137100Y-55505925D01*
X81068407Y-55493155D01*
X81017523Y-55445274D01*
X81000499Y-55382567D01*
X81000499Y-55199998D01*
X81000498Y-55199981D01*
X80989999Y-55097203D01*
X80989998Y-55097200D01*
X80934833Y-54930726D01*
X80932432Y-54860900D01*
X80968164Y-54800858D01*
X81030684Y-54769665D01*
X81083040Y-54771533D01*
G37*
%TD.AperFunction*%
%TA.AperFunction,Conductor*%
G36*
X66142539Y-53820185D02*
G01*
X66188294Y-53872989D01*
X66199500Y-53924500D01*
X66199500Y-54078846D01*
X66230261Y-54233489D01*
X66230264Y-54233501D01*
X66271002Y-54331852D01*
X66278471Y-54401321D01*
X66247195Y-54463800D01*
X66187106Y-54499452D01*
X66169043Y-54502662D01*
X66097202Y-54510001D01*
X66097200Y-54510001D01*
X65930668Y-54565185D01*
X65930659Y-54565189D01*
X65815096Y-54636469D01*
X65747704Y-54654909D01*
X65684904Y-54636469D01*
X65569340Y-54565189D01*
X65569335Y-54565187D01*
X65569334Y-54565186D01*
X65402797Y-54510001D01*
X65402795Y-54510000D01*
X65300010Y-54499500D01*
X64699998Y-54499500D01*
X64699980Y-54499501D01*
X64597203Y-54510000D01*
X64597200Y-54510001D01*
X64430668Y-54565185D01*
X64430659Y-54565189D01*
X64315096Y-54636469D01*
X64247704Y-54654909D01*
X64184904Y-54636469D01*
X64069340Y-54565189D01*
X64069335Y-54565187D01*
X64069334Y-54565186D01*
X63902797Y-54510001D01*
X63902795Y-54510000D01*
X63800010Y-54499500D01*
X63199998Y-54499500D01*
X63199980Y-54499501D01*
X63129230Y-54506729D01*
X63060537Y-54493959D01*
X63009653Y-54446078D01*
X62992733Y-54378288D01*
X62993271Y-54370768D01*
X63000499Y-54300016D01*
X63000500Y-54300009D01*
X63000499Y-53924499D01*
X63020183Y-53857461D01*
X63072987Y-53811706D01*
X63124499Y-53800500D01*
X66075500Y-53800500D01*
X66142539Y-53820185D01*
G37*
%TD.AperFunction*%
%TA.AperFunction,Conductor*%
G36*
X68204658Y-52472604D02*
G01*
X69487451Y-52612983D01*
X69489755Y-52613258D01*
X71290405Y-52846717D01*
X71292740Y-52847043D01*
X72179062Y-52979971D01*
X72242439Y-53009382D01*
X72279856Y-53068388D01*
X72279432Y-53138256D01*
X72248351Y-53190281D01*
X72157287Y-53281345D01*
X72065187Y-53430663D01*
X72065186Y-53430666D01*
X72010001Y-53597203D01*
X72010001Y-53597204D01*
X72010000Y-53597204D01*
X71999500Y-53699983D01*
X71999500Y-54300001D01*
X71999501Y-54300019D01*
X72010000Y-54402796D01*
X72010002Y-54402803D01*
X72011635Y-54407731D01*
X72014033Y-54477560D01*
X71978298Y-54537600D01*
X71956542Y-54553759D01*
X71945296Y-54560337D01*
X71930666Y-54565186D01*
X71813874Y-54637223D01*
X71812615Y-54637960D01*
X71780064Y-54646054D01*
X71747704Y-54654909D01*
X71746215Y-54654471D01*
X71744811Y-54654821D01*
X71728279Y-54649205D01*
X71684904Y-54636469D01*
X71569340Y-54565189D01*
X71569335Y-54565187D01*
X71569334Y-54565186D01*
X71402797Y-54510001D01*
X71402795Y-54510000D01*
X71300010Y-54499500D01*
X70699998Y-54499500D01*
X70699980Y-54499501D01*
X70597203Y-54510000D01*
X70597200Y-54510001D01*
X70430668Y-54565185D01*
X70430659Y-54565189D01*
X70315096Y-54636469D01*
X70301453Y-54640201D01*
X70289884Y-54648341D01*
X70268422Y-54649239D01*
X70247704Y-54654909D01*
X70232833Y-54650730D01*
X70220076Y-54651265D01*
X70190585Y-54638858D01*
X70187386Y-54637960D01*
X70186107Y-54637212D01*
X70069334Y-54565186D01*
X70054701Y-54560337D01*
X70043457Y-54553759D01*
X70028068Y-54537433D01*
X70009620Y-54524660D01*
X70004563Y-54512497D01*
X69995532Y-54502916D01*
X69991412Y-54480861D01*
X69982799Y-54460143D01*
X69984518Y-54443957D01*
X69982702Y-54434235D01*
X69986556Y-54424764D01*
X69988366Y-54407723D01*
X69989999Y-54402797D01*
X70000500Y-54300009D01*
X70000499Y-53699992D01*
X69989999Y-53597203D01*
X69934814Y-53430666D01*
X69842712Y-53281344D01*
X69718656Y-53157288D01*
X69625888Y-53100069D01*
X69569336Y-53065187D01*
X69569331Y-53065185D01*
X69567862Y-53064698D01*
X69402797Y-53010001D01*
X69402795Y-53010000D01*
X69300016Y-52999500D01*
X69300009Y-52999500D01*
X68470808Y-52999500D01*
X68403769Y-52979815D01*
X68383127Y-52963181D01*
X68103497Y-52683550D01*
X68070012Y-52622227D01*
X68074996Y-52552535D01*
X68116868Y-52496602D01*
X68182332Y-52472185D01*
X68204658Y-52472604D01*
G37*
%TD.AperFunction*%
%TD*%
M02*
