M48
; DRILL file KiCad 10.0.2 date 2026-06-17T00:57:17
; FORMAT={-:-/ absolute / metric / decimal}
; #@! TF.CreationDate,2026-06-17T00:57:17+02:00
; #@! TF.GenerationSoftware,Kicad,Pcbnew,10.0.2
; #@! TF.FileFunction,Plated,1,2,PTH
FMAT,2
METRIC
; #@! TA.AperFunction,Plated,PTH,ViaDrill
T1C0.300
; #@! TA.AperFunction,Plated,PTH,ComponentDrill
T2C1.000
%
G90
G05
T1
X57.732Y-64.5
X59.0Y-72.0
X59.5Y-56.5
X59.5Y-60.0
X59.5Y-64.5
X60.5Y-58.0
X61.5Y-58.0
X61.932Y-65.795
X62.0Y-69.0
X62.5Y-58.0
X63.0Y-69.2
X63.0Y-70.0
X63.5Y-58.0
X63.5Y-72.5
X64.5Y-58.0
X64.619Y-68.5
X65.5Y-64.0
X65.934Y-68.566
X66.0Y-54.0
X66.0Y-58.0
X66.5Y-59.5
X66.5Y-68.0
X67.0Y-54.0
X67.219Y-59.15
X67.5Y-67.0
X68.0Y-58.0
X68.55Y-63.5
X69.0Y-68.5
X69.5Y-53.0
X73.0Y-59.0
X74.5Y-58.5
X76.0Y-58.5
X76.0Y-64.5
X76.5Y-62.5
X77.0Y-54.5
X77.0Y-58.5
X77.5Y-62.351
X77.5Y-67.5
X78.0Y-58.5
X78.712Y-61.051
X79.0Y-58.5
X79.0Y-64.0
X79.0Y-68.5
X80.012Y-61.051
X80.5Y-58.5
X80.5Y-68.15
X80.888Y-61.051
X82.0Y-58.0
X83.0Y-59.0
X83.0Y-61.5
X83.5Y-65.5
X83.5Y-66.85
X83.542Y-62.74
X84.5Y-60.0
X84.5Y-60.85
X86.0Y-57.0
X88.0Y-65.85
X88.588Y-64.327
X90.5Y-63.5
X91.5Y-61.5
X92.0Y-63.85
X93.035Y-63.965
X94.5Y-63.35
X97.0Y-69.5
X98.0Y-69.5
X99.0Y-64.5
X99.548Y-69.85
X100.0Y-71.5
X104.0Y-68.5
T2
X68.65Y-70.8
X71.19Y-70.8
X73.73Y-70.8
X76.27Y-70.8
X78.81Y-70.8
X81.35Y-70.8
X83.89Y-70.8
X86.43Y-70.8
X88.97Y-70.8
X91.51Y-70.8
M30
