ISO-10303-21;
HEADER;
/* Generated by software containing ST-Developer
 * from STEP Tools, Inc. (www.steptools.com) 
 */

FILE_DESCRIPTION(
/* description */ (''),
/* implementation_level */ '2;1');

FILE_NAME(
/* name */ 'zero_corners.step',
/* time_stamp */ '2026-08-27T17:11:03+02:00',
/* author */ (''),
/* organization */ (''),
/* preprocessor_version */ 'ST-DEVELOPER v20.1',
/* originating_system */ 'Autodesk Translation Framework v15.8.0.0',
/* authorisation */ '');

FILE_SCHEMA (('AUTOMOTIVE_DESIGN { 1 0 10303 214 3 1 1 }'));
ENDSEC;

DATA;
#10=MECHANICAL_DESIGN_GEOMETRIC_PRESENTATION_REPRESENTATION('',(#13),#559);
#11=SHAPE_REPRESENTATION_RELATIONSHIP('SRR','None',#566,#12);
#12=ADVANCED_BREP_SHAPE_REPRESENTATION('',(#14),#558);
#13=STYLED_ITEM('',(#575),#14);
#14=MANIFOLD_SOLID_BREP('zero_corners',#249);
#15=FACE_BOUND('',#58,.T.);
#16=FACE_BOUND('',#62,.T.);
#17=PLANE('',#283);
#18=PLANE('',#284);
#19=PLANE('',#287);
#20=PLANE('',#288);
#21=B_SPLINE_CURVE_WITH_KNOTS('',3,(#405,#406,#407,#408,#409,#410,#411,
#412,#413,#414,#415,#416,#417,#418,#419,#420,#421,#422,#423,#424,#425,#426,
#427,#428),.UNSPECIFIED.,.F.,.F.,(4,2,2,2,2,2,2,2,2,2,2,4),(0.0706199624720283,
0.131584635657347,0.246891351103817,0.321507552829729,0.356405960173779,
0.380777208480813,0.403500467578994,0.431262227854697,0.478529807574033,
0.585853817244046,0.682028802075008,0.773236324225287),.UNSPECIFIED.);
#22=B_SPLINE_CURVE_WITH_KNOTS('',3,(#432,#433,#434,#435,#436,#437),
 .UNSPECIFIED.,.F.,.F.,(4,2,4),(-0.576411336515537,-0.562164594118542,-0.47352293144603),
 .UNSPECIFIED.);
#23=B_SPLINE_CURVE_WITH_KNOTS('',3,(#441,#442,#443,#444,#445,#446),
 .UNSPECIFIED.,.F.,.F.,(4,2,4),(0.47352293144603,0.562164594118542,0.576411336515537),
 .UNSPECIFIED.);
#24=B_SPLINE_CURVE_WITH_KNOTS('',3,(#449,#450,#451,#452),.UNSPECIFIED.,
 .F.,.F.,(4,4),(0.,0.0706199624720283),.UNSPECIFIED.);
#25=B_SPLINE_CURVE_WITH_KNOTS('',3,(#495,#496,#497,#498,#499,#500),
 .UNSPECIFIED.,.F.,.F.,(4,2,4),(0.474894158866298,0.564078245685041,0.583748103856564),
 .UNSPECIFIED.);
#26=B_SPLINE_CURVE_WITH_KNOTS('',3,(#504,#505,#506,#507,#508,#509,#510,
#511,#512,#513,#514,#515,#516,#517,#518,#519,#520,#521,#522,#523,#524,#525,
#526,#527),.UNSPECIFIED.,.F.,.F.,(4,2,2,2,2,2,2,2,2,2,2,4),(0.,0.132131107994252,
0.246835900472346,0.318827246145168,0.352882249670417,0.3768455902923,0.399361143533081,
0.427142993194054,0.475209902651207,0.585310981120347,0.676834807543405,
0.76389837068445),.UNSPECIFIED.);
#27=B_SPLINE_CURVE_WITH_KNOTS('',3,(#531,#532,#533,#534,#535,#536),
 .UNSPECIFIED.,.F.,.F.,(4,2,4),(-0.583748103856564,-0.564078245685041,-0.474894158866298),
 .UNSPECIFIED.);
#28=(
BOUNDED_CURVE()
B_SPLINE_CURVE(2,(#401,#402,#403),.UNSPECIFIED.,.F.,.F.)
B_SPLINE_CURVE_WITH_KNOTS((3,3),(-1.09088732918863,-0.471048921183902),
 .UNSPECIFIED.)
CURVE()
GEOMETRIC_REPRESENTATION_ITEM()
RATIONAL_B_SPLINE_CURVE((1.,0.917553092459463,0.928798280422224))
REPRESENTATION_ITEM('')
);
#29=(
BOUNDED_SURFACE()
B_SPLINE_SURFACE(2,2,((#373,#374,#375,#376,#377,#378,#379,#380,#381),(#382,
#383,#384,#385,#386,#387,#388,#389,#390),(#391,#392,#393,#394,#395,#396,
#397,#398,#399)),.UNSPECIFIED.,.F.,.T.,.F.)
B_SPLINE_SURFACE_WITH_KNOTS((3,3),(3,2,2,2,3),(-5.86798638808222E-16,1.09088732918863),
(-3.14159265358979,-1.5707963267949,0.,1.5707963267949,3.14159265358979),
 .UNSPECIFIED.)
GEOMETRIC_REPRESENTATION_ITEM()
RATIONAL_B_SPLINE_SURFACE(((1.,0.707106781186548,1.,0.707106781186548,1.,
0.707106781186548,1.,0.707106781186548,1.),(0.854897202875379,0.604503609370592,
0.854897202875379,0.604503609370592,0.854897202875379,0.604503609370592,
0.854897202875379,0.604503609370592,0.854897202875379),(1.,0.707106781186548,
1.,0.707106781186548,1.,0.707106781186548,1.,0.707106781186548,1.)))
REPRESENTATION_ITEM('')
SURFACE()
);
#30=(
BOUNDED_SURFACE()
B_SPLINE_SURFACE(2,2,((#463,#464,#465,#466,#467,#468,#469,#470,#471),(#472,
#473,#474,#475,#476,#477,#478,#479,#480),(#481,#482,#483,#484,#485,#486,
#487,#488,#489)),.UNSPECIFIED.,.F.,.T.,.F.)
B_SPLINE_SURFACE_WITH_KNOTS((3,3),(3,2,2,2,3),(0.,1.08561030224574),(-3.14159265358979,
-1.5707963267949,0.,1.5707963267949,3.14159265358979),.UNSPECIFIED.)
GEOMETRIC_REPRESENTATION_ITEM()
RATIONAL_B_SPLINE_SURFACE(((1.,0.707106781186548,1.,0.707106781186548,1.,
0.707106781186548,1.,0.707106781186548,1.),(0.856263079502935,0.605469429996201,
0.856263079502935,0.605469429996201,0.856263079502935,0.605469429996201,
0.856263079502935,0.605469429996201,0.856263079502935),(1.,0.707106781186548,
1.,0.707106781186548,1.,0.707106781186548,1.,0.707106781186548,1.)))
REPRESENTATION_ITEM('')
SURFACE()
);
#31=CYLINDRICAL_SURFACE('',#267,1.);
#32=CYLINDRICAL_SURFACE('',#275,1.);
#33=CYLINDRICAL_SURFACE('',#282,3.87608302315787);
#34=CYLINDRICAL_SURFACE('',#286,8.95900063076594);
#35=CYLINDRICAL_SURFACE('',#290,8.95900063076594);
#36=FACE_OUTER_BOUND('',#49,.T.);
#37=FACE_OUTER_BOUND('',#50,.T.);
#38=FACE_OUTER_BOUND('',#51,.T.);
#39=FACE_OUTER_BOUND('',#52,.T.);
#40=FACE_OUTER_BOUND('',#53,.T.);
#41=FACE_OUTER_BOUND('',#54,.T.);
#42=FACE_OUTER_BOUND('',#55,.T.);
#43=FACE_OUTER_BOUND('',#56,.T.);
#44=FACE_OUTER_BOUND('',#57,.T.);
#45=FACE_OUTER_BOUND('',#59,.T.);
#46=FACE_OUTER_BOUND('',#60,.T.);
#47=FACE_OUTER_BOUND('',#61,.T.);
#48=FACE_OUTER_BOUND('',#63,.T.);
#49=EDGE_LOOP('',(#162,#163,#164,#165,#166));
#50=EDGE_LOOP('',(#167,#168,#169,#170));
#51=EDGE_LOOP('',(#171,#172,#173,#174,#175,#176,#177,#178,#179,#180,#181));
#52=EDGE_LOOP('',(#182,#183,#184,#185));
#53=EDGE_LOOP('',(#186,#187,#188,#189));
#54=EDGE_LOOP('',(#190,#191,#192,#193,#194,#195,#196,#197,#198,#199));
#55=EDGE_LOOP('',(#200,#201,#202,#203,#204));
#56=EDGE_LOOP('',(#205,#206,#207,#208,#209,#210));
#57=EDGE_LOOP('',(#211,#212,#213,#214,#215));
#58=EDGE_LOOP('',(#216));
#59=EDGE_LOOP('',(#217,#218));
#60=EDGE_LOOP('',(#219,#220,#221,#222,#223,#224));
#61=EDGE_LOOP('',(#225,#226,#227,#228,#229));
#62=EDGE_LOOP('',(#230));
#63=EDGE_LOOP('',(#231,#232,#233));
#64=LINE('',#367,#75);
#65=LINE('',#372,#76);
#66=LINE('',#457,#77);
#67=LINE('',#461,#78);
#68=LINE('',#539,#79);
#69=LINE('',#540,#80);
#70=LINE('',#543,#81);
#71=LINE('',#545,#82);
#72=LINE('',#546,#83);
#73=LINE('',#548,#84);
#74=LINE('',#552,#85);
#75=VECTOR('',#299,1.41957498837895);
#76=VECTOR('',#306,1.);
#77=VECTOR('',#317,1.41854698028205);
#78=VECTOR('',#322,1.);
#79=VECTOR('',#337,10.);
#80=VECTOR('',#338,10.);
#81=VECTOR('',#341,10.);
#82=VECTOR('',#342,10.);
#83=VECTOR('',#343,10.);
#84=VECTOR('',#346,10.);
#85=VECTOR('',#353,10.);
#86=CIRCLE('',#264,1.8391499767579);
#87=CIRCLE('',#265,1.8391499767579);
#88=CIRCLE('',#266,1.);
#89=CIRCLE('',#268,1.);
#90=CIRCLE('',#269,3.72251595441901);
#91=CIRCLE('',#270,3.87608302315787);
#92=CIRCLE('',#271,3.72251595441901);
#93=CIRCLE('',#273,1.8370939605641);
#94=CIRCLE('',#274,1.);
#95=CIRCLE('',#276,1.);
#96=CIRCLE('',#277,3.821);
#97=CIRCLE('',#278,3.87608302315787);
#98=CIRCLE('',#279,3.70620412742328);
#99=CIRCLE('',#280,3.70620412742328);
#100=CIRCLE('',#281,3.87608302315787);
#101=CIRCLE('',#285,8.95900063076594);
#102=CIRCLE('',#289,8.95900063076594);
#103=VERTEX_POINT('',#362);
#104=VERTEX_POINT('',#363);
#105=VERTEX_POINT('',#366);
#106=VERTEX_POINT('',#370);
#107=VERTEX_POINT('',#400);
#108=VERTEX_POINT('',#404);
#109=VERTEX_POINT('',#429);
#110=VERTEX_POINT('',#431);
#111=VERTEX_POINT('',#438);
#112=VERTEX_POINT('',#440);
#113=VERTEX_POINT('',#447);
#114=VERTEX_POINT('',#454);
#115=VERTEX_POINT('',#456);
#116=VERTEX_POINT('',#460);
#117=VERTEX_POINT('',#490);
#118=VERTEX_POINT('',#492);
#119=VERTEX_POINT('',#494);
#120=VERTEX_POINT('',#501);
#121=VERTEX_POINT('',#503);
#122=VERTEX_POINT('',#528);
#123=VERTEX_POINT('',#530);
#124=VERTEX_POINT('',#542);
#125=VERTEX_POINT('',#544);
#126=EDGE_CURVE('',#103,#104,#86,.T.);
#127=EDGE_CURVE('',#104,#103,#87,.T.);
#128=EDGE_CURVE('',#103,#105,#64,.T.);
#129=EDGE_CURVE('',#105,#105,#88,.T.);
#130=EDGE_CURVE('',#106,#106,#89,.T.);
#131=EDGE_CURVE('',#106,#105,#65,.T.);
#132=EDGE_CURVE('',#104,#107,#28,.T.);
#133=EDGE_CURVE('',#107,#108,#21,.T.);
#134=EDGE_CURVE('',#108,#109,#90,.T.);
#135=EDGE_CURVE('',#109,#110,#22,.T.);
#136=EDGE_CURVE('',#110,#111,#91,.T.);
#137=EDGE_CURVE('',#111,#112,#23,.T.);
#138=EDGE_CURVE('',#112,#113,#92,.T.);
#139=EDGE_CURVE('',#113,#107,#24,.T.);
#140=EDGE_CURVE('',#114,#114,#93,.T.);
#141=EDGE_CURVE('',#114,#115,#66,.T.);
#142=EDGE_CURVE('',#115,#115,#94,.T.);
#143=EDGE_CURVE('',#115,#116,#67,.T.);
#144=EDGE_CURVE('',#116,#116,#95,.T.);
#145=EDGE_CURVE('',#114,#117,#96,.T.);
#146=EDGE_CURVE('',#117,#118,#97,.T.);
#147=EDGE_CURVE('',#118,#119,#25,.T.);
#148=EDGE_CURVE('',#119,#120,#98,.T.);
#149=EDGE_CURVE('',#120,#121,#26,.T.);
#150=EDGE_CURVE('',#121,#122,#99,.T.);
#151=EDGE_CURVE('',#122,#123,#27,.T.);
#152=EDGE_CURVE('',#123,#117,#100,.T.);
#153=EDGE_CURVE('',#111,#123,#68,.T.);
#154=EDGE_CURVE('',#110,#118,#69,.T.);
#155=EDGE_CURVE('',#124,#122,#70,.T.);
#156=EDGE_CURVE('',#125,#124,#71,.T.);
#157=EDGE_CURVE('',#125,#112,#72,.T.);
#158=EDGE_CURVE('',#119,#124,#73,.T.);
#159=EDGE_CURVE('',#120,#121,#101,.T.);
#160=EDGE_CURVE('',#109,#125,#74,.T.);
#161=EDGE_CURVE('',#108,#113,#102,.T.);
#162=ORIENTED_EDGE('',*,*,#126,.T.);
#163=ORIENTED_EDGE('',*,*,#127,.T.);
#164=ORIENTED_EDGE('',*,*,#128,.T.);
#165=ORIENTED_EDGE('',*,*,#129,.T.);
#166=ORIENTED_EDGE('',*,*,#128,.F.);
#167=ORIENTED_EDGE('',*,*,#130,.F.);
#168=ORIENTED_EDGE('',*,*,#131,.T.);
#169=ORIENTED_EDGE('',*,*,#129,.F.);
#170=ORIENTED_EDGE('',*,*,#131,.F.);
#171=ORIENTED_EDGE('',*,*,#126,.F.);
#172=ORIENTED_EDGE('',*,*,#127,.F.);
#173=ORIENTED_EDGE('',*,*,#132,.T.);
#174=ORIENTED_EDGE('',*,*,#133,.T.);
#175=ORIENTED_EDGE('',*,*,#134,.T.);
#176=ORIENTED_EDGE('',*,*,#135,.T.);
#177=ORIENTED_EDGE('',*,*,#136,.T.);
#178=ORIENTED_EDGE('',*,*,#137,.T.);
#179=ORIENTED_EDGE('',*,*,#138,.T.);
#180=ORIENTED_EDGE('',*,*,#139,.T.);
#181=ORIENTED_EDGE('',*,*,#132,.F.);
#182=ORIENTED_EDGE('',*,*,#140,.T.);
#183=ORIENTED_EDGE('',*,*,#141,.T.);
#184=ORIENTED_EDGE('',*,*,#142,.T.);
#185=ORIENTED_EDGE('',*,*,#141,.F.);
#186=ORIENTED_EDGE('',*,*,#142,.F.);
#187=ORIENTED_EDGE('',*,*,#143,.T.);
#188=ORIENTED_EDGE('',*,*,#144,.F.);
#189=ORIENTED_EDGE('',*,*,#143,.F.);
#190=ORIENTED_EDGE('',*,*,#140,.F.);
#191=ORIENTED_EDGE('',*,*,#145,.T.);
#192=ORIENTED_EDGE('',*,*,#146,.T.);
#193=ORIENTED_EDGE('',*,*,#147,.T.);
#194=ORIENTED_EDGE('',*,*,#148,.T.);
#195=ORIENTED_EDGE('',*,*,#149,.T.);
#196=ORIENTED_EDGE('',*,*,#150,.T.);
#197=ORIENTED_EDGE('',*,*,#151,.T.);
#198=ORIENTED_EDGE('',*,*,#152,.T.);
#199=ORIENTED_EDGE('',*,*,#145,.F.);
#200=ORIENTED_EDGE('',*,*,#152,.F.);
#201=ORIENTED_EDGE('',*,*,#153,.F.);
#202=ORIENTED_EDGE('',*,*,#136,.F.);
#203=ORIENTED_EDGE('',*,*,#154,.T.);
#204=ORIENTED_EDGE('',*,*,#146,.F.);
#205=ORIENTED_EDGE('',*,*,#151,.F.);
#206=ORIENTED_EDGE('',*,*,#155,.F.);
#207=ORIENTED_EDGE('',*,*,#156,.F.);
#208=ORIENTED_EDGE('',*,*,#157,.T.);
#209=ORIENTED_EDGE('',*,*,#137,.F.);
#210=ORIENTED_EDGE('',*,*,#153,.T.);
#211=ORIENTED_EDGE('',*,*,#148,.F.);
#212=ORIENTED_EDGE('',*,*,#158,.T.);
#213=ORIENTED_EDGE('',*,*,#155,.T.);
#214=ORIENTED_EDGE('',*,*,#150,.F.);
#215=ORIENTED_EDGE('',*,*,#159,.F.);
#216=ORIENTED_EDGE('',*,*,#144,.T.);
#217=ORIENTED_EDGE('',*,*,#149,.F.);
#218=ORIENTED_EDGE('',*,*,#159,.T.);
#219=ORIENTED_EDGE('',*,*,#147,.F.);
#220=ORIENTED_EDGE('',*,*,#154,.F.);
#221=ORIENTED_EDGE('',*,*,#135,.F.);
#222=ORIENTED_EDGE('',*,*,#160,.T.);
#223=ORIENTED_EDGE('',*,*,#156,.T.);
#224=ORIENTED_EDGE('',*,*,#158,.F.);
#225=ORIENTED_EDGE('',*,*,#134,.F.);
#226=ORIENTED_EDGE('',*,*,#161,.T.);
#227=ORIENTED_EDGE('',*,*,#138,.F.);
#228=ORIENTED_EDGE('',*,*,#157,.F.);
#229=ORIENTED_EDGE('',*,*,#160,.F.);
#230=ORIENTED_EDGE('',*,*,#130,.T.);
#231=ORIENTED_EDGE('',*,*,#139,.F.);
#232=ORIENTED_EDGE('',*,*,#161,.F.);
#233=ORIENTED_EDGE('',*,*,#133,.F.);
#234=CONICAL_SURFACE('',#263,1.41957498837895,0.965950336325959);
#235=CONICAL_SURFACE('',#272,1.41854698028205,0.969166743978794);
#236=ADVANCED_FACE('',(#36),#234,.F.);
#237=ADVANCED_FACE('',(#37),#31,.F.);
#238=ADVANCED_FACE('',(#38),#29,.F.);
#239=ADVANCED_FACE('',(#39),#235,.F.);
#240=ADVANCED_FACE('',(#40),#32,.F.);
#241=ADVANCED_FACE('',(#41),#30,.F.);
#242=ADVANCED_FACE('',(#42),#33,.T.);
#243=ADVANCED_FACE('',(#43),#17,.T.);
#244=ADVANCED_FACE('',(#44,#15),#18,.T.);
#245=ADVANCED_FACE('',(#45),#34,.F.);
#246=ADVANCED_FACE('',(#46),#19,.T.);
#247=ADVANCED_FACE('',(#47,#16),#20,.F.);
#248=ADVANCED_FACE('',(#48),#35,.F.);
#249=CLOSED_SHELL('',(#236,#237,#238,#239,#240,#241,#242,#243,#244,#245,
#246,#247,#248));
#250=DERIVED_UNIT_ELEMENT(#252,1.);
#251=DERIVED_UNIT_ELEMENT(#561,-3.);
#252=(
MASS_UNIT()
NAMED_UNIT(*)
SI_UNIT(.KILO.,.GRAM.)
);
#253=DERIVED_UNIT((#250,#251));
#254=MEASURE_REPRESENTATION_ITEM('density measure',
POSITIVE_RATIO_MEASURE(7850.),#253);
#255=PROPERTY_DEFINITION_REPRESENTATION(#260,#257);
#256=PROPERTY_DEFINITION_REPRESENTATION(#261,#258);
#257=REPRESENTATION('material name',(#259),#558);
#258=REPRESENTATION('density',(#254),#558);
#259=DESCRIPTIVE_REPRESENTATION_ITEM('Steel','Steel');
#260=PROPERTY_DEFINITION('material property','material name',#568);
#261=PROPERTY_DEFINITION('material property','density of part',#568);
#262=AXIS2_PLACEMENT_3D('',#360,#291,#292);
#263=AXIS2_PLACEMENT_3D('',#361,#293,#294);
#264=AXIS2_PLACEMENT_3D('',#364,#295,#296);
#265=AXIS2_PLACEMENT_3D('',#365,#297,#298);
#266=AXIS2_PLACEMENT_3D('',#368,#300,#301);
#267=AXIS2_PLACEMENT_3D('',#369,#302,#303);
#268=AXIS2_PLACEMENT_3D('',#371,#304,#305);
#269=AXIS2_PLACEMENT_3D('',#430,#307,#308);
#270=AXIS2_PLACEMENT_3D('',#439,#309,#310);
#271=AXIS2_PLACEMENT_3D('',#448,#311,#312);
#272=AXIS2_PLACEMENT_3D('',#453,#313,#314);
#273=AXIS2_PLACEMENT_3D('',#455,#315,#316);
#274=AXIS2_PLACEMENT_3D('',#458,#318,#319);
#275=AXIS2_PLACEMENT_3D('',#459,#320,#321);
#276=AXIS2_PLACEMENT_3D('',#462,#323,#324);
#277=AXIS2_PLACEMENT_3D('',#491,#325,#326);
#278=AXIS2_PLACEMENT_3D('',#493,#327,#328);
#279=AXIS2_PLACEMENT_3D('',#502,#329,#330);
#280=AXIS2_PLACEMENT_3D('',#529,#331,#332);
#281=AXIS2_PLACEMENT_3D('',#537,#333,#334);
#282=AXIS2_PLACEMENT_3D('',#538,#335,#336);
#283=AXIS2_PLACEMENT_3D('',#541,#339,#340);
#284=AXIS2_PLACEMENT_3D('',#547,#344,#345);
#285=AXIS2_PLACEMENT_3D('',#549,#347,#348);
#286=AXIS2_PLACEMENT_3D('',#550,#349,#350);
#287=AXIS2_PLACEMENT_3D('',#551,#351,#352);
#288=AXIS2_PLACEMENT_3D('',#553,#354,#355);
#289=AXIS2_PLACEMENT_3D('',#554,#356,#357);
#290=AXIS2_PLACEMENT_3D('',#555,#358,#359);
#291=DIRECTION('axis',(0.,0.,1.));
#292=DIRECTION('refdir',(1.,0.,0.));
#293=DIRECTION('center_axis',(0.,0.,-1.));
#294=DIRECTION('ref_axis',(1.,0.,0.));
#295=DIRECTION('center_axis',(0.,0.,-1.));
#296=DIRECTION('ref_axis',(1.,0.,0.));
#297=DIRECTION('center_axis',(0.,0.,-1.));
#298=DIRECTION('ref_axis',(1.,0.,0.));
#299=DIRECTION('',(0.822589682658247,-1.00738182187906E-16,0.568635396351831));
#300=DIRECTION('center_axis',(0.,0.,1.));
#301=DIRECTION('ref_axis',(1.,0.,0.));
#302=DIRECTION('center_axis',(0.,0.,-1.));
#303=DIRECTION('ref_axis',(1.,0.,0.));
#304=DIRECTION('center_axis',(0.,0.,-1.));
#305=DIRECTION('ref_axis',(1.,0.,0.));
#306=DIRECTION('',(0.,0.,-1.));
#307=DIRECTION('center_axis',(0.,0.,-1.));
#308=DIRECTION('ref_axis',(-1.,0.,0.));
#309=DIRECTION('center_axis',(0.,0.,-1.));
#310=DIRECTION('ref_axis',(-0.68394112888133,0.729537204140085,0.));
#311=DIRECTION('center_axis',(0.,0.,-1.));
#312=DIRECTION('ref_axis',(-1.,0.,0.));
#313=DIRECTION('center_axis',(0.,0.,1.));
#314=DIRECTION('ref_axis',(1.,0.,0.));
#315=DIRECTION('center_axis',(0.,0.,1.));
#316=DIRECTION('ref_axis',(1.,0.,0.));
#317=DIRECTION('',(0.824414387789343,1.00961644117724E-16,-0.565986675820132));
#318=DIRECTION('center_axis',(0.,0.,-1.));
#319=DIRECTION('ref_axis',(1.,0.,0.));
#320=DIRECTION('center_axis',(0.,0.,-1.));
#321=DIRECTION('ref_axis',(1.,0.,0.));
#322=DIRECTION('',(0.,0.,-1.));
#323=DIRECTION('center_axis',(0.,0.,1.));
#324=DIRECTION('ref_axis',(1.,0.,0.));
#325=DIRECTION('center_axis',(0.,-1.,0.));
#326=DIRECTION('ref_axis',(-1.,0.,0.));
#327=DIRECTION('center_axis',(0.,0.,1.));
#328=DIRECTION('ref_axis',(-0.68394112888133,0.729537204140085,0.));
#329=DIRECTION('center_axis',(0.,0.,1.));
#330=DIRECTION('ref_axis',(1.,0.,0.));
#331=DIRECTION('center_axis',(0.,0.,1.));
#332=DIRECTION('ref_axis',(1.,0.,0.));
#333=DIRECTION('center_axis',(0.,0.,1.));
#334=DIRECTION('ref_axis',(-0.68394112888133,0.729537204140085,0.));
#335=DIRECTION('center_axis',(0.,0.,1.));
#336=DIRECTION('ref_axis',(-0.707106781186548,0.707106781186547,0.));
#337=DIRECTION('',(0.,0.,1.));
#338=DIRECTION('',(0.,0.,1.));
#339=DIRECTION('center_axis',(0.,-1.,0.));
#340=DIRECTION('ref_axis',(1.,0.,0.));
#341=DIRECTION('',(1.,0.,0.));
#342=DIRECTION('',(0.,0.,1.));
#343=DIRECTION('',(1.,0.,0.));
#344=DIRECTION('center_axis',(0.,0.,-1.));
#345=DIRECTION('ref_axis',(1.,0.,0.));
#346=DIRECTION('',(0.,1.,0.));
#347=DIRECTION('center_axis',(0.,0.,-1.));
#348=DIRECTION('ref_axis',(1.,0.,0.));
#349=DIRECTION('center_axis',(0.,0.,1.));
#350=DIRECTION('ref_axis',(1.,0.,0.));
#351=DIRECTION('center_axis',(1.,0.,0.));
#352=DIRECTION('ref_axis',(0.,1.,0.));
#353=DIRECTION('',(0.,1.,0.));
#354=DIRECTION('center_axis',(0.,0.,-1.));
#355=DIRECTION('ref_axis',(1.,0.,0.));
#356=DIRECTION('center_axis',(0.,0.,-1.));
#357=DIRECTION('ref_axis',(1.,0.,0.));
#358=DIRECTION('center_axis',(0.,0.,-1.));
#359=DIRECTION('ref_axis',(1.,0.,0.));
#360=CARTESIAN_POINT('',(0.,0.,0.));
#361=CARTESIAN_POINT('Origin',(-15.,8.,-13.4494482555263));
#362=CARTESIAN_POINT('',(-16.8391499767579,8.,-13.7394898094699));
#363=CARTESIAN_POINT('',(-13.1608500232421,8.,-13.7394898094699));
#364=CARTESIAN_POINT('Origin',(-15.,8.,-13.7394898094699));
#365=CARTESIAN_POINT('Origin',(-15.,8.,-13.7394898094699));
#366=CARTESIAN_POINT('',(-16.,8.,-13.1594067015827));
#367=CARTESIAN_POINT('',(-16.419574988379,8.,-13.4494482555263));
#368=CARTESIAN_POINT('Origin',(-15.,8.,-13.1594067015827));
#369=CARTESIAN_POINT('Origin',(-15.,8.,-11.45));
#370=CARTESIAN_POINT('',(-16.,8.,-11.45));
#371=CARTESIAN_POINT('Origin',(-15.,8.,-11.45));
#372=CARTESIAN_POINT('',(-16.,8.,-11.45));
#373=CARTESIAN_POINT('Ctrl Pts',(-11.1239169768421,8.,-10.3829420205));
#374=CARTESIAN_POINT('Ctrl Pts',(-11.1239169768421,4.12391697684214,-10.3829420205));
#375=CARTESIAN_POINT('Ctrl Pts',(-15.,4.12391697684213,-10.3829420205));
#376=CARTESIAN_POINT('Ctrl Pts',(-18.8760830231579,4.12391697684214,-10.3829420205));
#377=CARTESIAN_POINT('Ctrl Pts',(-18.8760830231579,8.,-10.3829420205));
#378=CARTESIAN_POINT('Ctrl Pts',(-18.8760830231579,11.8760830231579,-10.3829420205));
#379=CARTESIAN_POINT('Ctrl Pts',(-15.,11.8760830231579,-10.3829420205));
#380=CARTESIAN_POINT('Ctrl Pts',(-11.1239169768421,11.8760830231579,-10.3829420205));
#381=CARTESIAN_POINT('Ctrl Pts',(-11.1239169768421,8.,-10.3829420205));
#382=CARTESIAN_POINT('Ctrl Pts',(-11.1239169768421,8.,-12.6792759719802));
#383=CARTESIAN_POINT('Ctrl Pts',(-11.1239169768421,4.12391697684213,-12.6792759719802));
#384=CARTESIAN_POINT('Ctrl Pts',(-15.,4.12391697684213,-12.6792759719802));
#385=CARTESIAN_POINT('Ctrl Pts',(-18.8760830231579,4.12391697684213,-12.6792759719802));
#386=CARTESIAN_POINT('Ctrl Pts',(-18.8760830231579,8.,-12.6792759719802));
#387=CARTESIAN_POINT('Ctrl Pts',(-18.8760830231579,11.8760830231579,-12.6792759719802));
#388=CARTESIAN_POINT('Ctrl Pts',(-15.,11.8760830231579,-12.6792759719802));
#389=CARTESIAN_POINT('Ctrl Pts',(-11.1239169768421,11.8760830231579,-12.6792759719802));
#390=CARTESIAN_POINT('Ctrl Pts',(-11.1239169768421,8.,-12.6792759719802));
#391=CARTESIAN_POINT('Ctrl Pts',(-13.1608500232421,8.,-13.7394898094699));
#392=CARTESIAN_POINT('Ctrl Pts',(-13.1608500232421,6.1608500232421,-13.7394898094699));
#393=CARTESIAN_POINT('Ctrl Pts',(-15.,6.1608500232421,-13.7394898094699));
#394=CARTESIAN_POINT('Ctrl Pts',(-16.8391499767579,6.1608500232421,-13.7394898094699));
#395=CARTESIAN_POINT('Ctrl Pts',(-16.8391499767579,8.,-13.7394898094699));
#396=CARTESIAN_POINT('Ctrl Pts',(-16.8391499767579,9.8391499767579,-13.7394898094699));
#397=CARTESIAN_POINT('Ctrl Pts',(-15.,9.8391499767579,-13.7394898094699));
#398=CARTESIAN_POINT('Ctrl Pts',(-13.1608500232421,9.8391499767579,-13.7394898094699));
#399=CARTESIAN_POINT('Ctrl Pts',(-13.1608500232421,8.,-13.7394898094699));
#400=CARTESIAN_POINT('',(-11.5328268375997,8.,-12.0939132511139));
#401=CARTESIAN_POINT('Ctrl Pts',(-13.1608500232421,8.,-13.7394898094699));
#402=CARTESIAN_POINT('Ctrl Pts',(-12.0825042680428,8.,-13.1782160389446));
#403=CARTESIAN_POINT('Ctrl Pts',(-11.5328268375997,8.,-12.0939132511139));
#404=CARTESIAN_POINT('',(-15.3622734238072,4.29515411962831,-11.45));
#405=CARTESIAN_POINT('Ctrl Pts',(-11.5328268375997,8.,-12.0939132511139));
#406=CARTESIAN_POINT('Ctrl Pts',(-11.621956338415,7.95506951963627,-12.2697315781172));
#407=CARTESIAN_POINT('Ctrl Pts',(-11.7245695286147,7.90151013957478,-12.4363534497379));
#408=CARTESIAN_POINT('Ctrl Pts',(-12.0559179563338,7.7180750453913,-12.883795663321));
#409=CARTESIAN_POINT('Ctrl Pts',(-12.3117149566438,7.56472731584244,-13.1288232789941));
#410=CARTESIAN_POINT('Ctrl Pts',(-12.7694029401942,7.24878100134464,-13.4266428215752));
#411=CARTESIAN_POINT('Ctrl Pts',(-12.955678729871,7.11037423872411,-13.5149396466032));
#412=CARTESIAN_POINT('Ctrl Pts',(-13.2305979965573,6.88742777051943,-13.5984437693703));
#413=CARTESIAN_POINT('Ctrl Pts',(-13.3180007123562,6.81379732969085,-13.6180438586791));
#414=CARTESIAN_POINT('Ctrl Pts',(-13.4651611060912,6.68483499443021,-13.6392119858615));
#415=CARTESIAN_POINT('Ctrl Pts',(-13.5251985397098,6.63077833080015,-13.6444198440247));
#416=CARTESIAN_POINT('Ctrl Pts',(-13.6399570867078,6.52459272921689,-13.6476959365065));
#417=CARTESIAN_POINT('Ctrl Pts',(-13.6946944891013,6.47264439991541,-13.6462210977133));
#418=CARTESIAN_POINT('Ctrl Pts',(-13.8146120421398,6.35592910746111,-13.6361645861263));
#419=CARTESIAN_POINT('Ctrl Pts',(-13.8793066815484,6.29097962258723,-13.6260891347116));
#420=CARTESIAN_POINT('Ctrl Pts',(-14.0502585650522,6.11406782971427,-13.5866848346118));
#421=CARTESIAN_POINT('Ctrl Pts',(-14.1532834881358,6.00163539094752,-13.5489202731586));
#422=CARTESIAN_POINT('Ctrl Pts',(-14.4730273527958,5.63512210321529,-13.3845707651839));
#423=CARTESIAN_POINT('Ctrl Pts',(-14.6632106217548,5.38774504270244,-13.2085614708127));
#424=CARTESIAN_POINT('Ctrl Pts',(-14.9638329337071,4.96141834610442,-12.778139676379));
#425=CARTESIAN_POINT('Ctrl Pts',(-15.0782950259725,4.78160297594871,-12.5372422403244));
#426=CARTESIAN_POINT('Ctrl Pts',(-15.254475198855,4.48991297603713,-12.0153410907179));
#427=CARTESIAN_POINT('Ctrl Pts',(-15.3179783680865,4.37623615526637,-11.7392210040611));
#428=CARTESIAN_POINT('Ctrl Pts',(-15.3622734238072,4.29515411962831,-11.45));
#429=CARTESIAN_POINT('',(-17.15,4.96114741540428,-11.45));
#430=CARTESIAN_POINT('Origin',(-15.,8.,-11.45));
#431=CARTESIAN_POINT('',(-17.15,4.77486130493391,-10.3829420205));
#432=CARTESIAN_POINT('Ctrl Pts',(-17.15,4.96114741540428,-11.45));
#433=CARTESIAN_POINT('Ctrl Pts',(-17.15,4.94427029075502,-11.4031249306531));
#434=CARTESIAN_POINT('Ctrl Pts',(-17.15,4.92883112043693,-11.3567388165641));
#435=CARTESIAN_POINT('Ctrl Pts',(-17.15,4.82773422604248,-11.0290165169009));
#436=CARTESIAN_POINT('Ctrl Pts',(-17.15,4.77486130493391,-10.6784142294084));
#437=CARTESIAN_POINT('Ctrl Pts',(-17.15,4.77486130493391,-10.3829420205));
#438=CARTESIAN_POINT('',(-11.7748613049339,10.15,-10.3829420205));
#439=CARTESIAN_POINT('Origin',(-15.,8.,-10.3829420205));
#440=CARTESIAN_POINT('',(-11.9611474154043,10.15,-11.45));
#441=CARTESIAN_POINT('Ctrl Pts',(-11.7748613049339,10.15,-10.3829420205));
#442=CARTESIAN_POINT('Ctrl Pts',(-11.7748613049339,10.15,-10.6784142294084));
#443=CARTESIAN_POINT('Ctrl Pts',(-11.8277342260425,10.15,-11.0290165169009));
#444=CARTESIAN_POINT('Ctrl Pts',(-11.9288311204369,10.15,-11.3567388165641));
#445=CARTESIAN_POINT('Ctrl Pts',(-11.944270290755,10.15,-11.4031249306531));
#446=CARTESIAN_POINT('Ctrl Pts',(-11.9611474154043,10.15,-11.45));
#447=CARTESIAN_POINT('',(-11.2795083186769,8.12274640568797,-11.45));
#448=CARTESIAN_POINT('Origin',(-15.,8.,-11.45));
#449=CARTESIAN_POINT('Ctrl Pts',(-11.2795083186769,8.12274640568797,-11.45));
#450=CARTESIAN_POINT('Ctrl Pts',(-11.3444547314728,8.09252688446071,-11.6742361369357));
#451=CARTESIAN_POINT('Ctrl Pts',(-11.4295814386849,8.05204635195028,-11.8902496701229));
#452=CARTESIAN_POINT('Ctrl Pts',(-11.5328268375997,8.,-12.0939132511139));
#453=CARTESIAN_POINT('Origin',(-15.,8.,13.4160088777137));
#454=CARTESIAN_POINT('',(-16.8370939605641,8.,13.7033546804472));
#455=CARTESIAN_POINT('Origin',(-15.,8.,13.7033546804472));
#456=CARTESIAN_POINT('',(-16.,8.,13.1286630749802));
#457=CARTESIAN_POINT('',(-16.418546980282,8.,13.4160088777137));
#458=CARTESIAN_POINT('Origin',(-15.,8.,13.1286630749802));
#459=CARTESIAN_POINT('Origin',(-15.,8.,-11.45));
#460=CARTESIAN_POINT('',(-16.,8.,11.45));
#461=CARTESIAN_POINT('',(-16.,8.,-11.45));
#462=CARTESIAN_POINT('Origin',(-15.,8.,11.45));
#463=CARTESIAN_POINT('Ctrl Pts',(-18.8760830231579,8.,10.3233431392));
#464=CARTESIAN_POINT('Ctrl Pts',(-18.8760830231579,4.12391697684214,10.3233431392));
#465=CARTESIAN_POINT('Ctrl Pts',(-15.,4.12391697684214,10.3233431392));
#466=CARTESIAN_POINT('Ctrl Pts',(-11.1239169768421,4.12391697684214,10.3233431392));
#467=CARTESIAN_POINT('Ctrl Pts',(-11.1239169768421,8.,10.3233431392));
#468=CARTESIAN_POINT('Ctrl Pts',(-11.1239169768421,11.8760830231579,10.3233431392));
#469=CARTESIAN_POINT('Ctrl Pts',(-15.,11.8760830231579,10.3233431392));
#470=CARTESIAN_POINT('Ctrl Pts',(-18.8760830231579,11.8760830231579,10.3233431392));
#471=CARTESIAN_POINT('Ctrl Pts',(-18.8760830231579,8.,10.3233431392));
#472=CARTESIAN_POINT('Ctrl Pts',(-18.8760830231579,8.,12.6283581112187));
#473=CARTESIAN_POINT('Ctrl Pts',(-18.8760830231579,4.12391697684214,12.6283581112187));
#474=CARTESIAN_POINT('Ctrl Pts',(-15.,4.12391697684214,12.6283581112187));
#475=CARTESIAN_POINT('Ctrl Pts',(-11.1239169768421,4.12391697684214,12.6283581112187));
#476=CARTESIAN_POINT('Ctrl Pts',(-11.1239169768421,8.,12.6283581112187));
#477=CARTESIAN_POINT('Ctrl Pts',(-11.1239169768421,11.8760830231579,12.6283581112187));
#478=CARTESIAN_POINT('Ctrl Pts',(-15.,11.8760830231579,12.6283581112187));
#479=CARTESIAN_POINT('Ctrl Pts',(-18.8760830231579,11.8760830231579,12.6283581112187));
#480=CARTESIAN_POINT('Ctrl Pts',(-18.8760830231579,8.,12.6283581112187));
#481=CARTESIAN_POINT('Ctrl Pts',(-16.8370939605641,8.,13.7033546804472));
#482=CARTESIAN_POINT('Ctrl Pts',(-16.8370939605641,6.1629060394359,13.7033546804472));
#483=CARTESIAN_POINT('Ctrl Pts',(-15.,6.1629060394359,13.7033546804472));
#484=CARTESIAN_POINT('Ctrl Pts',(-13.1629060394359,6.1629060394359,13.7033546804472));
#485=CARTESIAN_POINT('Ctrl Pts',(-13.1629060394359,8.,13.7033546804472));
#486=CARTESIAN_POINT('Ctrl Pts',(-13.1629060394359,9.8370939605641,13.7033546804472));
#487=CARTESIAN_POINT('Ctrl Pts',(-15.,9.8370939605641,13.7033546804472));
#488=CARTESIAN_POINT('Ctrl Pts',(-16.8370939605641,9.8370939605641,13.7033546804472));
#489=CARTESIAN_POINT('Ctrl Pts',(-16.8370939605641,8.,13.7033546804472));
#490=CARTESIAN_POINT('',(-18.8760830231579,8.,10.3233431392));
#491=CARTESIAN_POINT('Origin',(-15.0550830231579,8.,10.3233431392));
#492=CARTESIAN_POINT('',(-17.15,4.77486130493391,10.3233431392));
#493=CARTESIAN_POINT('Origin',(-15.,8.,10.3233431392));
#494=CARTESIAN_POINT('',(-17.15,4.98115104151775,11.45));
#495=CARTESIAN_POINT('Ctrl Pts',(-17.15,4.77486130493391,10.3233431392));
#496=CARTESIAN_POINT('Ctrl Pts',(-17.15,4.77486130493391,10.6206234285958));
#497=CARTESIAN_POINT('Ctrl Pts',(-17.15,4.82786522200021,10.9734001373547));
#498=CARTESIAN_POINT('Ctrl Pts',(-17.15,4.93446427434013,11.3202346980375));
#499=CARTESIAN_POINT('Ctrl Pts',(-17.15,4.95646134541287,11.3848278023005));
#500=CARTESIAN_POINT('Ctrl Pts',(-17.15,4.98115104151775,11.45));
#501=CARTESIAN_POINT('',(-15.3537514066361,4.31071701052463,11.45));
#502=CARTESIAN_POINT('Origin',(-15.,8.,11.45));
#503=CARTESIAN_POINT('',(-11.2955880903245,8.11524511956669,11.45));
#504=CARTESIAN_POINT('Ctrl Pts',(-15.3537514066361,4.31071701052463,11.45));
#505=CARTESIAN_POINT('Ctrl Pts',(-15.2862653184946,4.43367079254634,11.8675078081138));
#506=CARTESIAN_POINT('Ctrl Pts',(-15.1789277897134,4.62397011710218,12.2553139946268));
#507=CARTESIAN_POINT('Ctrl Pts',(-14.8859919506877,5.07677274275808,12.8740640044427));
#508=CARTESIAN_POINT('Ctrl Pts',(-14.7143961000617,5.32263305442655,13.1139504009015));
#509=CARTESIAN_POINT('Ctrl Pts',(-14.371333259496,5.75269262370414,13.3998679247201));
#510=CARTESIAN_POINT('Ctrl Pts',(-14.2254390986201,5.92337678161205,13.4832194005836));
#511=CARTESIAN_POINT('Ctrl Pts',(-13.9920993770716,6.17482577032702,13.5624911379946));
#512=CARTESIAN_POINT('Ctrl Pts',(-13.9147363358122,6.25519723409559,13.5812096328598));
#513=CARTESIAN_POINT('Ctrl Pts',(-13.7792903993389,6.39065444280927,13.601387284629));
#514=CARTESIAN_POINT('Ctrl Pts',(-13.7223930783322,6.44607196076036,13.6063011246147));
#515=CARTESIAN_POINT('Ctrl Pts',(-13.6104450669241,6.55223160493785,13.6091636688937));
#516=CARTESIAN_POINT('Ctrl Pts',(-13.5555655462789,6.60298295102672,13.6075132715569));
#517=CARTESIAN_POINT('Ctrl Pts',(-13.4318071104756,6.71459830373777,13.5970537521727));
#518=CARTESIAN_POINT('Ctrl Pts',(-13.3627825117667,6.77493599085474,13.5866715986555));
#519=CARTESIAN_POINT('Ctrl Pts',(-13.1732368990644,6.93562351146002,13.5458928614449));
#520=CARTESIAN_POINT('Ctrl Pts',(-13.0524998750136,7.03250843232637,13.5065506748503));
#521=CARTESIAN_POINT('Ctrl Pts',(-12.65794822414,7.3333866686612,13.3345357558455));
#522=CARTESIAN_POINT('Ctrl Pts',(-12.3934116357094,7.50970970675727,13.1496097194162));
#523=CARTESIAN_POINT('Ctrl Pts',(-11.9577744569813,7.77467104505336,12.7148515647468));
#524=CARTESIAN_POINT('Ctrl Pts',(-11.7815346447643,7.87146239011228,12.4842177983729));
#525=CARTESIAN_POINT('Ctrl Pts',(-11.4930673462838,8.02148563857067,11.9871014710046));
#526=CARTESIAN_POINT('Ctrl Pts',(-11.3791787147877,8.07614887860287,11.7246981837082));
#527=CARTESIAN_POINT('Ctrl Pts',(-11.2955880903245,8.11524511956669,11.45));
#528=CARTESIAN_POINT('',(-11.9811510415177,10.15,11.45));
#529=CARTESIAN_POINT('Origin',(-15.,8.,11.45));
#530=CARTESIAN_POINT('',(-11.7748613049339,10.15,10.3233431392));
#531=CARTESIAN_POINT('Ctrl Pts',(-11.9811510415177,10.15,11.45));
#532=CARTESIAN_POINT('Ctrl Pts',(-11.9564613454129,10.15,11.3848278023005));
#533=CARTESIAN_POINT('Ctrl Pts',(-11.9344642743401,10.15,11.3202346980375));
#534=CARTESIAN_POINT('Ctrl Pts',(-11.8278652220002,10.15,10.9734001373547));
#535=CARTESIAN_POINT('Ctrl Pts',(-11.7748613049339,10.15,10.6206234285958));
#536=CARTESIAN_POINT('Ctrl Pts',(-11.7748613049339,10.15,10.3233431392));
#537=CARTESIAN_POINT('Origin',(-15.,8.,10.3233431392));
#538=CARTESIAN_POINT('Origin',(-15.,8.,-11.45));
#539=CARTESIAN_POINT('',(-11.7748613049339,10.15,-11.45));
#540=CARTESIAN_POINT('',(-17.15,4.77486130493391,-11.45));
#541=CARTESIAN_POINT('Origin',(-17.15,10.15,-11.45));
#542=CARTESIAN_POINT('',(-17.15,10.15,11.45));
#543=CARTESIAN_POINT('',(-17.15,10.15,11.45));
#544=CARTESIAN_POINT('',(-17.15,10.15,-11.45));
#545=CARTESIAN_POINT('',(-17.15,10.15,-11.45));
#546=CARTESIAN_POINT('',(-17.15,10.15,-11.45));
#547=CARTESIAN_POINT('Origin',(-15.0023607060122,8.01254812731188,11.45));
#548=CARTESIAN_POINT('',(-17.15,-10.15,11.45));
#549=CARTESIAN_POINT('Origin',(-7.5,0.,11.45));
#550=CARTESIAN_POINT('Origin',(-7.5,0.,-11.45));
#551=CARTESIAN_POINT('Origin',(-17.15,4.77486130493391,-11.45));
#552=CARTESIAN_POINT('',(-17.15,-10.15,-11.45));
#553=CARTESIAN_POINT('Origin',(-15.0023607060122,8.01254812731188,-11.45));
#554=CARTESIAN_POINT('Origin',(-7.5,0.,-11.45));
#555=CARTESIAN_POINT('Origin',(-7.5,0.,-11.45));
#556=UNCERTAINTY_MEASURE_WITH_UNIT(LENGTH_MEASURE(0.01),#560,
'DISTANCE_ACCURACY_VALUE',
'Maximum model space distance between geometric entities at asserted c
onnectivities');
#557=UNCERTAINTY_MEASURE_WITH_UNIT(LENGTH_MEASURE(0.01),#560,
'DISTANCE_ACCURACY_VALUE',
'Maximum model space distance between geometric entities at asserted c
onnectivities');
#558=(
GEOMETRIC_REPRESENTATION_CONTEXT(3)
GLOBAL_UNCERTAINTY_ASSIGNED_CONTEXT((#556))
GLOBAL_UNIT_ASSIGNED_CONTEXT((#560,#562,#563))
REPRESENTATION_CONTEXT('','3D')
);
#559=(
GEOMETRIC_REPRESENTATION_CONTEXT(3)
GLOBAL_UNCERTAINTY_ASSIGNED_CONTEXT((#557))
GLOBAL_UNIT_ASSIGNED_CONTEXT((#560,#562,#563))
REPRESENTATION_CONTEXT('','3D')
);
#560=(
LENGTH_UNIT()
NAMED_UNIT(*)
SI_UNIT(.MILLI.,.METRE.)
);
#561=(
LENGTH_UNIT()
NAMED_UNIT(*)
SI_UNIT($,.METRE.)
);
#562=(
NAMED_UNIT(*)
PLANE_ANGLE_UNIT()
SI_UNIT($,.RADIAN.)
);
#563=(
NAMED_UNIT(*)
SI_UNIT($,.STERADIAN.)
SOLID_ANGLE_UNIT()
);
#564=SHAPE_DEFINITION_REPRESENTATION(#565,#566);
#565=PRODUCT_DEFINITION_SHAPE('',$,#568);
#566=SHAPE_REPRESENTATION('',(#262),#558);
#567=PRODUCT_DEFINITION_CONTEXT('part definition',#572,'design');
#568=PRODUCT_DEFINITION('2026-08-27-17-11-03-154','(Unsaved)',#569,#567);
#569=PRODUCT_DEFINITION_FORMATION('',$,#574);
#570=PRODUCT_RELATED_PRODUCT_CATEGORY('(Unsaved)','(Unsaved)',(#574));
#571=APPLICATION_PROTOCOL_DEFINITION('international standard',
'automotive_design',2009,#572);
#572=APPLICATION_CONTEXT(
'Core Data for Automotive Mechanical Design Process');
#573=PRODUCT_CONTEXT('part definition',#572,'mechanical');
#574=PRODUCT('2026-08-27-17-11-03-154','(Unsaved)',$,(#573));
#575=PRESENTATION_STYLE_ASSIGNMENT((#576));
#576=SURFACE_STYLE_USAGE(.BOTH.,#577);
#577=SURFACE_SIDE_STYLE('',(#578));
#578=SURFACE_STYLE_FILL_AREA(#579);
#579=FILL_AREA_STYLE('Steel - Satin',(#580));
#580=FILL_AREA_STYLE_COLOUR('Steel - Satin',#581);
#581=COLOUR_RGB('Steel - Satin',0.627450980392157,0.627450980392157,0.627450980392157);
ENDSEC;
END-ISO-10303-21;
